<?xml version="1.0" encoding="utf-8"?>
<!-- Generator: Adobe Illustrator 21.0.0, SVG Export Plug-In . SVG Version: 6.00 Build 0)  -->
<svg version="1.1" id="Layer_1" xmlns="http://www.w3.org/2000/svg" xmlns:xlink="http://www.w3.org/1999/xlink" x="0px" y="0px"
	 viewBox="0 0 292.4 546" style="enable-background:new 0 0 292.4 546;" xml:space="preserve">
<style type="text/css">
	.st0{fill:#D7BDAE;}
	.st1{clip-path:url(#SVGID_3_);fill:#D7BDAE;}
	.st2{clip-path:url(#SVGID_5_);}
	.st3{fill:#2C3033;}
	.st4{fill:#FFFFFF;}
</style>
<title>dots</title>
<g>
	<g>
		<rect id="SVGID_1_" x="0.1" class="st0" width="292.2" height="546"/>
	</g>
	<g>
		<defs>
			<rect id="SVGID_2_" x="0.1" width="292.2" height="546"/>
		</defs>
		<clipPath id="SVGID_3_">
			<use xlink:href="#SVGID_2_"  style="overflow:visible;"/>
		</clipPath>
		<rect x="2.3" y="6.9" class="st1" width="287.8" height="537.7"/>
	</g>
</g>
<g>
	<g>
		<defs>
			<rect id="SVGID_4_" width="292.4" height="546"/>
		</defs>
		<clipPath id="SVGID_5_">
			<use xlink:href="#SVGID_4_"  style="overflow:visible;"/>
		</clipPath>
		<g class="st2">
			<path class="st3" d="M147.2,128.1c2.1,0,3.8-1.7,3.8-3.8s-1.7-3.8-3.9-3.8c-2.1,0-3.8,1.7-3.8,3.8S145.1,128.1,147.2,128.1
				L147.2,128.1"/>
			<path class="st3" d="M117.8,84.2c2.1,0,3.8-1.7,3.8-3.8s-1.7-3.8-3.8-3.8c-2.1,0-3.8,1.7-3.8,3.8S115.7,84.2,117.8,84.2"/>
			<path class="st3" d="M117.4,172.5c2.1,0,3.8-1.7,3.8-3.9c0-2.1-1.7-3.8-3.8-3.8c-2.1,0-3.8,1.7-3.8,3.8S115.3,172.5,117.4,172.5
				L117.4,172.5"/>
			<path class="st3" d="M147.1,158c2.1,0,3.8-1.7,3.8-3.9s-1.7-3.8-3.9-3.8c-2.1,0-3.8,1.7-3.8,3.8S145,158,147.1,158L147.1,158"/>
			<path class="st3" d="M162.1,127.8c2.1,0,3.8-1.7,3.8-3.9s-1.7-3.8-3.9-3.8c-2.1,0-3.8,1.7-3.8,3.8S160,127.8,162.1,127.8
				L162.1,127.8"/>
			<path class="st3" d="M177.1,143.5c2.1,0,3.8-1.7,3.8-3.9s-1.7-3.8-3.9-3.8c-2.1,0-3.8,1.7-3.8,3.8S175,143.5,177.1,143.5
				L177.1,143.5"/>
			<path class="st3" d="M163.6,40.7c2.1,0,3.8-1.7,3.8-3.9s-1.7-3.8-3.9-3.8c-2.1,0-3.8,1.7-3.8,3.8C159.7,39,161.5,40.7,163.6,40.7
				L163.6,40.7"/>
			<path class="st3" d="M176.8,69.2c2.1,0,3.8-1.7,3.8-3.9s-1.7-3.8-3.9-3.8c-2.1,0-3.8,1.7-3.8,3.8S174.7,69.2,176.8,69.2
				L176.8,69.2"/>
			<path class="st3" d="M191.7,69.8c2.1,0,3.8-1.7,3.8-3.9s-1.7-3.8-3.9-3.8c-2.1,0-3.8,1.7-3.8,3.8S189.6,69.8,191.7,69.8
				L191.7,69.8"/>
			<path class="st3" d="M236.2,7.7c2.1,0,3.8-1.7,3.8-3.9S238.3,0,236.2,0s-3.8,1.7-3.8,3.9C232.3,6,234.1,7.7,236.2,7.7L236.2,7.7"
				/>
			<path class="st3" d="M250.8,7.8c2.1,0,3.8-1.7,3.8-3.9s-1.7-3.8-3.9-3.8c-2.1,0-3.8,1.7-3.8,3.9l0,0
				C246.9,6.1,248.7,7.9,250.8,7.8L250.8,7.8"/>
			<path class="st3" d="M235.7,27c2.1,0,3.8-1.7,3.8-3.9s-1.7-3.8-3.9-3.8s-3.8,1.7-3.8,3.9C231.9,25.3,233.6,27,235.7,27L235.7,27"
				/>
			<path class="st3" d="M236.3,41.6c2.1,0,3.8-1.7,3.8-3.9s-1.7-3.8-3.9-3.8c-2.1,0-3.8,1.7-3.8,3.8
				C232.4,39.8,234.2,41.6,236.3,41.6L236.3,41.6"/>
			<path class="st3" d="M251.6,42.1c2.1,0,3.9-1.7,3.9-3.9c0-2.1-1.7-3.8-3.9-3.8c-2.1,0-3.9,1.7-3.9,3.8
				C247.7,40.4,249.5,42.1,251.6,42.1L251.6,42.1"/>
			<path class="st3" d="M236.7,79.4c2.1,0,3.8-1.7,3.8-3.9s-1.7-3.8-3.9-3.8c-2.1,0-3.8,1.7-3.8,3.8S234.5,79.4,236.7,79.4
				L236.7,79.4"/>
			<path class="st3" d="M253.3,79.4c2.1,0,3.9-1.7,3.9-3.9c0-2.1-1.7-3.8-3.9-3.8c-2.1,0-3.9,1.7-3.9,3.8S251.2,79.4,253.3,79.4
				L253.3,79.4"/>
			<path class="st3" d="M235.7,127.6c2.1,0,3.8-1.7,3.8-3.9s-1.7-3.8-3.9-3.8c-2.1,0-3.8,1.7-3.8,3.8S233.6,127.6,235.7,127.6
				L235.7,127.6"/>
			<path class="st3" d="M253.3,128.1c2.1,0,3.9-1.7,3.9-3.8c0-2.1-1.7-3.8-3.9-3.8c-2.1,0-3.9,1.7-3.9,3.8S251.2,128.1,253.3,128.1
				L253.3,128.1"/>
			<path class="st3" d="M270.5,112.1c2.1,0,3.9-1.7,3.9-3.9c0-2.1-1.7-3.8-3.9-3.8c-2.1,0-3.9,1.7-3.9,3.8S268.4,112.1,270.5,112.1
				L270.5,112.1"/>
			<path class="st3" d="M287.7,112.1c2.1,0,3.9-1.7,3.9-3.9c0-2.1-1.7-3.8-3.9-3.8c-2.1,0-3.9,1.7-3.9,3.8S285.6,112.1,287.7,112.1
				L287.7,112.1"/>
			<path class="st3" d="M270.5,95.8c2.1,0,3.9-1.7,3.9-3.9c0-2.1-1.7-3.8-3.9-3.8c-2.1,0-3.9,1.7-3.9,3.8S268.4,95.8,270.5,95.8
				L270.5,95.8"/>
			<path class="st3" d="M270.1,69.4c2.1,0,3.9-1.7,3.9-3.9c0-2.1-1.7-3.8-3.9-3.8c-2.1,0-3.9,1.7-3.9,3.8S268,69.4,270.1,69.4
				L270.1,69.4"/>
			<path class="st3" d="M288.5,70.2c2.1,0,3.9-1.7,3.9-3.9c0-2.1-1.7-3.8-3.9-3.8c-2.1,0-3.9,1.7-3.9,3.8S286.4,70.2,288.5,70.2
				L288.5,70.2"/>
			<path class="st3" d="M240.2,168.7c2.2,0,4.1-1.8,4.1-4.1s-1.8-4.1-4.1-4.1s-4.1,1.8-4.1,4.1l0,0
				C236.2,166.8,238,168.7,240.2,168.7"/>
			<path class="st3" d="M148.4,213.2c2.2,0,4.1-1.8,4.1-4.1s-1.8-4.1-4.1-4.1s-4.1,1.8-4.1,4.1l0,0
				C144.4,211.4,146.2,213.2,148.4,213.2"/>
			<path class="st3" d="M179.7,199.3c2.2,0,4.1-1.8,4.1-4.1s-1.8-4.1-4.1-4.1s-4.1,1.8-4.1,4.1l0,0
				C175.7,197.5,177.5,199.3,179.7,199.3"/>
			<path class="st3" d="M241.7,184.2c2.2,0,4.1-1.8,4.1-4.1s-1.8-4.1-4.1-4.1s-4.1,1.8-4.1,4.1l0,0
				C237.6,182.4,239.5,184.2,241.7,184.2"/>
			<path class="st3" d="M257.6,183.3c2.2,0,4.1-1.8,4.1-4.1s-1.8-4.1-4.1-4.1s-4.1,1.8-4.1,4.1l0,0
				C253.5,181.5,255.3,183.3,257.6,183.3"/>
			<path class="st3" d="M273.6,199.3c2.2,0,4.1-1.8,4.1-4.1s-1.8-4.1-4.1-4.1s-4.1,1.8-4.1,4.1l0,0
				C269.5,197.5,271.4,199.3,273.6,199.3"/>
			<path class="st3" d="M272.9,215.6c2.2,0,4.1-1.8,4.1-4.1s-1.8-4.1-4.1-4.1s-4.1,1.8-4.1,4.1l0,0
				C268.8,213.8,270.6,215.6,272.9,215.6"/>
			<path class="st3" d="M210,229.9c2.2,0,4.1-1.8,4.1-4.1s-1.8-4.1-4.1-4.1s-4.1,1.8-4.1,4.1l0,0C205.9,228.1,207.8,229.9,210,229.9
				"/>
			<path class="st3" d="M210.3,276.5c2.2,0,4.1-1.8,4.1-4.1s-1.8-4.1-4.1-4.1s-4.1,1.8-4.1,4.1l0,0
				C206.2,274.7,208,276.5,210.3,276.5"/>
			<path class="st3" d="M179.4,246.2c2.2,0,4.1-1.8,4.1-4.1s-1.8-4.1-4.1-4.1s-4.1,1.8-4.1,4.1l0,0
				C175.3,244.3,177.1,246.2,179.4,246.2"/>
			<path class="st3" d="M117.3,229.9c2.2,0,4.1-1.8,4.1-4.1c0-2.2-1.8-4.1-4.1-4.1c-2.2,0-4.1,1.8-4.1,4.1l0,0
				C113.2,228.1,115,229.9,117.3,229.9"/>
			<path class="st3" d="M117.3,245.1c2.2,0,4.1-1.8,4-4.1c0-2.2-1.8-4.1-4.1-4.1c-2.2,0-4,1.8-4.1,4.1
				C113.2,243.3,115,245.1,117.3,245.1"/>
			<path class="st3" d="M132.6,245.1c2.2,0,4.1-1.8,4.1-4.1s-1.8-4.1-4.1-4.1s-4.1,1.8-4.1,4.1l0,0
				C128.5,243.3,130.3,245.1,132.6,245.1"/>
			<path class="st3" d="M148.4,260.5c2.2,0,4.1-1.8,4.1-4.1c0-2.2-1.8-4.1-4.1-4.1s-4.1,1.8-4.1,4.1l0,0
				C144.4,258.7,146.2,260.5,148.4,260.5"/>
			<path class="st3" d="M147.6,276.5c2.2,0,4.1-1.8,4.1-4.1s-1.8-4.1-4.1-4.1s-4.1,1.8-4.1,4.1l0,0
				C143.5,274.7,145.3,276.5,147.6,276.5"/>
			<path class="st3" d="M164.4,276.5c2.2,0,4.1-1.8,4.1-4.1s-1.8-4.1-4.1-4.1s-4.1,1.8-4.1,4.1l0,0
				C160.4,274.7,162.2,276.5,164.4,276.5"/>
			<path class="st3" d="M179.7,291.8c2.2,0,4.1-1.8,4.1-4.1s-1.8-4.1-4.1-4.1s-4.1,1.8-4.1,4.1l0,0
				C175.7,289.9,177.5,291.8,179.7,291.8"/>
			<path class="st3" d="M178.3,307.9c2.2,0,4.1-1.8,4.1-4.1s-1.8-4.1-4.1-4.1s-4.1,1.8-4.1,4.1l0,0
				C174.2,306.1,176,307.9,178.3,307.9"/>
			<path class="st3" d="M195,308.5c2.2,0,4.1-1.8,4.1-4.1s-1.8-4.1-4.1-4.1s-4.1,1.8-4.1,4.1l0,0C190.9,306.7,192.8,308.5,195,308.5
				"/>
			<path class="st3" d="M257.6,323c2.2,0,4.1-1.8,4.1-4.1s-1.8-4.1-4.1-4.1s-4.1,1.8-4.1,4.1l0,0C253.5,321.2,255.3,323,257.6,323"
				/>
			<path class="st3" d="M209.4,339.7c2.2,0,4.1-1.8,4.1-4.1s-1.8-4.1-4.1-4.1s-4.1,1.8-4.1,4.1l0,0
				C205.4,337.9,207.2,339.7,209.4,339.7"/>
			<path class="st3" d="M163,323c2.2,0,4.1-1.8,4.1-4.1s-1.8-4.1-4.1-4.1s-4.1,1.8-4.1,4.1l0,0C158.9,321.2,160.8,323,163,323"/>
			<path class="st3" d="M147.6,323.8c2.2,0,4.1-1.8,4.1-4.1s-1.8-4.1-4.1-4.1s-4.1,1.8-4.1,4.1l0,0
				C143.5,322,145.3,323.8,147.6,323.8"/>
			<path class="st3" d="M117.1,338.3c2.2,0,4.1-1.8,4.1-4.1c0-2.2-1.8-4.1-4.1-4.1c-2.2,0-4.1,1.8-4.1,4.1l0,0
				C113.1,336.5,114.9,338.3,117.1,338.3"/>
			<path class="st3" d="M131.7,338.3c2.2,0,4.1-1.8,4.1-4.1s-1.8-4.1-4.1-4.1s-4.1,1.8-4.1,4.1l0,0
				C127.6,336.5,129.5,338.3,131.7,338.3"/>
			<path class="st3" d="M274.1,358.3c2.3,0,4.1-1.9,4-4.1s-1.9-4.1-4.1-4c-2.2,0-4,1.8-4,4.1C270,356.5,271.8,358.3,274.1,358.3"/>
			<path class="st3" d="M242.3,373.8c2.3,0,4.1-1.8,4.1-4.1c0-2.3-1.8-4.1-4.1-4.1s-4.1,1.8-4.1,4.1l0,0
				C238.2,371.9,240.1,373.8,242.3,373.8"/>
			<path class="st3" d="M258.9,373.8c2.3,0,4.1-1.8,4.1-4.1s-1.8-4.1-4.1-4.1s-4.1,1.8-4.1,4.1l0,0
				C254.8,371.9,256.6,373.8,258.9,373.8"/>
			<path class="st3" d="M148.5,357.6c2.3,0,4.1-1.8,4.1-4.1c0-2.3-1.8-4.1-4.1-4.1s-4.1,1.8-4.1,4.1l0,0
				C144.4,355.7,146.3,357.6,148.5,357.6"/>
			<path class="st3" d="M148.1,373.3c2.3,0,4.1-1.8,4.1-4.1c0-2.3-1.8-4.1-4.1-4.1s-4.1,1.8-4.1,4.1l0,0
				C144.1,371.5,145.9,373.3,148.1,373.3"/>
			<path class="st3" d="M163.9,372.8c2.3,0,4.1-1.8,4.1-4.1c0-2.3-1.8-4.1-4.1-4.1s-4.1,1.8-4.1,4.1l0,0
				C159.8,371,161.6,372.8,163.9,372.8"/>
			<path class="st3" d="M179.3,388.8c2.3,0,4.1-1.8,4.1-4.1c0-2.3-1.8-4.1-4.1-4.1s-4.1,1.8-4.1,4.1l0,0
				C175.2,386.9,177.1,388.8,179.3,388.8"/>
			<path class="st3" d="M274.1,405c2.3,0,4.1-1.8,4.1-4.1s-1.8-4.1-4.1-4.1s-4.1,1.8-4.1,4.1l0,0C270,403.1,271.9,405,274.1,405"/>
			<path class="st3" d="M242.1,420.4c2.3,0,4.1-1.8,4.1-4.1c0-2.3-1.8-4.1-4.1-4.1s-4.1,1.8-4.1,4.1l0,0
				C238,418.6,239.8,420.4,242.1,420.4"/>
			<path class="st3" d="M258,420.4c2.3,0,4.1-1.8,4.1-4.1s-1.8-4.1-4.1-4.1s-4.1,1.8-4.1,4.1l0,0C253.9,418.6,255.7,420.4,258,420.4
				"/>
			<path class="st3" d="M241.9,435.8c2.3,0,4.1-1.8,4.1-4.1c0-2.3-1.8-4.1-4.1-4.1s-4.1,1.8-4.1,4.1l0,0
				C237.9,433.9,239.7,435.8,241.9,435.8"/>
			<path class="st3" d="M242.6,451.1c2.3,0,4.1-1.8,4.1-4.1c0-2.3-1.8-4.1-4.1-4.1s-4.1,1.8-4.1,4.1l0,0
				C238.5,449.3,240.3,451.1,242.6,451.1"/>
			<path class="st3" d="M258.1,451.7c2.3,0,4.1-1.8,4.1-4.1s-1.8-4.1-4.1-4.1s-4.1,1.8-4.1,4.1l0,0
				C254.1,449.9,255.9,451.7,258.1,451.7"/>
			<path class="st3" d="M146.9,435.8c2.3,0,4.1-1.8,4.1-4.1c0-2.3-1.8-4.1-4.1-4.1s-4.1,1.8-4.1,4.1l0,0
				C142.8,433.9,144.7,435.8,146.9,435.8"/>
			<path class="st3" d="M147.7,450.4c2.3,0,4.1-1.8,4.1-4.1c0-2.3-1.8-4.1-4.1-4.1s-4.1,1.8-4.1,4.1l0,0
				C143.6,448.6,145.4,450.4,147.7,450.4"/>
			<path class="st3" d="M163,451.1c2.3,0,4.1-1.8,4.1-4.1c0-2.3-1.8-4.1-4.1-4.1s-4.1,1.8-4.1,4.1l0,0
				C158.9,449.3,160.7,451.1,163,451.1"/>
			<path class="st3" d="M171.4,481.8c2.3,0,4.1-1.8,4.1-4.1c0-2.3-1.8-4.1-4.1-4.1s-4.1,1.8-4.1,4.1l0,0
				C167.3,480,169.1,481.8,171.4,481.8"/>
			<path class="st3" d="M186.5,481.6c2.3,0,4.1-1.8,4.1-4.1c0-2.3-1.8-4.1-4.1-4.1s-4.1,1.8-4.1,4.1l0,0
				C182.4,479.8,184.2,481.6,186.5,481.6"/>
			<path class="st3" d="M264.8,482.6c2.3,0,4.1-1.8,4.1-4.1s-1.8-4.1-4.1-4.1s-4.1,1.8-4.1,4.1l0,0
				C260.8,480.7,262.6,482.6,264.8,482.6"/>
			<path class="st3" d="M279.5,482.6c2.3,0,4.1-1.8,4.1-4.1s-1.8-4.1-4.1-4.1s-4.1,1.8-4.1,4.1l0,0
				C275.4,480.7,277.2,482.6,279.5,482.6"/>
			<path class="st3" d="M232.7,497.9c2.3,0,4.1-1.8,4.1-4.1c0-2.3-1.8-4.1-4.1-4.1s-4.1,1.8-4.1,4.1l0,0
				C228.6,496.1,230.4,497.9,232.7,497.9"/>
			<path class="st3" d="M248.6,497.9c2.3,0,4.1-1.8,4.1-4.1c0-2.3-1.8-4.1-4.1-4.1s-4.1,1.8-4.1,4.1l0,0
				C244.6,496.1,246.4,497.9,248.6,497.9"/>
			<path class="st3" d="M107.7,497.7c2.3,0,4.1-1.8,4.1-4.1c0-2.3-1.8-4.1-4.1-4.1c-2.3,0-4.1,1.8-4.1,4.1l0,0
				C103.6,495.8,105.4,497.7,107.7,497.7"/>
			<path class="st3" d="M170.2,512.5c2.3,0,4.1-1.8,4.1-4.1c0-2.3-1.8-4.1-4.1-4.1s-4.1,1.8-4.1,4.1S167.9,512.5,170.2,512.5
				L170.2,512.5"/>
			<path class="st3" d="M170.5,525.9c2.3,0,4.1-1.8,4.1-4.1s-1.8-4.1-4.1-4.1s-4.1,1.8-4.1,4.1S168.3,525.9,170.5,525.9L170.5,525.9
				"/>
			<path class="st3" d="M138.4,546c2.3,0,4.1-1.8,4.1-4.1s-1.8-4.1-4.1-4.1s-4.1,1.8-4.1,4.1S136.1,546,138.4,546L138.4,546"/>
			<path class="st3" d="M154.6,545.9c2.3,0,4.1-1.8,4.1-4.1s-1.8-4.1-4.1-4.1s-4.1,1.8-4.1,4.1S152.3,545.9,154.6,545.9L154.6,545.9
				"/>
			<path class="st3" d="M185.5,527.5c2.3,0,4.1-1.8,4.1-4.1s-1.8-4.1-4.1-4.1s-4.1,1.8-4.1,4.1S183.3,527.5,185.5,527.5L185.5,527.5
				"/>
			<path class="st3" d="M265.6,512.5c2.3,0,4.1-1.8,4.1-4.1c0-2.3-1.8-4.1-4.1-4.1c-2.3,0-4.1,1.8-4.1,4.1S263.3,512.5,265.6,512.5
				L265.6,512.5"/>
			<path class="st3" d="M264,527.2c2.3,0,4.1-1.8,4.1-4.1s-1.8-4.1-4.1-4.1c-2.3,0-4.1,1.8-4.1,4.1S261.7,527.2,264,527.2L264,527.2
				"/>
			<path class="st3" d="M280.9,526.6c2.3,0,4.1-1.8,4.1-4.1s-1.8-4.1-4.1-4.1c-2.3,0-4.1,1.8-4.1,4.1S278.7,526.6,280.9,526.6
				L280.9,526.6"/>
			<path class="st3" d="M232.7,545.3c2.3,0,4.1-1.8,4.1-4.1s-1.8-4.1-4.1-4.1s-4.1,1.8-4.1,4.1S230.4,545.3,232.7,545.3L232.7,545.3
				"/>
			<path class="st3" d="M248.8,545.2c2.3,0,4.1-1.8,4.1-4.1s-1.8-4.1-4.1-4.1s-4.1,1.8-4.1,4.1S246.5,545.2,248.8,545.2L248.8,545.2
				"/>
			<path class="st3" d="M4.5,14.8c2.1,0,3.9-1.7,3.9-3.9S6.6,7.1,4.5,7.1S0.7,8.8,0.7,11C0.7,13.1,2.4,14.8,4.5,14.8L4.5,14.8"/>
			<path class="st3" d="M5,50.3c2.1,0,3.9-1.7,3.9-3.8S7.1,42.6,5,42.6s-3.8,1.7-3.8,3.9l0,0C1.2,48.6,2.9,50.3,5,50.3"/>
			<path class="st3" d="M4.5,65c2.1,0,3.9-1.7,3.9-3.8s-1.7-3.8-3.9-3.8S0.7,59,0.7,61.2l0,0C0.7,63.3,2.4,65,4.5,65"/>
			<path class="st3" d="M22.5,65.7c2.1,0,3.9-1.7,3.9-3.8S24.6,58,22.5,58s-3.9,1.7-3.9,3.8l0,0C18.7,64,20.4,65.7,22.5,65.7"/>
			<path class="st3" d="M64.5,15.1c2.2,0,4-1.8,4-4s-1.8-4-4-4s-4,1.8-4,4S62.3,15.1,64.5,15.1"/>
			<path class="st3" d="M35,80.5c2.2,0,4-1.8,4-4s-1.8-4-4-4s-4,1.8-4,4S32.8,80.5,35,80.5"/>
			<path class="st3" d="M68.3,80.6c2.2,0,4-1.8,4-4s-1.8-4-4-4s-4,1.8-4,4S66.1,80.6,68.3,80.6"/>
			<path class="st3" d="M83.9,80.4c2.2,0,4-1.8,4-4s-1.8-4-4-4s-4,1.8-4,4S81.7,80.4,83.9,80.4"/>
			<path class="st3" d="M99.6,95.1c2.2,0,4-1.8,4-4s-1.8-4-4-4s-4,1.8-4,4S97.4,95.1,99.6,95.1"/>
			<path class="st3" d="M69.6,111.3c2.2,0,4-1.8,4-4s-1.8-4-4-4s-4,1.8-4,4S67.3,111.3,69.6,111.3"/>
			<path class="st3" d="M50.2,126.5c2.2,0,4-1.8,4-4s-1.8-4-4-4s-4,1.8-4,4S47.9,126.5,50.2,126.5"/>
			<path class="st3" d="M68.6,126.5c2.2,0,4-1.8,4-4s-1.8-4-4-4s-4,1.8-4,4S66.4,126.5,68.6,126.5"/>
			<path class="st3" d="M86.7,126.5c2.2,0,4-1.8,4-4s-1.8-4-4-4s-4,1.8-4,4S84.5,126.5,86.7,126.5"/>
			<path class="st3" d="M34.5,161.2c2.2,0,4.1-1.8,4.1-4.1s-1.8-4.1-4.1-4.1s-4.1,1.8-4.1,4.1l0,0C30.4,159.4,32.3,161.2,34.5,161.2
				"/>
			<path class="st3" d="M66.4,160.5c2.2,0,4.1-1.8,4.1-4.1c0-2.2-1.8-4.1-4.1-4.1c-2.2,0-4.1,1.8-4.1,4.1l0,0
				C62.3,158.7,64.2,160.5,66.4,160.5"/>
			<path class="st3" d="M65.4,176.4c2.2,0,4.1-1.8,4.1-4.1c0-2.2-1.8-4.1-4.1-4.1c-2.2,0-4.1,1.8-4.1,4.1l0,0
				C61.4,174.6,63.2,176.4,65.4,176.4"/>
			<path class="st3" d="M81.4,175.8c2.2,0,4.1-1.8,4.1-4.1c0-2.2-1.8-4.1-4.1-4.1c-2.2,0-4.1,1.8-4.1,4.1l0,0
				C77.4,174,79.2,175.8,81.4,175.8"/>
			<path class="st3" d="M36.2,207.1c2.2,0,4.1-1.8,4.1-4.1s-1.8-4.1-4.1-4.1s-4.1,1.8-4.1,4.1l0,0C32.1,205.3,34,207.1,36.2,207.1"
				/>
			<path class="st3" d="M67.5,207.9c2.2,0,4.1-1.8,4.1-4.1c0-2.2-1.8-4.1-4.1-4.1c-2.2,0-4.1,1.8-4.1,4.1l0,0
				C63.4,206.1,65.2,207.9,67.5,207.9"/>
			<path class="st3" d="M98.7,191.8c2.2,0,4.1-1.8,4.1-4.1c0-2.2-1.8-4.1-4.1-4.1c-2.2,0-4.1,1.8-4.1,4.1l0,0
				C94.6,190,96.4,191.8,98.7,191.8"/>
			<path class="st3" d="M4.3,239.1c2.2,0,4.1-1.8,4-4.1s-1.8-4.1-4.1-4c-2.2,0-4,1.8-4,4C0.2,237.3,2.1,239.1,4.3,239.1"/>
			<path class="st3" d="M35.5,254.4c2.2,0,4.1-1.8,4.1-4.1s-1.8-4.1-4.1-4.1s-4.1,1.8-4.1,4.1l0,0C31.4,252.6,33.2,254.4,35.5,254.4
				"/>
			<path class="st3" d="M98.1,238.2c2.2,0,4.1-1.8,4.1-4.1c0-2.2-1.8-4.1-4.1-4.1c-2.2,0-4.1,1.8-4.1,4.1l0,0
				C94,236.4,95.8,238.2,98.1,238.2"/>
			<path class="st3" d="M98.7,253.7c2.2,0,4.1-1.8,4.1-4.1c0-2.2-1.8-4.1-4.1-4.1c-2.2,0-4.1,1.8-4.1,4.1l0,0
				C94.6,251.8,96.4,253.7,98.7,253.7"/>
			<path class="st3" d="M4.2,284.2c2.2,0,4.1-1.8,4.1-4.1S6.5,276,4.2,276s-4.1,1.8-4.1,4.1l0,0C0.1,282.4,1.9,284.2,4.2,284.2"/>
			<path class="st3" d="M35.5,300.1c2.2,0,4.1-1.8,4-4.1s-1.8-4.1-4.1-4c-2.2,0-4,1.8-4,4C31.4,298.3,33.2,300.1,35.5,300.1"/>
			<path class="st3" d="M66.9,300.7c2.2,0,4.1-1.8,4.1-4.1c0-2.2-1.8-4.1-4.1-4.1c-2.2,0-4.1,1.8-4.1,4.1l0,0
				C62.8,298.9,64.6,300.7,66.9,300.7"/>
			<path class="st3" d="M35.5,315.5c2.2,0,4.1-1.8,4.1-4.1s-1.8-4.1-4.1-4.1s-4.1,1.8-4.1,4.1l0,0C31.4,313.7,33.2,315.5,35.5,315.5
				"/>
			<path class="st3" d="M50.8,315.5c2.2,0,4.1-1.8,4.1-4.1s-1.8-4.1-4.1-4.1s-4.1,1.8-4.1,4.1l0,0C46.7,313.7,48.5,315.5,50.8,315.5
				"/>
			<path class="st3" d="M67.5,315.6c2.2,0,4.1-1.8,4.1-4.1c0-2.2-1.8-4.1-4.1-4.1c-2.2,0-4.1,1.8-4.1,4.1l0,0
				C63.4,313.8,65.2,315.6,67.5,315.6"/>
			<path class="st3" d="M82,315.5c2.2,0,4.1-1.8,4.1-4s-1.8-4.1-4-4.1s-4.1,1.8-4.1,4c0,0,0,0,0,0.1C78,313.7,79.8,315.5,82,315.5"
				/>
			<path class="st3" d="M98.1,347.4c2.2,0,4.1-1.8,4.1-4.1c0-2.2-1.8-4.1-4.1-4.1c-2.2,0-4.1,1.8-4.1,4.1l0,0
				C94,345.6,95.8,347.4,98.1,347.4"/>
			<path class="st3" d="M82,362.6c2.2,0,4.1-1.8,4.1-4s-1.8-4.1-4-4.1s-4.1,1.8-4.1,4c0,0,0,0,0,0.1C78,360.7,79.8,362.5,82,362.6"
				/>
			<path class="st3" d="M65.9,362.8c2.2,0,4.1-1.8,4.1-4.1c0-2.2-1.8-4.1-4.1-4.1c-2.2,0-4.1,1.8-4.1,4.1l0,0
				C61.9,361,63.7,362.8,65.9,362.8"/>
			<path class="st3" d="M4.1,346.1c2.2,0,4.1-1.8,4.1-4.1c0-2.2-1.8-4.1-4.1-4.1S0,339.8,0,342l0,0C0,344.3,1.8,346.1,4.1,346.1"/>
			<path class="st3" d="M19.5,347.4c2.2,0,4.1-1.8,4.1-4.1c0-2.2-1.8-4.1-4.1-4.1s-4.1,1.8-4.1,4.1l0,0
				C15.4,345.6,17.2,347.4,19.5,347.4"/>
			<path class="st3" d="M37,396.7c2.3,0,4.1-1.8,4.1-4.1c0-2.3-1.8-4.1-4.1-4.1s-4.1,1.8-4.1,4.1l0,0
				C32.9,394.9,34.7,396.7,37,396.7"/>
			<path class="st3" d="M68.4,396.7c2.3,0,4.1-1.8,4.1-4.1c0-2.3-1.8-4.1-4.1-4.1c-2.3,0-4.1,1.8-4.1,4.1l0,0
				C64.3,394.9,66.2,396.7,68.4,396.7"/>
			<path class="st3" d="M67.6,428.2c2.3,0,4.1-1.8,4.1-4.1c0-2.3-1.8-4.1-4.1-4.1c-2.3,0-4.1,1.8-4.1,4.1l0,0
				C63.5,426.3,65.3,428.2,67.6,428.2"/>
			<path class="st3" d="M5.4,428.2c2.3,0,4.1-1.8,4.1-4.1c0-2.3-1.8-4.1-4.1-4.1s-4.1,1.8-4.1,4.1l0,0
				C1.4,426.3,3.2,428.2,5.4,428.2"/>
			<path class="st3" d="M68.4,474.2c2.3,0,4.1-1.8,4.1-4.1c0-2.3-1.8-4.1-4.1-4.1c-2.3,0-4.1,1.8-4.1,4.1l0,0
				C64.3,472.4,66.2,474.2,68.4,474.2"/>
			<path class="st3" d="M27,489.6c2.3,0,4.1-1.8,4.1-4.1c0-2.3-1.8-4.1-4.1-4.1s-4.1,1.8-4.1,4.1l0,0
				C22.9,487.7,24.7,489.6,27,489.6"/>
			<path class="st3" d="M5.4,458.1c2.3,0,4.1-1.8,4.1-4.1s-1.8-4-4.1-4c-2.2,0-4.1,1.8-4.1,4.1C1.4,456.3,3.2,458.1,5.4,458.1"/>
			<path class="st3" d="M4.8,474.2c2.3,0,4.1-1.8,4.1-4.1c0-2.3-1.8-4.1-4.1-4.1s-4.1,1.8-4.1,4.1l0,0
				C0.7,472.4,2.6,474.2,4.8,474.2"/>
			<path class="st3" d="M20.9,474.2c2.3,0,4.1-1.8,4.1-4.1c0-2.3-1.8-4.1-4.1-4.1s-4.1,1.8-4.1,4.1l0,0
				C16.8,472.4,18.6,474.2,20.9,474.2"/>
			<path class="st3" d="M27.7,521c2.3,0,4.1-1.8,4.1-4.1s-1.8-4.1-4.1-4.1s-4.1,1.8-4.1,4.1S25.5,521,27.7,521L27.7,521"/>
			<path class="st3" d="M27.1,534.3c2.3,0,4.1-1.8,4.1-4.1s-1.8-4.1-4.1-4.1c-2.2,0-4.1,1.8-4.1,4.1S24.8,534.3,27.1,534.3
				L27.1,534.3"/>
			<path class="st3" d="M43.8,533.6c2.3,0,4.1-1.8,4.1-4.1s-1.8-4.1-4.1-4.1s-4.1,1.8-4.1,4.1S41.5,533.6,43.8,533.6L43.8,533.6"/>
			<path class="st3" d="M59.1,490.3c2.3,0,4.1-1.8,4.1-4.1c0-2.3-1.8-4.1-4.1-4.1s-4.1,1.8-4.1,4.1l0,0
				C55.1,488.5,56.9,490.3,59.1,490.3"/>
			<path class="st3" d="M73.6,490.3c2.3,0,4.1-1.8,4.1-4.1c0-2.3-1.8-4.1-4.1-4.1c-2.3,0-4.1,1.8-4.1,4.1l0,0
				C69.6,488.5,71.4,490.3,73.6,490.3"/>
			<path class="st3" d="M89.8,505.6c2.3,0,4.1-1.8,4.1-4.1c0-2.3-1.8-4.1-4.1-4.1c-2.3,0-4.1,1.8-4.1,4.1S87.6,505.6,89.8,505.6
				L89.8,505.6"/>
		</g>
	</g>
</g>
<rect x="4" y="75.4" class="st4" width="21.8" height="183.7"/>
<rect x="4.1" y="287" class="st4" width="21.8" height="183.5"/>
<rect x="267.2" y="74.9" class="st4" width="21.8" height="183.7"/>
<rect x="267.3" y="286.5" class="st4" width="21.8" height="183.5"/>
<polygon class="st4" points="68,74.2 48.6,82.9 136.1,273 148.4,248.8 "/>
<polygon class="st4" points="228.8,74.2 148.4,248.8 160.7,273 248.2,82.9 "/>
<polygon class="st4" points="48.6,463.1 68,471.8 148.4,297.2 136.1,273 "/>
<polygon class="st4" points="148.4,297.2 228.8,471.8 248.2,463.1 160.7,273 "/>
</svg>
