<?xml version="1.0" encoding="utf-8"?>
<!-- Generator: Adobe Illustrator 21.0.0, SVG Export Plug-In . SVG Version: 6.00 Build 0)  -->
<svg version="1.1" id="Layer_1" xmlns="http://www.w3.org/2000/svg" xmlns:xlink="http://www.w3.org/1999/xlink" x="0px" y="0px"
	 viewBox="0 0 877.2 546" style="enable-background:new 0 0 877.2 546;" xml:space="preserve">
<style type="text/css">
	.st0{fill:#D7BDAE;}
	.st1{clip-path:url(#SVGID_2_);}
	.st2{clip-path:url(#SVGID_4_);}
	.st3{fill:#2C3033;}
	.st4{clip-path:url(#SVGID_6_);}
	.st5{clip-path:url(#SVGID_8_);}
	.st6{clip-path:url(#SVGID_10_);}
	.st7{clip-path:url(#SVGID_12_);}
</style>
<title>dots-large</title>
<rect id="SVGID" x="292.5" class="st0" width="292.2" height="546"/>
<g>
	<defs>
		<rect id="SVGID_1_" x="292.5" width="292.2" height="546"/>
	</defs>
	<clipPath id="SVGID_2_">
		<use xlink:href="#SVGID_1_"  style="overflow:visible;"/>
	</clipPath>
	<g class="st1">
		<rect x="294.7" y="6.9" class="st0" width="287.8" height="537.7"/>
	</g>
</g>
<g>
	<defs>
		<rect id="SVGID_3_" x="292.4" width="292.4" height="546"/>
	</defs>
	<clipPath id="SVGID_4_">
		<use xlink:href="#SVGID_3_"  style="overflow:visible;"/>
	</clipPath>
	<g class="st2">
		<path class="st3" d="M439.6,128.1c2.1-0.1,3.8-1.8,3.7-3.9c-0.1-2.1-1.8-3.8-3.9-3.7c-2.1,0.1-3.7,1.7-3.7,3.8
			C435.7,126.4,437.5,128.1,439.6,128.1L439.6,128.1"/>
		<path class="st3" d="M410.2,84.2c2.1,0,3.8-1.7,3.8-3.8s-1.7-3.8-3.8-3.8c-2.1,0-3.8,1.7-3.8,3.8v0
			C406.4,82.5,408.1,84.2,410.2,84.2"/>
		<path class="st3" d="M409.8,172.5c2.1,0,3.9-1.7,3.9-3.8c0-2.1-1.7-3.9-3.8-3.9c-2.1,0-3.9,1.7-3.9,3.8
			C406,170.7,407.7,172.5,409.8,172.5L409.8,172.5"/>
		<path class="st3" d="M439.5,158c2.1,0,3.8-1.7,3.8-3.8c0,0,0,0,0-0.1c0-2.1-1.6-3.8-3.7-3.8c-0.1,0-0.1,0-0.2,0
			c-2.1,0-3.8,1.7-3.8,3.8C435.7,156.2,437.4,157.9,439.5,158L439.5,158"/>
		<path class="st3" d="M454.5,127.8c2.1,0,3.8-1.7,3.8-3.8c0,0,0,0,0-0.1c0-2.1-1.6-3.8-3.7-3.8c-0.1,0-0.1,0-0.2,0
			c-2.1,0-3.8,1.7-3.8,3.8C450.7,126,452.4,127.7,454.5,127.8L454.5,127.8"/>
		<path class="st3" d="M469.5,143.5c2.1,0,3.8-1.7,3.8-3.8c0,0,0,0,0-0.1c0-2.1-1.6-3.8-3.7-3.8c-0.1,0-0.1,0-0.2,0
			c-2.1,0-3.8,1.7-3.8,3.8C465.7,141.7,467.4,143.4,469.5,143.5L469.5,143.5"/>
		<path class="st3" d="M456,40.7c2.1,0,3.8-1.7,3.8-3.8c0,0,0,0,0-0.1c0-2.1-1.6-3.8-3.7-3.8c-0.1,0-0.1,0-0.2,0
			c-2.1,0-3.8,1.7-3.8,3.8C452.1,39,453.8,40.7,456,40.7L456,40.7"/>
		<path class="st3" d="M469.2,69.2c2.1,0,3.8-1.7,3.8-3.8c0,0,0,0,0-0.1c0-2.1-1.6-3.8-3.7-3.8c-0.1,0-0.1,0-0.2,0
			c-2.1,0-3.8,1.7-3.8,3.8C465.4,67.4,467.1,69.1,469.2,69.2L469.2,69.2"/>
		<path class="st3" d="M484.1,69.8c2.1,0,3.8-1.7,3.8-3.8c0,0,0,0,0-0.1c0-2.1-1.7-3.8-3.7-3.8c-0.1,0-0.1,0-0.2,0
			c-2.1,0-3.8,1.7-3.8,3.8C480.3,68.1,482,69.8,484.1,69.8L484.1,69.8"/>
		<path class="st3" d="M528.6,7.7c2.1,0,3.8-1.7,3.8-3.8c0,0,0,0,0-0.1c0-2.1-1.6-3.8-3.7-3.8c0,0-0.1,0-0.1,0
			c-2.1,0-3.8,1.7-3.8,3.8c0,0,0,0,0,0.1c0,2.1,1.6,3.8,3.7,3.8C528.5,7.7,528.6,7.7,528.6,7.7L528.6,7.7"/>
		<path class="st3" d="M543.2,7.8c2.1,0,3.8-1.7,3.8-3.8c0,0,0,0,0-0.1c0-2.1-1.7-3.8-3.7-3.8c-0.1,0-0.1,0-0.2,0
			c-2.1,0-3.8,1.7-3.8,3.8c0,0,0,0,0,0.1l0,0C539.3,6.1,541,7.8,543.2,7.8C543.2,7.8,543.2,7.8,543.2,7.8L543.2,7.8"/>
		<path class="st3" d="M528.1,27c2.1,0,3.8-1.7,3.8-3.8c0,0,0,0,0-0.1c0-2.1-1.8-3.8-3.9-3.8c-2.1,0-3.8,1.8-3.8,3.9
			C524.3,25.3,526,27,528.1,27L528.1,27"/>
		<path class="st3" d="M528.7,41.6c2.1,0,3.8-1.7,3.8-3.8c0,0,0,0,0-0.1c0-2.1-1.6-3.8-3.7-3.8c-0.1,0-0.1,0-0.2,0
			c-2.1,0-3.8,1.7-3.8,3.8C524.9,39.8,526.6,41.5,528.7,41.6L528.7,41.6"/>
		<path class="st3" d="M544,42.1c2.2,0,3.9-1.7,3.9-3.9c0,0,0,0,0,0c0-2.1-1.7-3.8-3.8-3.8c0,0,0,0-0.1,0c-2.1,0-3.8,1.7-3.8,3.9
			C540.2,40.4,541.9,42.1,544,42.1L544,42.1"/>
		<path class="st3" d="M529.1,79.4c2.1,0,3.8-1.7,3.8-3.8c0,0,0,0,0-0.1c0-2.1-1.6-3.8-3.7-3.8c-0.1,0-0.1,0-0.2,0
			c-2.1,0-3.8,1.7-3.8,3.8C525.2,77.7,526.9,79.4,529.1,79.4L529.1,79.4L529.1,79.4"/>
		<path class="st3" d="M545.7,79.4c2.2,0,3.9-1.7,3.9-3.9c0,0,0,0,0,0c0-2.1-1.7-3.8-3.8-3.8c0,0,0,0-0.1,0c-2.1,0-3.9,1.7-3.9,3.8
			C541.9,77.6,543.6,79.3,545.7,79.4L545.7,79.4"/>
		<path class="st3" d="M528.1,127.6c2.1,0,3.8-1.7,3.8-3.8c0,0,0,0,0-0.1c0-2.1-1.6-3.8-3.7-3.8c-0.1,0-0.1,0-0.2,0
			c-2.1,0-3.8,1.7-3.8,3.8C524.3,125.8,526,127.5,528.1,127.6L528.1,127.6"/>
		<path class="st3" d="M545.7,128.1c2.1,0,3.9-1.7,3.9-3.8c0-2.1-1.7-3.8-3.8-3.8c0,0,0,0-0.1,0c-2.1,0-3.8,1.7-3.8,3.8
			C541.9,126.4,543.6,128.1,545.7,128.1C545.7,128.1,545.7,128.1,545.7,128.1L545.7,128.1"/>
		<path class="st3" d="M562.9,112.1c2.2,0,3.9-1.7,3.9-3.9c0,0,0,0,0,0c0-2.1-1.7-3.8-3.8-3.8c0,0,0,0-0.1,0c-2.1,0-3.9,1.7-3.9,3.8
			C559.1,110.4,560.8,112.1,562.9,112.1L562.9,112.1"/>
		<path class="st3" d="M580.1,112.1c2.2,0,3.9-1.7,3.9-3.9c0,0,0,0,0,0c0-2.1-1.7-3.8-3.8-3.8c0,0,0,0-0.1,0c-2.1,0-3.9,1.7-3.9,3.8
			C576.3,110.4,578,112.1,580.1,112.1L580.1,112.1"/>
		<path class="st3" d="M562.9,95.8c2.2,0,3.9-1.7,3.9-3.9c0,0,0,0,0,0c0-2.1-1.7-3.8-3.8-3.8c0,0,0,0-0.1,0c-2.1,0-3.9,1.7-3.9,3.8
			C559.1,94,560.8,95.7,562.9,95.8L562.9,95.8"/>
		<path class="st3" d="M562.5,69.4c2.2,0,3.9-1.7,3.9-3.9c0,0,0,0,0,0c0-2.1-1.7-3.8-3.8-3.8c0,0,0,0-0.1,0c-2.1,0-3.9,1.7-3.9,3.8
			C558.7,67.6,560.4,69.3,562.5,69.4L562.5,69.4"/>
		<path class="st3" d="M580.9,70.2c2.2,0,3.9-1.7,3.9-3.9c0,0,0,0,0,0c0-2.1-1.7-3.8-3.8-3.8c0,0,0,0-0.1,0c-2.1,0-3.9,1.7-3.9,3.8
			C577.1,68.4,578.8,70.1,580.9,70.2L580.9,70.2"/>
		<path class="st3" d="M532.6,168.7c2.3,0,4.1-1.8,4.1-4.1c0-2.3-1.8-4.1-4.1-4.1c-2.3,0-4.1,1.8-4.1,4.1l0,0
			C528.6,166.8,530.4,168.6,532.6,168.7"/>
		<path class="st3" d="M440.8,213.2c2.3,0,4.1-1.8,4.1-4.1c0-2.3-1.8-4.1-4.1-4.1s-4.1,1.8-4.1,4.1l0,0
			C436.7,211.3,438.6,213.2,440.8,213.2"/>
		<path class="st3" d="M472.1,199.3c2.3,0,4.1-1.8,4.1-4.1c0-2.3-1.8-4.1-4.1-4.1s-4.1,1.8-4.1,4.1l0,0
			C468,197.4,469.9,199.3,472.1,199.3"/>
		<path class="st3" d="M534.1,184.2c2.3,0,4.1-1.8,4.1-4.1c0-2.3-1.8-4.1-4.1-4.1c-2.3,0-4.1,1.8-4.1,4.1l0,0l0,0
			C530,182.4,531.8,184.2,534.1,184.2"/>
		<path class="st3" d="M550,183.3c2.3,0,4.1-1.8,4.1-4.1c0-2.3-1.8-4.1-4.1-4.1c-2.3,0-4.1,1.8-4.1,4.1l0,0
			C545.9,181.4,547.7,183.3,550,183.3C549.9,183.3,550,183.3,550,183.3"/>
		<path class="st3" d="M566,199.3c2.3,0,4.1-1.8,4.1-4.1c0-2.3-1.8-4.1-4.1-4.1c-2.3,0-4.1,1.8-4.1,4.1l0,0
			C561.9,197.5,563.7,199.3,566,199.3"/>
		<path class="st3" d="M565.3,215.6c2.3,0,4.1-1.8,4.1-4.1c0-2.3-1.8-4.1-4.1-4.1c-2.3,0-4.1,1.8-4.1,4.1l0,0
			C561.2,213.7,563,215.6,565.3,215.6C565.2,215.6,565.3,215.6,565.3,215.6"/>
		<path class="st3" d="M502.4,229.9c2.3,0,4.1-1.8,4.1-4.1c0-2.3-1.8-4.1-4.1-4.1s-4.1,1.8-4.1,4.1l0,0
			C498.3,228.1,500.1,229.9,502.4,229.9"/>
		<path class="st3" d="M502.7,276.5c2.3,0,4.1-1.8,4.1-4.1c0-2.3-1.8-4.1-4.1-4.1s-4.1,1.8-4.1,4.1l0,0l0,0
			C498.6,274.6,500.4,276.5,502.7,276.5C502.6,276.5,502.7,276.5,502.7,276.5"/>
		<path class="st3" d="M471.8,246.2c2.3,0,4.1-1.8,4.1-4.1c0-2.3-1.8-4.1-4.1-4.1s-4.1,1.8-4.1,4.1l0,0l0,0
			C467.7,244.4,469.5,246.2,471.8,246.2"/>
		<path class="st3" d="M409.7,229.9c2.3,0,4.1-1.8,4.1-4.1c0-2.3-1.8-4.1-4.1-4.1c-2.3,0-4.1,1.8-4.1,4.1l0,0
			C405.6,228,407.4,229.9,409.7,229.9C409.6,229.9,409.7,229.9,409.7,229.9"/>
		<path class="st3" d="M409.7,245.1c2.2,0,4-1.8,4-4c0,0,0-0.1,0-0.1c0-2.3-1.8-4.1-4.1-4.1c-2.3,0-4.1,1.9-4,4.1
			C405.6,243.3,407.4,245.1,409.7,245.1"/>
		<path class="st3" d="M425,245.1c2.3,0,4.1-1.8,4.1-4.1c0-2.3-1.8-4.1-4.1-4.1s-4.1,1.8-4.1,4.1l0,0
			C420.9,243.3,422.7,245.1,425,245.1C424.9,245.1,425,245.1,425,245.1"/>
		<path class="st3" d="M440.8,260.5c2.3,0,4.1-1.8,4.1-4.1c0-2.3-1.8-4.1-4.1-4.1c-2.2,0-4.1,1.8-4.1,4c0,0,0,0.1,0,0.1l0,0
			C436.7,258.6,438.6,260.5,440.8,260.5"/>
		<path class="st3" d="M440,276.5c2.3,0,4.1-1.8,4.1-4.1c0-2.3-1.8-4.1-4.1-4.1s-4.1,1.8-4.1,4.1l0,0l0,0
			C435.9,274.6,437.7,276.5,440,276.5C439.9,276.5,440,276.5,440,276.5"/>
		<path class="st3" d="M456.8,276.5c2.3,0,4.1-1.8,4.1-4.1c0-2.3-1.8-4.1-4.1-4.1s-4.1,1.8-4.1,4.1l0,0l0,0
			C452.7,274.6,454.6,276.5,456.8,276.5"/>
		<path class="st3" d="M472.1,291.8c2.3,0,4.1-1.8,4.1-4.1c0-2.3-1.8-4.1-4.1-4.1s-4.1,1.8-4.1,4.1l0,0
			C468.1,289.9,469.9,291.7,472.1,291.8"/>
		<path class="st3" d="M470.7,307.9c2.3,0,4.1-1.8,4.1-4.1c0-2.3-1.8-4.1-4.1-4.1s-4.1,1.8-4.1,4.1l0,0
			C466.6,306,468.4,307.9,470.7,307.9C470.6,307.9,470.7,307.9,470.7,307.9"/>
		<path class="st3" d="M487.4,308.5c2.3,0,4.1-1.8,4.1-4.1c0-2.3-1.8-4.1-4.1-4.1s-4.1,1.8-4.1,4.1l0,0
			C483.3,306.7,485.1,308.5,487.4,308.5"/>
		<path class="st3" d="M550,323c2.3,0,4.1-1.8,4.1-4.1c0-2.3-1.8-4.1-4.1-4.1c-2.3,0-4.1,1.8-4.1,4.1l0,0
			C545.9,321.1,547.7,323,550,323C549.9,323,550,323,550,323"/>
		<path class="st3" d="M501.8,339.7c2.3,0,4.1-1.8,4.1-4.1c0-2.3-1.8-4.1-4.1-4.1s-4.1,1.8-4.1,4.1l0,0
			C497.7,337.8,499.6,339.7,501.8,339.7"/>
		<path class="st3" d="M455.4,323c2.3,0,4.1-1.8,4.1-4.1c0-2.3-1.8-4.1-4.1-4.1s-4.1,1.8-4.1,4.1l0,0
			C451.3,321.2,453.1,323,455.4,323"/>
		<path class="st3" d="M440,323.8c2.3,0,4.1-1.8,4.1-4.1c0-2.3-1.8-4.1-4.1-4.1s-4.1,1.8-4.1,4.1l0,0l0,0
			C435.9,321.9,437.7,323.8,440,323.8C439.9,323.8,440,323.8,440,323.8"/>
		<path class="st3" d="M409.5,338.3c2.3,0,4.1-1.8,4.1-4.1c0-2.3-1.8-4.1-4.1-4.1c-2.3,0-4.1,1.8-4.1,4.1l0,0
			C405.4,336.4,407.3,338.3,409.5,338.3"/>
		<path class="st3" d="M424.1,338.3c2.3,0,4.1-1.8,4.1-4.1c0-2.3-1.8-4.1-4.1-4.1s-4.1,1.8-4.1,4.1l0,0
			C420,336.5,421.8,338.3,424.1,338.3"/>
		<path class="st3" d="M566.5,358.3c2.2,0,4-1.8,4-4c0,0,0-0.1,0-0.1c-0.1-2.2-1.9-4-4.1-4c-2.2,0-4,1.9-4,4.1
			C562.4,356.5,564.3,358.3,566.5,358.3"/>
		<path class="st3" d="M534.7,373.8c2.3,0,4.1-1.8,4.1-4.1s-1.8-4.1-4.1-4.1c-2.3,0-4.1,1.8-4.1,4.1c0,0,0,0,0,0l0,0
			C530.6,371.9,532.5,373.8,534.7,373.8"/>
		<path class="st3" d="M551.3,373.8c2.3,0,4.1-1.8,4.1-4.1s-1.8-4.1-4.1-4.1c-2.3,0-4.1,1.8-4.1,4.1c0,0,0,0,0,0l0,0
			C547.2,372,549,373.8,551.3,373.8"/>
		<path class="st3" d="M440.9,357.6c2.3,0,4.1-1.8,4.1-4.1c0-2.3-1.8-4.1-4.1-4.1c-2.3,0-4.1,1.8-4.1,4.1l0,0
			C436.8,355.7,438.7,357.6,440.9,357.6"/>
		<path class="st3" d="M440.5,373.3c2.3,0,4.1-1.8,4.1-4.1c0-2.3-1.8-4.1-4.1-4.1c-2.3,0-4.1,1.8-4.1,4.1l0,0
			C436.4,371.4,438.3,373.3,440.5,373.3"/>
		<path class="st3" d="M456.3,372.8c2.3,0,4.1-1.8,4.1-4.1c0-2.3-1.8-4.1-4.1-4.1c-2.3,0-4.1,1.8-4.1,4.1l0,0
			C452.2,370.9,454,372.8,456.3,372.8C456.2,372.8,456.3,372.8,456.3,372.8"/>
		<path class="st3" d="M471.7,388.8c2.3,0,4.1-1.8,4.1-4.1c0-2.3-1.8-4.1-4.1-4.1c-2.3,0-4.1,1.8-4.1,4.1l0,0
			C467.6,386.9,469.5,388.8,471.7,388.8"/>
		<path class="st3" d="M566.5,405c2.3,0,4.1-1.8,4.1-4.1s-1.8-4.1-4.1-4.1c-2.3,0-4.1,1.8-4.1,4.1c0,0,0,0,0,0l0,0
			C562.4,403.1,564.3,405,566.5,405"/>
		<path class="st3" d="M534.5,420.4c2.3,0,4.1-1.8,4.1-4.1s-1.8-4.1-4.1-4.1c-2.3,0-4.1,1.8-4.1,4.1c0,0,0,0,0,0l0,0
			C530.4,418.5,532.2,420.4,534.5,420.4C534.4,420.4,534.5,420.4,534.5,420.4"/>
		<path class="st3" d="M550.4,420.4c2.3,0,4.1-1.8,4.1-4.1s-1.8-4.1-4.1-4.1c-2.3,0-4.1,1.8-4.1,4.1c0,0,0,0,0,0l0,0
			C546.3,418.5,548.1,420.4,550.4,420.4C550.3,420.4,550.4,420.4,550.4,420.4"/>
		<path class="st3" d="M534.3,435.8c2.3,0,4.1-1.8,4.1-4.1s-1.8-4.1-4.1-4.1c-2.3,0-4.1,1.8-4.1,4.1c0,0,0,0,0,0l0,0
			C530.3,433.9,532.1,435.7,534.3,435.8"/>
		<path class="st3" d="M535,451.1c2.3,0,4.1-1.8,4.1-4.1s-1.8-4.1-4.1-4.1c-2.3,0-4.1,1.8-4.1,4.1c0,0,0,0,0,0l0,0
			C530.9,449.3,532.7,451.1,535,451.1C534.9,451.1,535,451.1,535,451.1"/>
		<path class="st3" d="M550.5,451.7c2.3,0,4.1-1.8,4.1-4.1s-1.8-4.1-4.1-4.1c-2.3,0-4.1,1.8-4.1,4.1c0,0,0,0,0,0l0,0
			C546.4,449.8,548.3,451.7,550.5,451.7"/>
		<path class="st3" d="M439.3,435.8c2.3,0,4.1-1.8,4.1-4.1c0-2.3-1.8-4.1-4.1-4.1c-2.3,0-4.1,1.8-4.1,4.1l0,0
			C435.2,433.9,437.1,435.8,439.3,435.8"/>
		<path class="st3" d="M440.1,450.4c2.3,0,4.1-1.8,4.1-4.1c0-2.3-1.8-4.1-4.1-4.1c-2.3,0-4.1,1.8-4.1,4.1l0,0
			C436,448.5,437.8,450.4,440.1,450.4C440,450.4,440.1,450.4,440.1,450.4"/>
		<path class="st3" d="M455.4,451.1c2.3,0,4.1-1.8,4.1-4.1c0-2.3-1.8-4.1-4.1-4.1c-2.3,0-4.1,1.8-4.1,4.1l0,0
			C451.3,449.3,453.1,451.1,455.4,451.1C455.3,451.1,455.4,451.1,455.4,451.1"/>
		<path class="st3" d="M463.8,481.8c2.3,0,4.1-1.8,4.1-4.1c0-2.3-1.8-4.1-4.1-4.1c-2.3,0-4.1,1.8-4.1,4.1l0,0
			C459.7,479.9,461.5,481.8,463.8,481.8C463.7,481.8,463.8,481.8,463.8,481.8"/>
		<path class="st3" d="M478.9,481.6c2.3,0,4.1-1.8,4.1-4.1c0-2.3-1.8-4.1-4.1-4.1c-2.3,0-4.1,1.8-4.1,4.1l0,0
			C474.8,479.7,476.6,481.6,478.9,481.6C478.8,481.6,478.9,481.6,478.9,481.6"/>
		<path class="st3" d="M557.2,482.6c2.3,0,4.1-1.8,4.1-4.1s-1.8-4.1-4.1-4.1c-2.3,0-4.1,1.8-4.1,4.1c0,0,0,0,0,0l0,0
			C553.2,480.7,555,482.5,557.2,482.6"/>
		<path class="st3" d="M571.9,482.6c2.3,0,4.1-1.8,4.1-4.1s-1.8-4.1-4.1-4.1c-2.3,0-4.1,1.8-4.1,4.1c0,0,0,0,0,0l0,0
			C567.8,480.8,569.6,482.6,571.9,482.6"/>
		<path class="st3" d="M525.1,497.9c2.3,0,4.1-1.8,4.1-4.1s-1.8-4.1-4.1-4.1c-2.3,0-4.1,1.8-4.1,4.1c0,0,0,0,0,0l0,0
			C521,496,522.8,497.9,525.1,497.9C525,497.9,525.1,497.9,525.1,497.9"/>
		<path class="st3" d="M541,497.9c2.3,0,4.1-1.8,4.1-4.1s-1.8-4.1-4.1-4.1c-2.3,0-4.1,1.8-4.1,4.1c0,0,0,0,0,0l0,0
			C536.9,496,538.8,497.9,541,497.9"/>
		<path class="st3" d="M400.1,497.7c2.3,0,4.1-1.8,4.1-4.1c0-2.3-1.8-4.1-4.1-4.1c-2.3,0-4.1,1.8-4.1,4.1l0,0
			C396,495.9,397.8,497.7,400.1,497.7"/>
		<path class="st3" d="M462.6,512.5c2.3,0,4.1-1.8,4.1-4.1c0-2.3-1.8-4.1-4.1-4.1c-2.3,0-4.1,1.8-4.1,4.1
			C458.5,510.6,460.3,512.5,462.6,512.5C462.5,512.5,462.6,512.5,462.6,512.5L462.6,512.5"/>
		<path class="st3" d="M462.9,525.9c2.3,0,4.1-1.8,4.1-4.1c0-2.3-1.8-4.1-4.1-4.1c-2.3,0-4.1,1.8-4.1,4.1l0,0
			C458.8,524.1,460.6,525.9,462.9,525.9L462.9,525.9"/>
		<path class="st3" d="M430.8,546c2.3,0,4.1-1.8,4.1-4.1c0-2.3-1.8-4.1-4.1-4.1c-2.3,0-4.1,1.8-4.1,4.1l0,0
			C426.7,544.1,428.5,546,430.8,546C430.7,546,430.8,546,430.8,546L430.8,546"/>
		<path class="st3" d="M447,545.9c2.3,0,4.1-1.8,4.1-4.1c0-2.3-1.8-4.1-4.1-4.1c-2.3,0-4.1,1.8-4.1,4.1l0,0
			C442.9,544,444.7,545.9,447,545.9C446.9,545.9,447,545.9,447,545.9L447,545.9"/>
		<path class="st3" d="M477.9,527.5c2.3,0,4.1-1.8,4.1-4.1c0-2.3-1.8-4.1-4.1-4.1c-2.3,0-4.1,1.8-4.1,4.1l0,0
			C473.8,525.7,475.6,527.5,477.9,527.5L477.9,527.5"/>
		<path class="st3" d="M558,512.5c2.3,0,4.1-1.8,4.1-4.1s-1.8-4.1-4.1-4.1c-2.3,0-4.1,1.8-4.1,4.1c0,0,0,0,0,0
			C553.9,510.6,555.7,512.5,558,512.5C557.9,512.5,558,512.5,558,512.5L558,512.5"/>
		<path class="st3" d="M556.4,527.2c2.3,0,4.1-1.8,4.1-4.1s-1.8-4.1-4.1-4.1c-2.3,0-4.1,1.8-4.1,4.1v0
			C552.3,525.3,554.1,527.2,556.4,527.2C556.3,527.2,556.4,527.2,556.4,527.2L556.4,527.2"/>
		<path class="st3" d="M573.3,526.6c2.3,0,4.1-1.8,4.1-4.1s-1.8-4.1-4.1-4.1c-2.3,0-4.1,1.8-4.1,4.1v0
			C569.2,524.8,571,526.6,573.3,526.6L573.3,526.6"/>
		<path class="st3" d="M525.1,545.3c2.3,0,4.1-1.8,4.1-4.1s-1.8-4.1-4.1-4.1c-2.3,0-4.1,1.8-4.1,4.1v0
			C521,543.4,522.8,545.3,525.1,545.3C525,545.3,525.1,545.3,525.1,545.3L525.1,545.3"/>
		<path class="st3" d="M541.2,545.2c2.3,0,4.1-1.8,4.1-4.1s-1.8-4.1-4.1-4.1c-2.3,0-4.1,1.8-4.1,4.1v0
			C537.1,543.3,538.9,545.2,541.2,545.2C541.1,545.2,541.2,545.2,541.2,545.2L541.2,545.2"/>
		<path class="st3" d="M296.9,14.8c2.2,0,3.9-1.7,3.9-3.9c0-2.1-1.8-3.8-3.9-3.8c-2.1,0-3.8,1.8-3.8,3.9
			C293.1,13.1,294.8,14.8,296.9,14.8L296.9,14.8"/>
		<path class="st3" d="M297.4,50.3c2.1,0,3.9-1.7,3.9-3.8c-0.1-2.1-1.8-3.8-3.9-3.9c-2.1,0-3.8,1.7-3.8,3.8c0,0,0,0,0,0.1l0,0
			C293.6,48.6,295.3,50.3,297.4,50.3"/>
		<path class="st3" d="M296.9,65c2.1,0,3.9-1.7,3.9-3.8c0-2.1-1.7-3.8-3.8-3.8c0,0,0,0-0.1,0c-2-0.1-3.7,1.5-3.8,3.6
			c0,0.1,0,0.2,0,0.2l0,0C293.1,63.3,294.8,65,296.9,65"/>
		<path class="st3" d="M314.9,65.7c2.1,0,3.9-1.7,3.9-3.8c-0.1-2.1-1.8-3.8-3.9-3.9c-2.1,0-3.9,1.7-3.9,3.8l0,0
			C311.1,63.9,312.8,65.6,314.9,65.7"/>
		<path class="st3" d="M356.9,15.1c2.2,0,4-1.8,4-4s-1.8-4-4-4s-4,1.8-4,4S354.7,15.1,356.9,15.1"/>
		<path class="st3" d="M327.4,80.5c2.2,0,4-1.8,4-4s-1.8-4-4-4s-4,1.8-4,4S325.2,80.5,327.4,80.5"/>
		<path class="st3" d="M360.7,80.6c2.2,0,4-1.8,4-4s-1.8-4-4-4s-4,1.8-4,4S358.5,80.6,360.7,80.6"/>
		<path class="st3" d="M376.3,80.4c2.2,0,4-1.8,4-4s-1.8-4-4-4s-4,1.8-4,4S374.1,80.4,376.3,80.4"/>
		<path class="st3" d="M392,95.1c2.2,0,4-1.8,4-4s-1.8-4-4-4s-4,1.8-4,4S389.8,95.1,392,95.1"/>
		<path class="st3" d="M362,111.3c2.2,0,4-1.8,4-4s-1.8-4-4-4s-4,1.8-4,4S359.8,111.3,362,111.3"/>
		<path class="st3" d="M342.6,126.5c2.2,0,4-1.8,4-4s-1.8-4-4-4s-4,1.8-4,4S340.4,126.5,342.6,126.5"/>
		<path class="st3" d="M361,126.5c2.2,0,4-1.8,4-4s-1.8-4-4-4s-4,1.8-4,4S358.8,126.5,361,126.5"/>
		<path class="st3" d="M379.1,126.5c2.2,0,4-1.8,4-4s-1.8-4-4-4s-4,1.8-4,4S376.9,126.5,379.1,126.5"/>
		<path class="st3" d="M326.9,161.2c2.3,0,4.1-1.8,4.1-4.1c0-2.3-1.8-4.1-4.1-4.1s-4.1,1.8-4.1,4.1l0,0l0,0
			C322.8,159.4,324.6,161.2,326.9,161.2"/>
		<path class="st3" d="M358.8,160.5c2.3,0,4.1-1.8,4.1-4.1c0-2.3-1.8-4.1-4.1-4.1c-2.3,0-4.1,1.8-4.1,4.1l0,0
			C354.7,158.7,356.5,160.5,358.8,160.5"/>
		<path class="st3" d="M357.8,176.4c2.3,0,4.1-1.8,4.1-4.1c0-2.3-1.8-4.1-4.1-4.1c-2.3,0-4.1,1.8-4.1,4.1l0,0
			C353.7,174.5,355.6,176.4,357.8,176.4"/>
		<path class="st3" d="M373.8,175.8c2.3,0,4.1-1.8,4.1-4.1c0-2.3-1.8-4.1-4.1-4.1c-2.3,0-4.1,1.8-4.1,4.1l0,0
			C369.7,173.9,371.6,175.8,373.8,175.8"/>
		<path class="st3" d="M328.6,207.1c2.3,0,4.1-1.8,4.1-4.1c0-2.3-1.8-4.1-4.1-4.1s-4.1,1.8-4.1,4.1l0,0l0,0
			C324.5,205.3,326.3,207.1,328.6,207.1"/>
		<path class="st3" d="M359.9,207.9c2.3,0,4.1-1.8,4.1-4.1c0-2.3-1.8-4.1-4.1-4.1c-2.3,0-4.1,1.8-4.1,4.1l0,0
			C355.8,206,357.6,207.9,359.9,207.9C359.8,207.9,359.9,207.9,359.9,207.9"/>
		<path class="st3" d="M391.1,191.8c2.3,0,4.1-1.8,4.1-4.1c0-2.3-1.8-4.1-4.1-4.1c-2.3,0-4.1,1.8-4.1,4.1l0,0
			C387,189.9,388.8,191.8,391.1,191.8C391,191.8,391.1,191.8,391.1,191.8"/>
		<path class="st3" d="M296.7,239.1c2.2,0,4-1.9,4-4.1c0-2.2-1.9-4-4.1-4c-2.2,0-4,1.8-4,4C292.6,237.3,294.4,239.1,296.7,239.1"/>
		<path class="st3" d="M327.9,254.4c2.3,0,4.1-1.8,4.1-4.1c0-2.3-1.8-4.1-4.1-4.1s-4.1,1.8-4.1,4.1l0,0
			C323.8,252.5,325.6,254.4,327.9,254.4C327.8,254.4,327.9,254.4,327.9,254.4"/>
		<path class="st3" d="M390.5,238.2c2.3,0,4.1-1.8,4.1-4.1c0-2.3-1.8-4.1-4.1-4.1c-2.3,0-4.1,1.8-4.1,4.1l0,0
			C386.4,236.3,388.2,238.2,390.5,238.2C390.4,238.2,390.5,238.2,390.5,238.2"/>
		<path class="st3" d="M391.1,253.7c2.3,0,4.1-1.8,4.1-4.1c0-2.3-1.8-4.1-4.1-4.1c-2.3,0-4.1,1.8-4.1,4.1l0,0
			C387,251.9,388.8,253.7,391.1,253.7"/>
		<path class="st3" d="M296.6,284.2c2.3,0,4.1-1.8,4.1-4.1c0-2.3-1.8-4.1-4.1-4.1s-4.1,1.8-4.1,4.1l0,0
			C292.5,282.3,294.3,284.2,296.6,284.2C296.5,284.2,296.6,284.2,296.6,284.2"/>
		<path class="st3" d="M327.9,300.1c2.2,0,4-1.9,4-4.1c0-2.2-1.9-4-4.1-4c-2.2,0-4,1.8-4,4C323.8,298.3,325.6,300.1,327.9,300.1
			C327.8,300.1,327.9,300.1,327.9,300.1"/>
		<path class="st3" d="M359.3,300.7c2.3,0,4.1-1.8,4.1-4.1c0-2.3-1.8-4.1-4.1-4.1c-2.3,0-4.1,1.8-4.1,4.1l0,0
			C355.2,298.8,357,300.7,359.3,300.7C359.2,300.7,359.3,300.7,359.3,300.7"/>
		<path class="st3" d="M327.9,315.5c2.3,0,4.1-1.8,4.1-4.1c0-2.3-1.8-4.1-4.1-4.1s-4.1,1.8-4.1,4.1l0,0
			C323.8,313.6,325.6,315.5,327.9,315.5C327.8,315.5,327.9,315.5,327.9,315.5"/>
		<path class="st3" d="M343.2,315.5c2.3,0,4.1-1.8,4.1-4.1c0-2.3-1.8-4.1-4.1-4.1s-4.1,1.8-4.1,4.1l0,0
			C339.1,313.6,340.9,315.5,343.2,315.5C343.1,315.5,343.2,315.5,343.2,315.5"/>
		<path class="st3" d="M359.9,315.6c2.3,0,4.1-1.8,4.1-4.1c0-2.3-1.8-4.1-4.1-4.1c-2.3,0-4.1,1.8-4.1,4.1l0,0
			C355.8,313.7,357.6,315.6,359.9,315.6C359.8,315.6,359.9,315.6,359.9,315.6"/>
		<path class="st3" d="M374.4,315.5c2.2,0,4.1-1.8,4.1-4c0-2.2-1.8-4.1-4-4.1c-2.2,0-4.1,1.8-4.1,4v0.1
			C370.4,313.7,372.2,315.5,374.4,315.5"/>
		<path class="st3" d="M390.5,347.4c2.3,0,4.1-1.8,4.1-4.1c0-2.3-1.8-4.1-4.1-4.1c-2.3,0-4.1,1.8-4.1,4.1l0,0
			C386.4,345.5,388.2,347.4,390.5,347.4C390.4,347.4,390.5,347.4,390.5,347.4"/>
		<path class="st3" d="M374.4,362.6c2.2,0,4.1-1.8,4.1-4c0-2.2-1.8-4.1-4-4.1c-2.2,0-4.1,1.8-4.1,4v0.1
			C370.5,360.8,372.2,362.5,374.4,362.6"/>
		<path class="st3" d="M358.3,362.8c2.3,0,4.1-1.8,4.1-4.1c0-2.3-1.8-4.1-4.1-4.1c-2.3,0-4.1,1.8-4.1,4.1l0,0
			C354.2,360.9,356.1,362.8,358.3,362.8"/>
		<path class="st3" d="M296.5,346.1c2.3,0,4.1-1.8,4.1-4.1c0-2.3-1.8-4.1-4.1-4.1c-2.3,0-4.1,1.8-4.1,4.1l0,0
			C292.4,344.3,294.2,346.1,296.5,346.1C296.4,346.1,296.5,346.1,296.5,346.1"/>
		<path class="st3" d="M311.9,347.4c2.3,0,4.1-1.8,4.1-4.1s-1.8-4.1-4.1-4.1c-2.2,0-4.1,1.8-4.1,4c0,0,0,0.1,0,0.1l0,0
			C307.8,345.5,309.6,347.4,311.9,347.4C311.8,347.4,311.9,347.4,311.9,347.4"/>
		<path class="st3" d="M329.4,396.7c2.3,0,4.1-1.8,4.1-4.1c0-2.3-1.8-4.1-4.1-4.1c-2.3,0-4.1,1.8-4.1,4.1l0,0
			C325.3,394.8,327.1,396.7,329.4,396.7C329.3,396.7,329.4,396.7,329.4,396.7"/>
		<path class="st3" d="M360.8,396.7c2.3,0,4.1-1.8,4.1-4.1c0-2.3-1.8-4.1-4.1-4.1c-2.3,0-4.1,1.8-4.1,4.1l0,0
			C356.7,394.9,358.5,396.7,360.8,396.7"/>
		<path class="st3" d="M360,428.2c2.3,0,4.1-1.8,4.1-4.1c0-2.3-1.8-4.1-4.1-4.1c-2.3,0-4.1,1.8-4.1,4.1l0,0
			C355.9,426.4,357.7,428.2,360,428.2"/>
		<path class="st3" d="M297.8,428.2c2.3,0,4.1-1.8,4.1-4.1c0-2.3-1.8-4.1-4.1-4.1c-2.3,0-4.1,1.8-4.1,4.1l0,0
			C293.8,426.3,295.6,428.1,297.8,428.2"/>
		<path class="st3" d="M360.8,474.2c2.3,0,4.1-1.8,4.1-4.1c0-2.3-1.8-4.1-4.1-4.1c-2.3,0-4.1,1.8-4.1,4.1l0,0
			C356.7,472.4,358.5,474.2,360.8,474.2"/>
		<path class="st3" d="M319.4,489.6c2.3,0,4.1-1.8,4.1-4.1c0-2.3-1.8-4.1-4.1-4.1c-2.3,0-4.1,1.8-4.1,4.1l0,0
			C315.3,487.8,317.1,489.6,319.4,489.6"/>
		<path class="st3" d="M297.8,458.1c2.2,0,4.1-1.8,4.1-4c0,0,0-0.1,0-0.1c0-2.2-1.8-4-4-4c0,0-0.1,0-0.1,0c-2.3,0-4.1,1.8-4.1,4.1
			C293.8,456.3,295.6,458.1,297.8,458.1"/>
		<path class="st3" d="M297.2,474.2c2.3,0,4.1-1.8,4.1-4.1c0-2.3-1.8-4.1-4.1-4.1c-2.3,0-4.1,1.8-4.1,4.1l0,0
			C293.1,472.4,294.9,474.2,297.2,474.2"/>
		<path class="st3" d="M313.3,474.2c2.3,0,4.1-1.8,4.1-4.1c0-2.3-1.8-4.1-4.1-4.1c-2.3,0-4.1,1.8-4.1,4.1l0,0
			C309.2,472.3,311,474.2,313.3,474.2C313.2,474.2,313.3,474.2,313.3,474.2"/>
		<path class="st3" d="M320.1,521c2.3,0,4.1-1.8,4.1-4.1c0-2.3-1.8-4.1-4.1-4.1c-2.3,0-4.1,1.8-4.1,4.1l0,0
			C316,519.2,317.8,521,320.1,521L320.1,521"/>
		<path class="st3" d="M319.5,534.3c2.3,0,4.1-1.8,4.1-4.1c0-2.3-1.8-4.1-4.1-4.1c-2.3,0-4.1,1.8-4.1,4.1
			C315.4,532.4,317.2,534.3,319.5,534.3C319.4,534.3,319.5,534.3,319.5,534.3L319.5,534.3"/>
		<path class="st3" d="M336.2,533.6c2.3,0,4.1-1.8,4.1-4.1c0-2.3-1.8-4.1-4.1-4.1c-2.3,0-4.1,1.8-4.1,4.1l0,0
			C332.1,531.7,333.9,533.6,336.2,533.6C336.1,533.6,336.2,533.6,336.2,533.6L336.2,533.6"/>
		<path class="st3" d="M351.5,490.3c2.3,0,4.1-1.8,4.1-4.1c0-2.3-1.8-4.1-4.1-4.1c-2.3,0-4.1,1.8-4.1,4.1l0,0
			C347.4,488.4,349.3,490.3,351.5,490.3"/>
		<path class="st3" d="M366,490.3c2.3,0,4.1-1.8,4.1-4.1c0-2.3-1.8-4.1-4.1-4.1c-2.3,0-4.1,1.8-4.1,4.1l0,0
			C361.9,488.4,363.8,490.3,366,490.3"/>
		<path class="st3" d="M382.2,505.6c2.3,0,4.1-1.8,4.1-4.1c0-2.3-1.8-4.1-4.1-4.1c-2.3,0-4.1,1.8-4.1,4.1
			C378.1,503.8,379.9,505.6,382.2,505.6L382.2,505.6"/>
	</g>
</g>
<rect id="SVGID-2" x="584.8" class="st0" width="292.2" height="546"/>
<g>
	<defs>
		<rect id="SVGID_5_" x="584.8" width="292.2" height="546"/>
	</defs>
	<clipPath id="SVGID_6_">
		<use xlink:href="#SVGID_5_"  style="overflow:visible;"/>
	</clipPath>
	<g class="st4">
		<rect x="587" y="6.9" class="st0" width="287.8" height="537.7"/>
	</g>
</g>
<rect id="SVGID-3" x="0.1" class="st0" width="292.2" height="546"/>
<g>
	<defs>
		<rect id="SVGID_7_" x="0.1" width="292.2" height="546"/>
	</defs>
	<clipPath id="SVGID_8_">
		<use xlink:href="#SVGID_7_"  style="overflow:visible;"/>
	</clipPath>
	<g class="st5">
		<rect x="2.3" y="6.9" class="st0" width="287.8" height="537.7"/>
	</g>
</g>
<g>
	<defs>
		<rect id="SVGID_9_" width="292.4" height="546"/>
	</defs>
	<clipPath id="SVGID_10_">
		<use xlink:href="#SVGID_9_"  style="overflow:visible;"/>
	</clipPath>
	<g class="st6">
		<path class="st3" d="M147.2,128.1c2.1-0.1,3.8-1.8,3.7-3.9c-0.1-2.1-1.8-3.8-3.9-3.7c-2.1,0.1-3.7,1.7-3.7,3.8
			C143.3,126.4,145.1,128.1,147.2,128.1L147.2,128.1"/>
		<path class="st3" d="M117.8,84.2c2.1,0,3.8-1.7,3.8-3.8s-1.7-3.8-3.8-3.8c-2.1,0-3.8,1.7-3.8,3.8S115.7,84.2,117.8,84.2
			L117.8,84.2"/>
		<path class="st3" d="M117.4,172.5c2.1,0,3.9-1.7,3.9-3.8c0-2.1-1.7-3.9-3.8-3.9c-2.1,0-3.9,1.7-3.9,3.8
			C113.6,170.7,115.3,172.5,117.4,172.5L117.4,172.5"/>
		<path class="st3" d="M147.1,158c2.1,0,3.8-1.7,3.8-3.8c0,0,0,0,0-0.1c0-2.1-1.6-3.8-3.7-3.8c-0.1,0-0.1,0-0.2,0
			c-2.1,0-3.8,1.7-3.8,3.8l0,0C143.3,156.2,145,157.9,147.1,158L147.1,158"/>
		<path class="st3" d="M162.1,127.8c2.1,0,3.8-1.7,3.8-3.8c0,0,0,0,0-0.1c0-2.1-1.7-3.8-3.7-3.8c-0.1,0-0.1,0-0.2,0
			c-2.1,0-3.8,1.7-3.8,3.8v0C158.3,126.1,160,127.8,162.1,127.8L162.1,127.8"/>
		<path class="st3" d="M177.1,143.5c2.1,0,3.8-1.7,3.8-3.8c0,0,0,0,0-0.1c0-2.1-1.6-3.8-3.7-3.8c-0.1,0-0.1,0-0.2,0
			c-2.1,0-3.8,1.7-3.8,3.8l0,0C173.3,141.7,175,143.4,177.1,143.5L177.1,143.5"/>
		<path class="st3" d="M163.6,40.7c2.1,0,3.8-1.7,3.8-3.8c0,0,0,0,0-0.1c0-2.1-1.6-3.8-3.7-3.8c-0.1,0-0.1,0-0.2,0
			c-2.1,0-3.8,1.7-3.8,3.8c0,0,0,0,0,0C159.7,39,161.4,40.7,163.6,40.7L163.6,40.7"/>
		<path class="st3" d="M176.8,69.2c2.1,0,3.8-1.7,3.8-3.8c0,0,0,0,0-0.1c0-2.1-1.6-3.8-3.7-3.8c-0.1,0-0.1,0-0.2,0
			c-2.1,0-3.8,1.7-3.8,3.8l0,0C173,67.4,174.7,69.1,176.8,69.2L176.8,69.2"/>
		<path class="st3" d="M191.7,69.8c2.1,0,3.8-1.7,3.8-3.8c0,0,0,0,0-0.1c0-2.1-1.6-3.8-3.7-3.8c-0.1,0-0.1,0-0.2,0
			c-2.1,0-3.8,1.7-3.8,3.8l0,0C187.9,68,189.6,69.7,191.7,69.8L191.7,69.8"/>
		<path class="st3" d="M236.2,7.7c2.1,0,3.8-1.7,3.8-3.8c0,0,0,0,0-0.1c0-2.1-1.6-3.8-3.7-3.8c0,0-0.1,0-0.1,0
			c-2.1,0-3.8,1.7-3.8,3.8c0,0,0,0,0,0.1c0,2.1,1.6,3.8,3.7,3.8C236.1,7.7,236.2,7.7,236.2,7.7L236.2,7.7"/>
		<path class="st3" d="M250.8,7.8c2.1,0,3.8-1.7,3.8-3.8c0,0,0,0,0-0.1c0-2.1-1.7-3.8-3.7-3.8c-0.1,0-0.1,0-0.2,0
			c-2.1,0-3.8,1.7-3.8,3.8c0,0,0,0,0,0.1l0,0C246.9,6.1,248.6,7.8,250.8,7.8C250.8,7.8,250.8,7.8,250.8,7.8L250.8,7.8"/>
		<path class="st3" d="M235.7,27c2.1,0,3.8-1.7,3.8-3.8c0,0,0,0,0-0.1c0-2.1-1.8-3.8-3.9-3.8c-2.1,0-3.8,1.8-3.8,3.9
			C231.9,25.3,233.6,27,235.7,27L235.7,27"/>
		<path class="st3" d="M236.3,41.6c2.1,0,3.8-1.7,3.8-3.8c0,0,0,0,0-0.1c0-2.1-1.6-3.8-3.7-3.8c-0.1,0-0.1,0-0.2,0
			c-2.1,0-3.8,1.7-3.8,3.8c0,0,0,0,0,0C232.5,39.8,234.2,41.5,236.3,41.6L236.3,41.6"/>
		<path class="st3" d="M251.6,42.1c2.2,0,3.9-1.7,3.9-3.9c0-2.1-1.7-3.8-3.8-3.8c0,0,0,0-0.1,0c-2.1,0-3.9,1.7-3.9,3.9
			C247.8,40.4,249.5,42.1,251.6,42.1L251.6,42.1"/>
		<path class="st3" d="M236.7,79.4c2.1,0,3.8-1.7,3.8-3.8c0,0,0,0,0-0.1c0-2.1-1.6-3.8-3.7-3.8c-0.1,0-0.1,0-0.2,0
			c-2.1,0-3.8,1.7-3.8,3.8v0C232.8,77.7,234.5,79.4,236.7,79.4L236.7,79.4"/>
		<path class="st3" d="M253.3,79.4c2.2,0,3.9-1.7,3.9-3.9v0c0-2.1-1.7-3.8-3.8-3.8c0,0,0,0-0.1,0c-2.1,0-3.9,1.7-3.9,3.8
			C249.5,77.6,251.2,79.3,253.3,79.4L253.3,79.4"/>
		<path class="st3" d="M235.7,127.6c2.1,0,3.8-1.7,3.8-3.8c0,0,0,0,0-0.1c0-2.1-1.6-3.8-3.7-3.8c-0.1,0-0.1,0-0.2,0
			c-2.1,0-3.8,1.7-3.8,3.8v0C231.9,125.8,233.6,127.5,235.7,127.6L235.7,127.6"/>
		<path class="st3" d="M253.3,128.1c2.1,0,3.9-1.7,3.9-3.8c0-2.1-1.7-3.8-3.8-3.8c0,0,0,0-0.1,0c-2.1,0-3.8,1.7-3.8,3.8
			C249.5,126.4,251.2,128.1,253.3,128.1C253.3,128.1,253.3,128.1,253.3,128.1L253.3,128.1"/>
		<path class="st3" d="M270.5,112.1c2.2,0,3.9-1.7,3.9-3.9c0-2.1-1.7-3.8-3.8-3.8c0,0,0,0-0.1,0c-2.1,0-3.9,1.7-3.9,3.8
			C266.7,110.4,268.4,112.1,270.5,112.1L270.5,112.1"/>
		<path class="st3" d="M287.7,112.1c2.2,0,3.9-1.7,3.9-3.9c0-2.1-1.7-3.8-3.8-3.8c0,0,0,0-0.1,0c-2.1,0-3.9,1.7-3.9,3.8
			C283.9,110.4,285.6,112.1,287.7,112.1L287.7,112.1"/>
		<path class="st3" d="M270.5,95.8c2.2,0,3.9-1.7,3.9-3.9c0-2.1-1.7-3.8-3.8-3.8c0,0,0,0-0.1,0c-2.1,0-3.9,1.7-3.9,3.8
			C266.7,94,268.4,95.7,270.5,95.8L270.5,95.8"/>
		<path class="st3" d="M270.1,69.4c2.2,0,3.9-1.7,3.9-3.9c0-2.1-1.7-3.8-3.8-3.8c0,0,0,0-0.1,0c-2.1,0-3.9,1.7-3.9,3.8
			C266.3,67.6,268,69.3,270.1,69.4L270.1,69.4"/>
		<path class="st3" d="M288.5,70.2c2.2,0,3.9-1.7,3.9-3.9c0-2.1-1.7-3.8-3.8-3.8c0,0,0,0-0.1,0c-2.1,0-3.9,1.7-3.9,3.8
			C284.7,68.4,286.4,70.1,288.5,70.2L288.5,70.2"/>
		<path class="st3" d="M240.2,168.7c2.3,0,4.1-1.8,4.1-4.1c0-2.3-1.8-4.1-4.1-4.1c-2.3,0-4.1,1.8-4.1,4.1l0,0
			C236.2,166.8,238,168.6,240.2,168.7"/>
		<path class="st3" d="M148.4,213.2c2.3,0,4.1-1.8,4.1-4.1c0-2.3-1.8-4.1-4.1-4.1c-2.3,0-4.1,1.8-4.1,4.1l0,0
			C144.3,211.3,146.2,213.2,148.4,213.2"/>
		<path class="st3" d="M179.7,199.3c2.3,0,4.1-1.8,4.1-4.1c0-2.3-1.8-4.1-4.1-4.1c-2.3,0-4.1,1.8-4.1,4.1c0,0,0,0,0,0l0,0
			C175.6,197.4,177.5,199.3,179.7,199.3"/>
		<path class="st3" d="M241.7,184.2c2.3,0,4.1-1.8,4.1-4.1c0-2.3-1.8-4.1-4.1-4.1c-2.3,0-4.1,1.8-4.1,4.1l0,0
			C237.6,182.4,239.4,184.2,241.7,184.2"/>
		<path class="st3" d="M257.6,183.3c2.3,0,4.1-1.8,4.1-4.1c0-2.3-1.8-4.1-4.1-4.1c-2.3,0-4.1,1.8-4.1,4.1l0,0
			C253.5,181.4,255.3,183.3,257.6,183.3C257.5,183.3,257.6,183.3,257.6,183.3"/>
		<path class="st3" d="M273.6,199.3c2.3,0,4.1-1.8,4.1-4.1c0-2.3-1.8-4.1-4.1-4.1s-4.1,1.8-4.1,4.1l0,0
			C269.5,197.5,271.3,199.3,273.6,199.3"/>
		<path class="st3" d="M272.9,215.6c2.3,0,4.1-1.8,4.1-4.1c0-2.3-1.8-4.1-4.1-4.1s-4.1,1.8-4.1,4.1l0,0
			C268.8,213.7,270.6,215.6,272.9,215.6C272.8,215.6,272.9,215.6,272.9,215.6"/>
		<path class="st3" d="M210,229.9c2.3,0,4.1-1.8,4.1-4.1c0-2.3-1.8-4.1-4.1-4.1c-2.3,0-4.1,1.8-4.1,4.1l0,0
			C205.9,228.1,207.7,229.9,210,229.9"/>
		<path class="st3" d="M210.3,276.5c2.3,0,4.1-1.8,4.1-4.1c0-2.3-1.8-4.1-4.1-4.1c-2.3,0-4.1,1.8-4.1,4.1c0,0,0,0,0,0l0,0
			C206.2,274.6,208,276.5,210.3,276.5C210.2,276.5,210.3,276.5,210.3,276.5"/>
		<path class="st3" d="M179.4,246.2c2.3,0,4.1-1.8,4.1-4.1c0-2.3-1.8-4.1-4.1-4.1c-2.3,0-4.1,1.8-4.1,4.1l0,0
			C175.3,244.4,177.1,246.2,179.4,246.2"/>
		<path class="st3" d="M117.3,229.9c2.3,0,4.1-1.8,4.1-4.1c0-2.3-1.8-4.1-4.1-4.1c-2.3,0-4.1,1.8-4.1,4.1l0,0
			C113.2,228,115,229.9,117.3,229.9C117.2,229.9,117.3,229.9,117.3,229.9"/>
		<path class="st3" d="M117.3,245.1c2.2,0,4-1.8,4-4c0,0,0-0.1,0-0.1c0-2.3-1.8-4.1-4.1-4.1c-2.3,0-4.1,1.9-4,4.1
			C113.2,243.3,115,245.1,117.3,245.1"/>
		<path class="st3" d="M132.6,245.1c2.3,0,4.1-1.8,4.1-4.1c0-2.3-1.8-4.1-4.1-4.1c-2.3,0-4.1,1.8-4.1,4.1l0,0
			C128.5,243.3,130.3,245.1,132.6,245.1C132.5,245.1,132.6,245.1,132.6,245.1"/>
		<path class="st3" d="M148.4,260.5c2.3,0,4.1-1.8,4.1-4.1c0-2.3-1.8-4.1-4.1-4.1c-2.2,0-4.1,1.8-4.1,4c0,0,0,0.1,0,0.1l0,0
			C144.3,258.6,146.2,260.5,148.4,260.5"/>
		<path class="st3" d="M147.6,276.5c2.3,0,4.1-1.8,4.1-4.1c0-2.3-1.8-4.1-4.1-4.1c-2.3,0-4.1,1.8-4.1,4.1l0,0
			C143.5,274.6,145.3,276.5,147.6,276.5C147.5,276.5,147.6,276.5,147.6,276.5"/>
		<path class="st3" d="M164.4,276.5c2.3,0,4.1-1.8,4.1-4.1c0-2.3-1.8-4.1-4.1-4.1c-2.3,0-4.1,1.8-4.1,4.1l0,0
			C160.3,274.6,162.2,276.5,164.4,276.5"/>
		<path class="st3" d="M179.7,291.8c2.3,0,4.1-1.8,4.1-4.1c0-2.3-1.8-4.1-4.1-4.1c-2.3,0-4.1,1.8-4.1,4.1c0,0,0,0,0,0l0,0
			C175.7,289.9,177.5,291.7,179.7,291.8"/>
		<path class="st3" d="M178.3,307.9c2.3,0,4.1-1.8,4.1-4.1c0-2.3-1.8-4.1-4.1-4.1c-2.3,0-4.1,1.8-4.1,4.1l0,0
			C174.2,306,176,307.9,178.3,307.9C178.2,307.9,178.3,307.9,178.3,307.9"/>
		<path class="st3" d="M195,308.5c2.3,0,4.1-1.8,4.1-4.1c0-2.3-1.8-4.1-4.1-4.1c-2.3,0-4.1,1.8-4.1,4.1l0,0
			C190.9,306.7,192.7,308.5,195,308.5"/>
		<path class="st3" d="M257.6,323c2.3,0,4.1-1.8,4.1-4.1c0-2.3-1.8-4.1-4.1-4.1c-2.3,0-4.1,1.8-4.1,4.1l0,0
			C253.5,321.1,255.3,323,257.6,323C257.5,323,257.6,323,257.6,323"/>
		<path class="st3" d="M209.4,339.7c2.3,0,4.1-1.8,4.1-4.1c0-2.3-1.8-4.1-4.1-4.1c-2.3,0-4.1,1.8-4.1,4.1c0,0,0,0,0,0l0,0
			C205.3,337.8,207.2,339.7,209.4,339.7"/>
		<path class="st3" d="M163,323c2.3,0,4.1-1.8,4.1-4.1c0-2.3-1.8-4.1-4.1-4.1c-2.3,0-4.1,1.8-4.1,4.1l0,0
			C158.9,321.2,160.7,323,163,323"/>
		<path class="st3" d="M147.6,323.8c2.3,0,4.1-1.8,4.1-4.1c0-2.3-1.8-4.1-4.1-4.1c-2.3,0-4.1,1.8-4.1,4.1c0,0,0,0,0,0l0,0
			C143.5,321.9,145.3,323.8,147.6,323.8C147.5,323.8,147.6,323.8,147.6,323.8"/>
		<path class="st3" d="M117.1,338.3c2.3,0,4.1-1.8,4.1-4.1s-1.8-4.1-4.1-4.1c-2.3,0-4.1,1.8-4.1,4.1l0,0
			C113,336.4,114.9,338.3,117.1,338.3"/>
		<path class="st3" d="M131.7,338.3c2.3,0,4.1-1.8,4.1-4.1c0-2.3-1.8-4.1-4.1-4.1c-2.3,0-4.1,1.8-4.1,4.1c0,0,0,0,0,0l0,0
			C127.6,336.5,129.4,338.3,131.7,338.3"/>
		<path class="st3" d="M274.1,358.3c2.2,0,4-1.8,4-4c0,0,0-0.1,0-0.1c-0.1-2.2-1.9-4-4.1-4c-2.2,0-4,1.9-4,4.1
			S271.9,358.3,274.1,358.3"/>
		<path class="st3" d="M242.3,373.8c2.3,0,4.1-1.8,4.1-4.1s-1.8-4.1-4.1-4.1c-2.3,0-4.1,1.8-4.1,4.1l0,0
			C238.2,371.9,240.1,373.8,242.3,373.8"/>
		<path class="st3" d="M258.9,373.8c2.3,0,4.1-1.8,4.1-4.1c0-2.3-1.8-4.1-4.1-4.1c-2.3,0-4.1,1.8-4.1,4.1l0,0
			C254.8,372,256.6,373.8,258.9,373.8"/>
		<path class="st3" d="M148.5,357.6c2.3,0,4.1-1.8,4.1-4.1s-1.8-4.1-4.1-4.1c-2.3,0-4.1,1.8-4.1,4.1l0,0
			C144.4,355.7,146.3,357.6,148.5,357.6"/>
		<path class="st3" d="M148.1,373.3c2.3,0,4.1-1.8,4.1-4.1s-1.8-4.1-4.1-4.1c-2.3,0-4.1,1.8-4.1,4.1l0,0
			C144,371.4,145.9,373.3,148.1,373.3"/>
		<path class="st3" d="M163.9,372.8c2.3,0,4.1-1.8,4.1-4.1s-1.8-4.1-4.1-4.1c-2.3,0-4.1,1.8-4.1,4.1l0,0
			C159.8,370.9,161.6,372.8,163.9,372.8C163.8,372.8,163.9,372.8,163.9,372.8"/>
		<path class="st3" d="M179.3,388.8c2.3,0,4.1-1.8,4.1-4.1s-1.8-4.1-4.1-4.1c-2.3,0-4.1,1.8-4.1,4.1l0,0
			C175.2,386.9,177.1,388.8,179.3,388.8"/>
		<path class="st3" d="M274.1,405c2.3,0,4.1-1.8,4.1-4.1c0-2.3-1.8-4.1-4.1-4.1c-2.3,0-4.1,1.8-4.1,4.1l0,0
			C270,403.1,271.9,405,274.1,405"/>
		<path class="st3" d="M242.1,420.4c2.3,0,4.1-1.8,4.1-4.1s-1.8-4.1-4.1-4.1c-2.3,0-4.1,1.8-4.1,4.1l0,0
			C238,418.5,239.8,420.4,242.1,420.4C242,420.4,242.1,420.4,242.1,420.4"/>
		<path class="st3" d="M258,420.4c2.3,0,4.1-1.8,4.1-4.1c0-2.3-1.8-4.1-4.1-4.1c-2.3,0-4.1,1.8-4.1,4.1l0,0
			C253.9,418.5,255.7,420.4,258,420.4C257.9,420.4,258,420.4,258,420.4"/>
		<path class="st3" d="M241.9,435.8c2.3,0,4.1-1.8,4.1-4.1s-1.8-4.1-4.1-4.1c-2.3,0-4.1,1.8-4.1,4.1l0,0
			C237.9,433.9,239.7,435.7,241.9,435.8"/>
		<path class="st3" d="M242.6,451.1c2.3,0,4.1-1.8,4.1-4.1s-1.8-4.1-4.1-4.1c-2.3,0-4.1,1.8-4.1,4.1l0,0
			C238.5,449.3,240.3,451.1,242.6,451.1C242.5,451.1,242.6,451.1,242.6,451.1"/>
		<path class="st3" d="M258.1,451.7c2.3,0,4.1-1.8,4.1-4.1c0-2.3-1.8-4.1-4.1-4.1c-2.3,0-4.1,1.8-4.1,4.1l0,0
			C254,449.8,255.9,451.7,258.1,451.7"/>
		<path class="st3" d="M146.9,435.8c2.3,0,4.1-1.8,4.1-4.1s-1.8-4.1-4.1-4.1c-2.3,0-4.1,1.8-4.1,4.1l0,0
			C142.8,433.9,144.7,435.8,146.9,435.8"/>
		<path class="st3" d="M147.7,450.4c2.3,0,4.1-1.8,4.1-4.1s-1.8-4.1-4.1-4.1c-2.3,0-4.1,1.8-4.1,4.1l0,0
			C143.6,448.5,145.4,450.4,147.7,450.4C147.6,450.4,147.7,450.4,147.7,450.4"/>
		<path class="st3" d="M163,451.1c2.3,0,4.1-1.8,4.1-4.1s-1.8-4.1-4.1-4.1c-2.3,0-4.1,1.8-4.1,4.1l0,0
			C158.9,449.3,160.7,451.1,163,451.1C162.9,451.1,163,451.1,163,451.1"/>
		<path class="st3" d="M171.4,481.8c2.3,0,4.1-1.8,4.1-4.1s-1.8-4.1-4.1-4.1c-2.3,0-4.1,1.8-4.1,4.1l0,0
			C167.3,479.9,169.1,481.8,171.4,481.8C171.3,481.8,171.4,481.8,171.4,481.8"/>
		<path class="st3" d="M186.5,481.6c2.3,0,4.1-1.8,4.1-4.1s-1.8-4.1-4.1-4.1c-2.3,0-4.1,1.8-4.1,4.1l0,0
			C182.4,479.7,184.2,481.6,186.5,481.6C186.4,481.6,186.5,481.6,186.5,481.6"/>
		<path class="st3" d="M264.8,482.6c2.3,0,4.1-1.8,4.1-4.1c0-2.3-1.8-4.1-4.1-4.1c-2.3,0-4.1,1.8-4.1,4.1l0,0
			C260.8,480.7,262.6,482.5,264.8,482.6"/>
		<path class="st3" d="M279.5,482.6c2.3,0,4.1-1.8,4.1-4.1c0-2.3-1.8-4.1-4.1-4.1c-2.3,0-4.1,1.8-4.1,4.1l0,0
			C275.4,480.8,277.2,482.6,279.5,482.6"/>
		<path class="st3" d="M232.7,497.9c2.3,0,4.1-1.8,4.1-4.1s-1.8-4.1-4.1-4.1c-2.3,0-4.1,1.8-4.1,4.1l0,0
			C228.6,496,230.4,497.9,232.7,497.9C232.6,497.9,232.7,497.9,232.7,497.9"/>
		<path class="st3" d="M248.6,497.9c2.3,0,4.1-1.8,4.1-4.1s-1.8-4.1-4.1-4.1c-2.3,0-4.1,1.8-4.1,4.1l0,0
			C244.5,496,246.4,497.9,248.6,497.9"/>
		<path class="st3" d="M107.7,497.7c2.3,0,4.1-1.8,4.1-4.1s-1.8-4.1-4.1-4.1c-2.3,0-4.1,1.8-4.1,4.1l0,0
			C103.6,495.9,105.4,497.7,107.7,497.7"/>
		<path class="st3" d="M170.2,512.5c2.3,0,4.1-1.8,4.1-4.1s-1.8-4.1-4.1-4.1c-2.3,0-4.1,1.8-4.1,4.1
			C166.1,510.6,167.9,512.5,170.2,512.5C170.1,512.5,170.2,512.5,170.2,512.5L170.2,512.5"/>
		<path class="st3" d="M170.5,525.9c2.3,0,4.1-1.8,4.1-4.1c0-2.3-1.8-4.1-4.1-4.1c-2.3,0-4.1,1.8-4.1,4.1l0,0
			C166.4,524.1,168.2,525.9,170.5,525.9L170.5,525.9"/>
		<path class="st3" d="M138.4,546c2.3,0,4.1-1.8,4.1-4.1c0-2.3-1.8-4.1-4.1-4.1c-2.3,0-4.1,1.8-4.1,4.1l0,0
			C134.3,544.1,136.1,546,138.4,546C138.3,546,138.4,546,138.4,546L138.4,546"/>
		<path class="st3" d="M154.6,545.9c2.3,0,4.1-1.8,4.1-4.1c0-2.3-1.8-4.1-4.1-4.1c-2.3,0-4.1,1.8-4.1,4.1l0,0
			C150.5,544,152.3,545.9,154.6,545.9C154.5,545.9,154.6,545.9,154.6,545.9L154.6,545.9"/>
		<path class="st3" d="M185.5,527.5c2.3,0,4.1-1.8,4.1-4.1c0-2.3-1.8-4.1-4.1-4.1c-2.3,0-4.1,1.8-4.1,4.1l0,0
			C181.4,525.7,183.2,527.5,185.5,527.5L185.5,527.5"/>
		<path class="st3" d="M265.6,512.5c2.3,0,4.1-1.8,4.1-4.1c0-2.3-1.8-4.1-4.1-4.1c-2.3,0-4.1,1.8-4.1,4.1
			C261.5,510.6,263.3,512.5,265.6,512.5C265.5,512.5,265.6,512.5,265.6,512.5L265.6,512.5"/>
		<path class="st3" d="M264,527.2c2.3,0,4.1-1.8,4.1-4.1c0-2.3-1.8-4.1-4.1-4.1c-2.3,0-4.1,1.8-4.1,4.1l0,0
			C259.9,525.3,261.7,527.2,264,527.2C263.9,527.2,264,527.2,264,527.2L264,527.2"/>
		<path class="st3" d="M280.9,526.6c2.3,0,4.1-1.8,4.1-4.1c0-2.3-1.8-4.1-4.1-4.1c-2.3,0-4.1,1.8-4.1,4.1l0,0
			C276.8,524.8,278.6,526.6,280.9,526.6L280.9,526.6"/>
		<path class="st3" d="M232.7,545.3c2.3,0,4.1-1.8,4.1-4.1c0-2.3-1.8-4.1-4.1-4.1c-2.3,0-4.1,1.8-4.1,4.1l0,0
			C228.6,543.4,230.4,545.3,232.7,545.3C232.6,545.3,232.7,545.3,232.7,545.3L232.7,545.3"/>
		<path class="st3" d="M248.8,545.2c2.3,0,4.1-1.8,4.1-4.1c0-2.3-1.8-4.1-4.1-4.1c-2.3,0-4.1,1.8-4.1,4.1l0,0
			C244.7,543.3,246.5,545.2,248.8,545.2C248.7,545.2,248.8,545.2,248.8,545.2L248.8,545.2"/>
		<path class="st3" d="M4.5,14.8c2.2,0,3.9-1.7,3.9-3.9c0-2.1-1.7-3.8-3.9-3.8c0,0,0,0,0,0c-2.1,0-3.8,1.7-3.8,3.9
			C0.7,13.1,2.4,14.8,4.5,14.8L4.5,14.8"/>
		<path class="st3" d="M5,50.3c2.1,0,3.9-1.7,3.9-3.8c-0.1-2.1-1.8-3.8-3.9-3.9c-2.1,0-3.8,1.7-3.8,3.8c0,0,0,0,0,0.1l0,0
			C1.2,48.6,2.9,50.3,5,50.3"/>
		<path class="st3" d="M4.5,65c2.1,0,3.9-1.7,3.9-3.8c0-2.1-1.7-3.8-3.8-3.8c0,0,0,0-0.1,0c-2-0.1-3.7,1.5-3.8,3.6
			c0,0.1,0,0.2,0,0.2l0,0C0.7,63.3,2.4,65,4.5,65"/>
		<path class="st3" d="M22.5,65.7c2.1,0,3.9-1.7,3.9-3.8c-0.1-2.1-1.8-3.8-3.9-3.9c-2.1,0-3.9,1.7-3.9,3.8l0,0
			C18.7,63.9,20.4,65.6,22.5,65.7"/>
		<path class="st3" d="M64.5,15.1c2.2,0,4-1.8,4-4s-1.8-4-4-4c-2.2,0-4,1.8-4,4S62.3,15.1,64.5,15.1"/>
		<path class="st3" d="M35,80.5c2.2,0,4-1.8,4-4s-1.8-4-4-4s-4,1.8-4,4S32.8,80.5,35,80.5"/>
		<path class="st3" d="M68.3,80.6c2.2,0,4-1.8,4-4s-1.8-4-4-4s-4,1.8-4,4S66.1,80.6,68.3,80.6"/>
		<path class="st3" d="M83.9,80.4c2.2,0,4-1.8,4-4s-1.8-4-4-4s-4,1.8-4,4S81.7,80.4,83.9,80.4"/>
		<path class="st3" d="M99.6,95.1c2.2,0,4-1.8,4-4s-1.8-4-4-4s-4,1.8-4,4S97.4,95.1,99.6,95.1"/>
		<path class="st3" d="M69.6,111.3c2.2,0,4-1.8,4-4s-1.8-4-4-4s-4,1.8-4,4S67.4,111.3,69.6,111.3"/>
		<path class="st3" d="M50.2,126.5c2.2,0,4-1.8,4-4s-1.8-4-4-4s-4,1.8-4,4S48,126.5,50.2,126.5"/>
		<path class="st3" d="M68.6,126.5c2.2,0,4-1.8,4-4s-1.8-4-4-4s-4,1.8-4,4S66.4,126.5,68.6,126.5"/>
		<path class="st3" d="M86.7,126.5c2.2,0,4-1.8,4-4s-1.8-4-4-4s-4,1.8-4,4S84.5,126.5,86.7,126.5"/>
		<path class="st3" d="M34.5,161.2c2.3,0,4.1-1.8,4.1-4.1c0-2.3-1.8-4.1-4.1-4.1c-2.3,0-4.1,1.8-4.1,4.1l0,0
			C30.4,159.4,32.2,161.2,34.5,161.2"/>
		<path class="st3" d="M66.4,160.5c2.3,0,4.1-1.8,4.1-4.1c0-2.3-1.8-4.1-4.1-4.1c-2.3,0-4.1,1.8-4.1,4.1l0,0
			C62.3,158.7,64.1,160.5,66.4,160.5"/>
		<path class="st3" d="M65.4,176.4c2.3,0,4.1-1.8,4.1-4.1c0-2.3-1.8-4.1-4.1-4.1c-2.3,0-4.1,1.8-4.1,4.1l0,0
			C61.3,174.5,63.2,176.4,65.4,176.4"/>
		<path class="st3" d="M81.4,175.8c2.3,0,4.1-1.8,4.1-4.1c0-2.3-1.8-4.1-4.1-4.1c-2.3,0-4.1,1.8-4.1,4.1l0,0
			C77.3,173.9,79.2,175.8,81.4,175.8"/>
		<path class="st3" d="M36.2,207.1c2.3,0,4.1-1.8,4.1-4.1c0-2.3-1.8-4.1-4.1-4.1c-2.3,0-4.1,1.8-4.1,4.1l0,0
			C32.1,205.3,33.9,207.1,36.2,207.1"/>
		<path class="st3" d="M67.5,207.9c2.3,0,4.1-1.8,4.1-4.1c0-2.3-1.8-4.1-4.1-4.1c-2.3,0-4.1,1.8-4.1,4.1l0,0
			C63.4,206,65.2,207.9,67.5,207.9C67.4,207.9,67.5,207.9,67.5,207.9"/>
		<path class="st3" d="M98.7,191.8c2.3,0,4.1-1.8,4.1-4.1c0-2.3-1.8-4.1-4.1-4.1c-2.3,0-4.1,1.8-4.1,4.1l0,0
			C94.6,189.9,96.4,191.8,98.7,191.8C98.6,191.8,98.7,191.8,98.7,191.8"/>
		<path class="st3" d="M4.3,239.1c2.2,0,4-1.9,4-4.1c0-2.2-1.9-4-4.1-4c-2.2,0-4,1.8-4,4C0.2,237.3,2,239.1,4.3,239.1"/>
		<path class="st3" d="M35.5,254.4c2.3,0,4.1-1.8,4.1-4.1c0-2.3-1.8-4.1-4.1-4.1c-2.3,0-4.1,1.8-4.1,4.1l0,0
			C31.4,252.5,33.2,254.4,35.5,254.4C35.4,254.4,35.5,254.4,35.5,254.4"/>
		<path class="st3" d="M98.1,238.2c2.3,0,4.1-1.8,4.1-4.1c0-2.3-1.8-4.1-4.1-4.1c-2.3,0-4.1,1.8-4.1,4.1c0,0,0,0,0,0l0,0
			C94,236.4,95.8,238.2,98.1,238.2C98,238.2,98.1,238.2,98.1,238.2"/>
		<path class="st3" d="M98.7,253.7c2.3,0,4.1-1.8,4.1-4.1c0-2.3-1.8-4.1-4.1-4.1c-2.3,0-4.1,1.8-4.1,4.1l0,0
			C94.6,251.9,96.4,253.7,98.7,253.7"/>
		<path class="st3" d="M4.2,284.2c2.3,0,4.1-1.8,4.1-4.1c0-2.2-1.8-4.1-4-4.1c0,0-0.1,0-0.1,0c-2.2,0-4.1,1.8-4.1,4c0,0,0,0.1,0,0.1
			l0,0C0.1,282.4,1.9,284.2,4.2,284.2C4.1,284.2,4.2,284.2,4.2,284.2"/>
		<path class="st3" d="M35.5,300.1c2.2,0,4-1.9,4-4.1s-1.9-4-4.1-4c-2.2,0-4,1.8-4,4C31.4,298.3,33.2,300.1,35.5,300.1
			C35.4,300.1,35.5,300.1,35.5,300.1"/>
		<path class="st3" d="M66.9,300.7c2.3,0,4.1-1.8,4.1-4.1s-1.8-4.1-4.1-4.1c-2.3,0-4.1,1.8-4.1,4.1l0,0
			C62.8,298.8,64.6,300.7,66.9,300.7C66.8,300.7,66.9,300.7,66.9,300.7"/>
		<path class="st3" d="M35.5,315.5c2.3,0,4.1-1.8,4.1-4.1c0-2.3-1.8-4.1-4.1-4.1c-2.3,0-4.1,1.8-4.1,4.1l0,0
			C31.4,313.6,33.2,315.5,35.5,315.5C35.4,315.5,35.5,315.5,35.5,315.5"/>
		<path class="st3" d="M50.8,315.5c2.3,0,4.1-1.8,4.1-4.1c0-2.3-1.8-4.1-4.1-4.1c-2.3,0-4.1,1.8-4.1,4.1l0,0
			C46.7,313.6,48.5,315.5,50.8,315.5C50.7,315.5,50.8,315.5,50.8,315.5"/>
		<path class="st3" d="M67.5,315.6c2.3,0,4.1-1.8,4.1-4.1s-1.8-4.1-4.1-4.1c-2.3,0-4.1,1.8-4.1,4.1l0,0
			C63.4,313.7,65.2,315.6,67.5,315.6C67.4,315.6,67.5,315.6,67.5,315.6"/>
		<path class="st3" d="M82,315.5c2.2,0,4.1-1.8,4.1-4c0-2.2-1.8-4.1-4-4.1c-2.2,0-4.1,1.8-4.1,4v0.1C78,313.7,79.8,315.5,82,315.5"
			/>
		<path class="st3" d="M98.1,347.4c2.3,0,4.1-1.8,4.1-4.1s-1.8-4.1-4.1-4.1c-2.3,0-4.1,1.8-4.1,4.1l0,0
			C94,345.5,95.8,347.4,98.1,347.4C98,347.4,98.1,347.4,98.1,347.4"/>
		<path class="st3" d="M82,362.6c2.2,0,4.1-1.8,4.1-4c0-2.2-1.8-4.1-4-4.1c-2.2,0-4.1,1.8-4.1,4v0.1C78.1,360.8,79.8,362.5,82,362.6
			"/>
		<path class="st3" d="M65.9,362.8c2.3,0,4.1-1.8,4.1-4.1s-1.8-4.1-4.1-4.1c-2.3,0-4.1,1.8-4.1,4.1l0,0
			C61.8,360.9,63.7,362.8,65.9,362.8"/>
		<path class="st3" d="M4.1,346.1c2.3,0,4.1-1.8,4.1-4.1s-1.8-4.1-4.1-4.1c-2.3,0-4.1,1.8-4.1,4.1l0,0C0,344.3,1.8,346.1,4.1,346.1
			C4,346.1,4.1,346.1,4.1,346.1"/>
		<path class="st3" d="M19.5,347.4c2.3,0,4.1-1.8,4.1-4.1s-1.8-4.1-4.1-4.1c-2.2,0-4.1,1.8-4.1,4c0,0,0,0.1,0,0.1l0,0
			C15.4,345.5,17.2,347.4,19.5,347.4C19.4,347.4,19.5,347.4,19.5,347.4"/>
		<path class="st3" d="M37,396.7c2.3,0,4.1-1.8,4.1-4.1s-1.8-4.1-4.1-4.1s-4.1,1.8-4.1,4.1l0,0C32.9,394.8,34.7,396.7,37,396.7
			C36.9,396.7,37,396.7,37,396.7"/>
		<path class="st3" d="M68.4,396.7c2.3,0,4.1-1.8,4.1-4.1s-1.8-4.1-4.1-4.1c-2.3,0-4.1,1.8-4.1,4.1l0,0
			C64.3,394.9,66.1,396.7,68.4,396.7"/>
		<path class="st3" d="M67.6,428.2c2.3,0,4.1-1.8,4.1-4.1s-1.8-4.1-4.1-4.1c-2.3,0-4.1,1.8-4.1,4.1l0,0
			C63.5,426.4,65.3,428.2,67.6,428.2"/>
		<path class="st3" d="M5.4,428.2c2.3,0,4.1-1.8,4.1-4.1S7.7,420,5.4,420c-2.2,0-4.1,1.8-4.1,4c0,0,0,0.1,0,0.1l0,0
			C1.4,426.3,3.2,428.1,5.4,428.2"/>
		<path class="st3" d="M68.4,474.2c2.3,0,4.1-1.8,4.1-4.1s-1.8-4.1-4.1-4.1c-2.3,0-4.1,1.8-4.1,4.1l0,0
			C64.3,472.4,66.1,474.2,68.4,474.2"/>
		<path class="st3" d="M27,489.6c2.3,0,4.1-1.8,4.1-4.1c0-2.3-1.8-4.1-4.1-4.1s-4.1,1.8-4.1,4.1l0,0C22.9,487.8,24.7,489.6,27,489.6
			"/>
		<path class="st3" d="M5.4,458.1c2.2,0,4.1-1.8,4.1-4c0,0,0-0.1,0-0.1c0-2.2-1.8-4-4-4c0,0-0.1,0-0.1,0c-2.3,0-4.1,1.8-4.1,4.1
			C1.4,456.3,3.2,458.1,5.4,458.1"/>
		<path class="st3" d="M4.8,474.2c2.3,0,4.1-1.8,4.1-4.1S7.1,466,4.8,466c-2.2,0-4.1,1.8-4.1,4c0,0,0,0.1,0,0.1l0,0
			C0.7,472.4,2.5,474.2,4.8,474.2"/>
		<path class="st3" d="M20.9,474.2c2.3,0,4.1-1.8,4.1-4.1c0-2.3-1.8-4.1-4.1-4.1s-4.1,1.8-4.1,4.1l0,0
			C16.8,472.3,18.6,474.2,20.9,474.2C20.8,474.2,20.9,474.2,20.9,474.2"/>
		<path class="st3" d="M27.7,521c2.3,0,4.1-1.8,4.1-4.1c0-2.3-1.8-4.1-4.1-4.1s-4.1,1.8-4.1,4.1l0,0C23.6,519.2,25.4,521,27.7,521
			L27.7,521"/>
		<path class="st3" d="M27.1,534.3c2.3,0,4.1-1.8,4.1-4.1c0-2.3-1.8-4.1-4.1-4.1c-2.3,0-4.1,1.8-4.1,4.1
			C23,532.4,24.8,534.3,27.1,534.3C27,534.3,27.1,534.3,27.1,534.3L27.1,534.3"/>
		<path class="st3" d="M43.8,533.6c2.3,0,4.1-1.8,4.1-4.1c0-2.3-1.8-4.1-4.1-4.1c-2.3,0-4.1,1.8-4.1,4.1l0,0
			C39.7,531.7,41.5,533.6,43.8,533.6C43.7,533.6,43.8,533.6,43.8,533.6L43.8,533.6"/>
		<path class="st3" d="M59.1,490.3c2.3,0,4.1-1.8,4.1-4.1s-1.8-4.1-4.1-4.1s-4.1,1.8-4.1,4.1l0,0C55,488.4,56.9,490.3,59.1,490.3"/>
		<path class="st3" d="M73.6,490.3c2.3,0,4.1-1.8,4.1-4.1s-1.8-4.1-4.1-4.1c-2.3,0-4.1,1.8-4.1,4.1l0,0
			C69.5,488.4,71.4,490.3,73.6,490.3"/>
		<path class="st3" d="M89.8,505.6c2.3,0,4.1-1.8,4.1-4.1s-1.8-4.1-4.1-4.1c-2.3,0-4.1,1.8-4.1,4.1
			C85.7,503.8,87.5,505.6,89.8,505.6L89.8,505.6"/>
	</g>
</g>
<g>
	<defs>
		<rect id="SVGID_11_" x="584.8" width="292.4" height="546"/>
	</defs>
	<clipPath id="SVGID_12_">
		<use xlink:href="#SVGID_11_"  style="overflow:visible;"/>
	</clipPath>
	<g class="st7">
		<path class="st3" d="M732,128.1c2.1-0.1,3.8-1.8,3.7-3.9c-0.1-2.1-1.8-3.8-3.9-3.7c-2.1,0.1-3.7,1.7-3.7,3.8
			C728.1,126.4,729.9,128.1,732,128.1L732,128.1"/>
		<path class="st3" d="M702.6,84.2c2.1,0,3.8-1.7,3.8-3.8c0-2.1-1.7-3.8-3.8-3.8c-2.1,0-3.8,1.7-3.8,3.8v0
			C698.8,82.5,700.5,84.2,702.6,84.2"/>
		<path class="st3" d="M702.2,172.5c2.1,0,3.9-1.7,3.9-3.8c0-2.1-1.7-3.9-3.8-3.9c-2.1,0-3.9,1.7-3.9,3.8
			C698.4,170.7,700.1,172.5,702.2,172.5L702.2,172.5"/>
		<path class="st3" d="M731.9,158c2.1,0,3.8-1.7,3.8-3.8c0,0,0,0,0-0.1c0-2.1-1.6-3.8-3.7-3.8c-0.1,0-0.1,0-0.2,0
			c-2.1,0-3.8,1.7-3.8,3.8c0,0,0,0,0,0C728.1,156.3,729.8,158,731.9,158L731.9,158"/>
		<path class="st3" d="M746.9,127.8c2.1,0,3.8-1.7,3.8-3.8c0,0,0,0,0-0.1c0-2.1-1.6-3.8-3.7-3.8c-0.1,0-0.1,0-0.2,0
			c-2.1,0-3.8,1.7-3.8,3.8C743.1,126,744.8,127.7,746.9,127.8L746.9,127.8"/>
		<path class="st3" d="M761.9,143.5c2.1,0,3.8-1.7,3.8-3.8c0,0,0,0,0-0.1c0-2.1-1.6-3.8-3.7-3.8c-0.1,0-0.1,0-0.2,0
			c-2.1,0-3.8,1.7-3.8,3.8C758.1,141.7,759.8,143.4,761.9,143.5L761.9,143.5"/>
		<path class="st3" d="M748.4,40.7c2.1,0,3.8-1.7,3.8-3.8c0,0,0,0,0-0.1c0-2.1-1.6-3.8-3.7-3.8c-0.1,0-0.1,0-0.2,0
			c-2.1,0-3.8,1.7-3.8,3.8C744.5,39,746.2,40.7,748.4,40.7L748.4,40.7L748.4,40.7"/>
		<path class="st3" d="M761.6,69.2c2.1,0,3.8-1.7,3.8-3.8c0,0,0,0,0-0.1c0-2.1-1.6-3.8-3.7-3.8c-0.1,0-0.1,0-0.2,0
			c-2.1,0-3.8,1.7-3.8,3.8C757.8,67.4,759.5,69.1,761.6,69.2L761.6,69.2"/>
		<path class="st3" d="M776.5,69.8c2.1,0,3.8-1.7,3.8-3.8c0,0,0,0,0-0.1c0-2.1-1.6-3.8-3.7-3.8c-0.1,0-0.1,0-0.2,0
			c-2.1,0-3.8,1.7-3.8,3.8C772.7,68,774.4,69.7,776.5,69.8L776.5,69.8"/>
		<path class="st3" d="M821,7.7c2.1,0,3.8-1.7,3.8-3.8c0,0,0,0,0-0.1c0-2.1-1.6-3.8-3.7-3.8c0,0-0.1,0-0.1,0c-2.1,0-3.8,1.7-3.8,3.8
			c0,0,0,0,0,0.1c0,2.1,1.6,3.8,3.7,3.8C820.9,7.7,821,7.7,821,7.7L821,7.7"/>
		<path class="st3" d="M835.6,7.8c2.1,0,3.8-1.7,3.8-3.8c0,0,0,0,0-0.1c0-2.1-1.7-3.8-3.7-3.8c-0.1,0-0.1,0-0.2,0
			c-2.1,0-3.8,1.7-3.8,3.8c0,0,0,0,0,0.1l0,0C831.7,6.1,833.4,7.8,835.6,7.8C835.6,7.8,835.6,7.8,835.6,7.8L835.6,7.8"/>
		<path class="st3" d="M820.5,27c2.1,0,3.8-1.7,3.8-3.8c0,0,0,0,0-0.1c0-2.1-1.8-3.8-3.9-3.8c-2.1,0-3.8,1.8-3.8,3.9l0,0
			C816.7,25.3,818.4,27,820.5,27L820.5,27"/>
		<path class="st3" d="M821.1,41.6c2.1,0,3.8-1.7,3.8-3.8c0,0,0,0,0-0.1c0-2.1-1.6-3.8-3.7-3.8c-0.1,0-0.1,0-0.2,0
			c-2.1,0-3.8,1.7-3.8,3.8C817.3,39.8,819,41.5,821.1,41.6L821.1,41.6"/>
		<path class="st3" d="M836.4,42.1c2.2,0,3.9-1.7,3.9-3.9c0,0,0,0,0,0c0-2.1-1.7-3.8-3.8-3.8c0,0,0,0-0.1,0c-2.1,0-3.8,1.7-3.8,3.9
			C832.6,40.4,834.3,42.1,836.4,42.1L836.4,42.1"/>
		<path class="st3" d="M821.5,79.4c2.1,0,3.8-1.7,3.8-3.8c0,0,0,0,0-0.1c0-2.1-1.6-3.8-3.7-3.8c-0.1,0-0.1,0-0.2,0
			c-2.1,0-3.8,1.7-3.8,3.8C817.6,77.7,819.3,79.4,821.5,79.4L821.5,79.4L821.5,79.4"/>
		<path class="st3" d="M838.1,79.4c2.2,0,3.9-1.7,3.9-3.9c0,0,0,0,0,0c0-2.1-1.7-3.8-3.8-3.8c0,0,0,0-0.1,0c-2.1,0-3.9,1.7-3.9,3.8
			C834.3,77.6,836,79.3,838.1,79.4L838.1,79.4"/>
		<path class="st3" d="M820.5,127.6c2.1,0,3.8-1.7,3.8-3.8c0,0,0,0,0-0.1c0-2.1-1.6-3.8-3.7-3.8c-0.1,0-0.1,0-0.2,0
			c-2.1,0-3.8,1.7-3.8,3.8C816.7,125.8,818.4,127.5,820.5,127.6L820.5,127.6"/>
		<path class="st3" d="M838.1,128.1c2.1,0,3.9-1.7,3.9-3.8c0-2.1-1.7-3.8-3.8-3.8c0,0,0,0-0.1,0c-2.1,0-3.8,1.7-3.8,3.8
			C834.3,126.4,836,128.1,838.1,128.1C838.1,128.1,838.1,128.1,838.1,128.1L838.1,128.1"/>
		<path class="st3" d="M855.3,112.1c2.2,0,3.9-1.7,3.9-3.9c0,0,0,0,0,0c0-2.1-1.7-3.8-3.8-3.8c0,0,0,0-0.1,0c-2.1,0-3.9,1.7-3.9,3.8
			C851.5,110.4,853.2,112.1,855.3,112.1L855.3,112.1"/>
		<path class="st3" d="M872.5,112.1c2.2,0,3.9-1.7,3.9-3.9c0,0,0,0,0,0c0-2.1-1.7-3.8-3.8-3.8c0,0,0,0-0.1,0c-2.1,0-3.9,1.7-3.9,3.8
			C868.7,110.4,870.4,112.1,872.5,112.1L872.5,112.1"/>
		<path class="st3" d="M855.3,95.8c2.2,0,3.9-1.7,3.9-3.9c0,0,0,0,0,0c0-2.1-1.7-3.8-3.8-3.8c0,0,0,0-0.1,0c-2.1,0-3.9,1.7-3.9,3.8
			C851.5,94,853.2,95.7,855.3,95.8L855.3,95.8"/>
		<path class="st3" d="M854.9,69.4c2.2,0,3.9-1.7,3.9-3.9c0,0,0,0,0,0c0-2.1-1.7-3.8-3.8-3.8c0,0,0,0-0.1,0c-2.1,0-3.9,1.7-3.9,3.8
			C851.1,67.6,852.8,69.3,854.9,69.4L854.9,69.4"/>
		<path class="st3" d="M873.3,70.2c2.2,0,3.9-1.7,3.9-3.9c0,0,0,0,0,0c0-2.1-1.7-3.8-3.8-3.8c0,0,0,0-0.1,0c-2.1,0-3.9,1.7-3.9,3.8
			C869.5,68.4,871.2,70.1,873.3,70.2L873.3,70.2"/>
		<path class="st3" d="M825,168.7c2.3,0,4.1-1.8,4.1-4.1c0-2.3-1.8-4.1-4.1-4.1c-2.3,0-4.1,1.8-4.1,4.1l0,0
			C821,166.8,822.8,168.6,825,168.7"/>
		<path class="st3" d="M733.2,213.2c2.3,0,4.1-1.8,4.1-4.1c0-2.3-1.8-4.1-4.1-4.1c-2.3,0-4.1,1.8-4.1,4.1l0,0
			C729.1,211.3,731,213.2,733.2,213.2"/>
		<path class="st3" d="M764.5,199.3c2.3,0,4.1-1.8,4.1-4.1c0-2.3-1.8-4.1-4.1-4.1c-2.3,0-4.1,1.8-4.1,4.1l0,0
			C760.4,197.4,762.3,199.3,764.5,199.3"/>
		<path class="st3" d="M826.5,184.2c2.3,0,4.1-1.8,4.1-4.1c0-2.3-1.8-4.1-4.1-4.1c-2.3,0-4.1,1.8-4.1,4.1l0,0l0,0
			C822.4,182.4,824.2,184.2,826.5,184.2"/>
		<path class="st3" d="M842.4,183.3c2.3,0,4.1-1.8,4.1-4.1c0-2.3-1.8-4.1-4.1-4.1c-2.3,0-4.1,1.8-4.1,4.1l0,0
			C838.3,181.4,840.1,183.3,842.4,183.3C842.3,183.3,842.4,183.3,842.4,183.3"/>
		<path class="st3" d="M858.4,199.3c2.3,0,4.1-1.8,4.1-4.1c0-2.3-1.8-4.1-4.1-4.1c-2.3,0-4.1,1.8-4.1,4.1l0,0
			C854.3,197.5,856.1,199.3,858.4,199.3"/>
		<path class="st3" d="M857.7,215.6c2.3,0,4.1-1.8,4.1-4.1c0-2.3-1.8-4.1-4.1-4.1c-2.3,0-4.1,1.8-4.1,4.1l0,0
			C853.6,213.7,855.4,215.6,857.7,215.6C857.6,215.6,857.7,215.6,857.7,215.6"/>
		<path class="st3" d="M794.8,229.9c2.3,0,4.1-1.8,4.1-4.1c0-2.3-1.8-4.1-4.1-4.1c-2.3,0-4.1,1.8-4.1,4.1l0,0
			C790.7,228.1,792.5,229.9,794.8,229.9"/>
		<path class="st3" d="M795.1,276.5c2.3,0,4.1-1.8,4.1-4.1c0-2.3-1.8-4.1-4.1-4.1c-2.3,0-4.1,1.8-4.1,4.1l0,0l0,0
			C791,274.6,792.8,276.5,795.1,276.5C795,276.5,795.1,276.5,795.1,276.5"/>
		<path class="st3" d="M764.2,246.2c2.3,0,4.1-1.8,4.1-4.1c0-2.3-1.8-4.1-4.1-4.1c-2.3,0-4.1,1.8-4.1,4.1l0,0l0,0
			C760.1,244.4,761.9,246.2,764.2,246.2"/>
		<path class="st3" d="M702.1,229.9c2.3,0,4.1-1.8,4.1-4.1s-1.8-4.1-4.1-4.1c-2.3,0-4.1,1.8-4.1,4.1v0l0,0
			C698,228,699.8,229.9,702.1,229.9C702,229.9,702.1,229.9,702.1,229.9"/>
		<path class="st3" d="M702.1,245.1c2.2,0,4-1.8,4-4c0,0,0-0.1,0-0.1c0-2.3-1.8-4.1-4.1-4.1c-2.3,0-4.1,1.9-4,4.1
			C698,243.3,699.8,245.1,702.1,245.1"/>
		<path class="st3" d="M717.4,245.1c2.3,0,4.1-1.8,4.1-4.1c0-2.3-1.8-4.1-4.1-4.1c-2.3,0-4.1,1.8-4.1,4.1l0,0
			C713.3,243.3,715.1,245.1,717.4,245.1C717.3,245.1,717.4,245.1,717.4,245.1"/>
		<path class="st3" d="M733.2,260.5c2.3,0,4.1-1.8,4.1-4.1c0-2.3-1.8-4.1-4.1-4.1c-2.2,0-4.1,1.8-4.1,4c0,0,0,0.1,0,0.1l0,0
			C729.1,258.6,731,260.5,733.2,260.5"/>
		<path class="st3" d="M732.4,276.5c2.3,0,4.1-1.8,4.1-4.1c0-2.3-1.8-4.1-4.1-4.1c-2.3,0-4.1,1.8-4.1,4.1l0,0l0,0
			C728.3,274.6,730.1,276.5,732.4,276.5C732.3,276.5,732.4,276.5,732.4,276.5"/>
		<path class="st3" d="M749.2,276.5c2.3,0,4.1-1.8,4.1-4.1c0-2.3-1.8-4.1-4.1-4.1c-2.3,0-4.1,1.8-4.1,4.1l0,0l0,0
			C745.1,274.6,747,276.5,749.2,276.5"/>
		<path class="st3" d="M764.5,291.8c2.3,0,4.1-1.8,4.1-4.1c0-2.3-1.8-4.1-4.1-4.1c-2.3,0-4.1,1.8-4.1,4.1l0,0
			C760.5,289.9,762.3,291.7,764.5,291.8"/>
		<path class="st3" d="M763.1,307.9c2.3,0,4.1-1.8,4.1-4.1c0-2.3-1.8-4.1-4.1-4.1c-2.3,0-4.1,1.8-4.1,4.1l0,0
			C759,306,760.8,307.9,763.1,307.9C763,307.9,763.1,307.9,763.1,307.9"/>
		<path class="st3" d="M779.8,308.5c2.3,0,4.1-1.8,4.1-4.1c0-2.3-1.8-4.1-4.1-4.1c-2.3,0-4.1,1.8-4.1,4.1l0,0
			C775.7,306.7,777.5,308.5,779.8,308.5"/>
		<path class="st3" d="M842.4,323c2.3,0,4.1-1.8,4.1-4.1c0-2.3-1.8-4.1-4.1-4.1c-2.3,0-4.1,1.8-4.1,4.1l0,0
			C838.3,321.1,840.1,323,842.4,323C842.3,323,842.4,323,842.4,323"/>
		<path class="st3" d="M794.2,339.7c2.3,0,4.1-1.8,4.1-4.1c0-2.3-1.8-4.1-4.1-4.1c-2.3,0-4.1,1.8-4.1,4.1l0,0
			C790.1,337.8,792,339.7,794.2,339.7"/>
		<path class="st3" d="M747.8,323c2.3,0,4.1-1.8,4.1-4.1c0-2.3-1.8-4.1-4.1-4.1c-2.3,0-4.1,1.8-4.1,4.1l0,0
			C743.7,321.2,745.5,323,747.8,323"/>
		<path class="st3" d="M732.4,323.8c2.3,0,4.1-1.8,4.1-4.1c0-2.3-1.8-4.1-4.1-4.1c-2.3,0-4.1,1.8-4.1,4.1l0,0l0,0
			C728.3,321.9,730.1,323.8,732.4,323.8C732.3,323.8,732.4,323.8,732.4,323.8"/>
		<path class="st3" d="M701.9,338.3c2.3,0,4.1-1.8,4.1-4.1s-1.8-4.1-4.1-4.1c-2.3,0-4.1,1.8-4.1,4.1c0,0,0,0,0,0l0,0
			C697.8,336.4,699.7,338.3,701.9,338.3"/>
		<path class="st3" d="M716.5,338.3c2.3,0,4.1-1.8,4.1-4.1c0-2.3-1.8-4.1-4.1-4.1c-2.3,0-4.1,1.8-4.1,4.1l0,0
			C712.4,336.5,714.2,338.3,716.5,338.3"/>
		<path class="st3" d="M858.9,358.3c2.2,0,4-1.8,4-4c0,0,0-0.1,0-0.1c-0.1-2.2-1.9-4-4.1-4c-2.2,0-4,1.9-4,4.1
			C854.8,356.5,856.7,358.3,858.9,358.3"/>
		<path class="st3" d="M827.1,373.8c2.3,0,4.1-1.8,4.1-4.1s-1.8-4.1-4.1-4.1c-2.3,0-4.1,1.8-4.1,4.1c0,0,0,0,0,0l0,0
			C823,371.9,824.9,373.8,827.1,373.8"/>
		<path class="st3" d="M843.7,373.8c2.3,0,4.1-1.8,4.1-4.1s-1.8-4.1-4.1-4.1c-2.3,0-4.1,1.8-4.1,4.1c0,0,0,0,0,0l0,0
			C839.6,372,841.4,373.8,843.7,373.8"/>
		<path class="st3" d="M733.3,357.6c2.3,0,4.1-1.8,4.1-4.1s-1.8-4.1-4.1-4.1c-2.3,0-4.1,1.8-4.1,4.1c0,0,0,0,0,0l0,0
			C729.2,355.7,731.1,357.6,733.3,357.6"/>
		<path class="st3" d="M732.9,373.3c2.3,0,4.1-1.8,4.1-4.1s-1.8-4.1-4.1-4.1c-2.3,0-4.1,1.8-4.1,4.1c0,0,0,0,0,0l0,0
			C728.8,371.4,730.7,373.3,732.9,373.3"/>
		<path class="st3" d="M748.7,372.8c2.3,0,4.1-1.8,4.1-4.1s-1.8-4.1-4.1-4.1c-2.3,0-4.1,1.8-4.1,4.1c0,0,0,0,0,0l0,0
			C744.6,370.9,746.4,372.8,748.7,372.8C748.6,372.8,748.7,372.8,748.7,372.8"/>
		<path class="st3" d="M764.1,388.8c2.3,0,4.1-1.8,4.1-4.1s-1.8-4.1-4.1-4.1c-2.3,0-4.1,1.8-4.1,4.1c0,0,0,0,0,0l0,0
			C760,386.9,761.9,388.8,764.1,388.8"/>
		<path class="st3" d="M858.9,405c2.3,0,4.1-1.8,4.1-4.1s-1.8-4.1-4.1-4.1c-2.3,0-4.1,1.8-4.1,4.1c0,0,0,0,0,0l0,0
			C854.8,403.1,856.7,405,858.9,405"/>
		<path class="st3" d="M826.9,420.4c2.3,0,4.1-1.8,4.1-4.1s-1.8-4.1-4.1-4.1c-2.3,0-4.1,1.8-4.1,4.1c0,0,0,0,0,0l0,0
			C822.8,418.5,824.6,420.4,826.9,420.4C826.8,420.4,826.9,420.4,826.9,420.4"/>
		<path class="st3" d="M842.8,420.4c2.3,0,4.1-1.8,4.1-4.1s-1.8-4.1-4.1-4.1c-2.3,0-4.1,1.8-4.1,4.1c0,0,0,0,0,0l0,0
			C838.7,418.5,840.5,420.4,842.8,420.4C842.7,420.4,842.8,420.4,842.8,420.4"/>
		<path class="st3" d="M826.7,435.8c2.3,0,4.1-1.8,4.1-4.1s-1.8-4.1-4.1-4.1c-2.3,0-4.1,1.8-4.1,4.1c0,0,0,0,0,0l0,0
			C822.7,433.9,824.5,435.7,826.7,435.8"/>
		<path class="st3" d="M827.4,451.1c2.3,0,4.1-1.8,4.1-4.1s-1.8-4.1-4.1-4.1c-2.3,0-4.1,1.8-4.1,4.1c0,0,0,0,0,0l0,0
			C823.3,449.3,825.1,451.1,827.4,451.1C827.3,451.1,827.4,451.1,827.4,451.1"/>
		<path class="st3" d="M842.9,451.7c2.3,0,4.1-1.8,4.1-4.1s-1.8-4.1-4.1-4.1c-2.3,0-4.1,1.8-4.1,4.1c0,0,0,0,0,0l0,0
			C838.8,449.8,840.7,451.7,842.9,451.7"/>
		<path class="st3" d="M731.7,435.8c2.3,0,4.1-1.8,4.1-4.1s-1.8-4.1-4.1-4.1c-2.3,0-4.1,1.8-4.1,4.1c0,0,0,0,0,0l0,0
			C727.6,433.9,729.5,435.8,731.7,435.8"/>
		<path class="st3" d="M732.5,450.4c2.3,0,4.1-1.8,4.1-4.1s-1.8-4.1-4.1-4.1c-2.3,0-4.1,1.8-4.1,4.1c0,0,0,0,0,0l0,0
			C728.4,448.5,730.2,450.4,732.5,450.4C732.4,450.4,732.5,450.4,732.5,450.4"/>
		<path class="st3" d="M747.8,451.1c2.3,0,4.1-1.8,4.1-4.1s-1.8-4.1-4.1-4.1c-2.3,0-4.1,1.8-4.1,4.1c0,0,0,0,0,0l0,0
			C743.7,449.3,745.5,451.1,747.8,451.1C747.7,451.1,747.8,451.1,747.8,451.1"/>
		<path class="st3" d="M756.2,481.8c2.3,0,4.1-1.8,4.1-4.1s-1.8-4.1-4.1-4.1c-2.3,0-4.1,1.8-4.1,4.1c0,0,0,0,0,0l0,0
			C752.1,479.9,753.9,481.8,756.2,481.8C756.1,481.8,756.2,481.8,756.2,481.8"/>
		<path class="st3" d="M771.3,481.6c2.3,0,4.1-1.8,4.1-4.1s-1.8-4.1-4.1-4.1c-2.3,0-4.1,1.8-4.1,4.1c0,0,0,0,0,0l0,0
			C767.2,479.7,769,481.6,771.3,481.6C771.2,481.6,771.3,481.6,771.3,481.6"/>
		<path class="st3" d="M849.6,482.6c2.3,0,4.1-1.8,4.1-4.1s-1.8-4.1-4.1-4.1c-2.3,0-4.1,1.8-4.1,4.1c0,0,0,0,0,0l0,0
			C845.6,480.7,847.4,482.5,849.6,482.6"/>
		<path class="st3" d="M864.3,482.6c2.3,0,4.1-1.8,4.1-4.1s-1.8-4.1-4.1-4.1c-2.3,0-4.1,1.8-4.1,4.1c0,0,0,0,0,0l0,0
			C860.2,480.8,862,482.6,864.3,482.6"/>
		<path class="st3" d="M817.5,497.9c2.3,0,4.1-1.8,4.1-4.1s-1.8-4.1-4.1-4.1c-2.3,0-4.1,1.8-4.1,4.1c0,0,0,0,0,0l0,0
			C813.4,496,815.2,497.9,817.5,497.9C817.4,497.9,817.5,497.9,817.5,497.9"/>
		<path class="st3" d="M833.4,497.9c2.3,0,4.1-1.8,4.1-4.1s-1.8-4.1-4.1-4.1c-2.3,0-4.1,1.8-4.1,4.1c0,0,0,0,0,0l0,0
			C829.3,496,831.2,497.9,833.4,497.9"/>
		<path class="st3" d="M692.5,497.7c2.3,0,4.1-1.8,4.1-4.1s-1.8-4.1-4.1-4.1c-2.3,0-4.1,1.8-4.1,4.1c0,0,0,0,0,0l0,0
			C688.4,495.9,690.2,497.7,692.5,497.7"/>
		<path class="st3" d="M755,512.5c2.3,0,4.1-1.8,4.1-4.1s-1.8-4.1-4.1-4.1c-2.3,0-4.1,1.8-4.1,4.1c0,0,0,0,0,0
			C750.9,510.6,752.7,512.5,755,512.5C754.9,512.5,755,512.5,755,512.5L755,512.5"/>
		<path class="st3" d="M755.3,525.9c2.3,0,4.1-1.8,4.1-4.1s-1.8-4.1-4.1-4.1c-2.3,0-4.1,1.8-4.1,4.1v0
			C751.2,524.1,753,525.9,755.3,525.9L755.3,525.9"/>
		<path class="st3" d="M723.2,546c2.3,0,4.1-1.8,4.1-4.1s-1.8-4.1-4.1-4.1c-2.3,0-4.1,1.8-4.1,4.1v0
			C719.1,544.1,720.9,546,723.2,546C723.1,546,723.2,546,723.2,546L723.2,546"/>
		<path class="st3" d="M739.4,545.9c2.3,0,4.1-1.8,4.1-4.1s-1.8-4.1-4.1-4.1c-2.3,0-4.1,1.8-4.1,4.1v0
			C735.3,544,737.1,545.9,739.4,545.9C739.3,545.9,739.4,545.9,739.4,545.9L739.4,545.9"/>
		<path class="st3" d="M770.3,527.5c2.3,0,4.1-1.8,4.1-4.1s-1.8-4.1-4.1-4.1c-2.3,0-4.1,1.8-4.1,4.1v0
			C766.2,525.7,768,527.5,770.3,527.5L770.3,527.5"/>
		<path class="st3" d="M850.4,512.5c2.3,0,4.1-1.8,4.1-4.1s-1.8-4.1-4.1-4.1c-2.3,0-4.1,1.8-4.1,4.1c0,0,0,0,0,0
			C846.3,510.6,848.1,512.5,850.4,512.5C850.3,512.5,850.4,512.5,850.4,512.5L850.4,512.5"/>
		<path class="st3" d="M848.8,527.2c2.3,0,4.1-1.8,4.1-4.1s-1.8-4.1-4.1-4.1c-2.3,0-4.1,1.8-4.1,4.1v0
			C844.7,525.3,846.5,527.2,848.8,527.2C848.7,527.2,848.8,527.2,848.8,527.2L848.8,527.2"/>
		<path class="st3" d="M865.7,526.6c2.3,0,4.1-1.8,4.1-4.1s-1.8-4.1-4.1-4.1c-2.3,0-4.1,1.8-4.1,4.1v0
			C861.6,524.8,863.4,526.6,865.7,526.6L865.7,526.6"/>
		<path class="st3" d="M817.5,545.3c2.3,0,4.1-1.8,4.1-4.1s-1.8-4.1-4.1-4.1c-2.3,0-4.1,1.8-4.1,4.1v0
			C813.4,543.4,815.2,545.3,817.5,545.3C817.4,545.3,817.5,545.3,817.5,545.3L817.5,545.3"/>
		<path class="st3" d="M833.6,545.2c2.3,0,4.1-1.8,4.1-4.1s-1.8-4.1-4.1-4.1c-2.3,0-4.1,1.8-4.1,4.1v0
			C829.5,543.3,831.3,545.2,833.6,545.2C833.5,545.2,833.6,545.2,833.6,545.2L833.6,545.2"/>
		<path class="st3" d="M589.3,14.8c2.2,0,3.9-1.7,3.9-3.9c0,0,0,0,0,0c0-2.1-1.8-3.8-3.9-3.8c-2.1,0-3.8,1.8-3.8,3.9
			C585.5,13.1,587.2,14.8,589.3,14.8L589.3,14.8"/>
		<path class="st3" d="M589.8,50.3c2.1,0,3.9-1.7,3.9-3.8c-0.1-2.1-1.8-3.8-3.9-3.9c-2.1,0-3.8,1.7-3.8,3.8c0,0,0,0,0,0.1l0,0
			C586,48.6,587.7,50.3,589.8,50.3"/>
		<path class="st3" d="M589.3,65c2.1,0,3.9-1.7,3.9-3.8c0-2.1-1.7-3.8-3.8-3.8c0,0,0,0-0.1,0c-2-0.1-3.7,1.5-3.8,3.6
			c0,0.1,0,0.2,0,0.2l0,0C585.5,63.3,587.2,65,589.3,65"/>
		<path class="st3" d="M607.3,65.7c2.1,0,3.9-1.7,3.9-3.8c-0.1-2.1-1.8-3.8-3.9-3.9c-2.1,0-3.9,1.7-3.9,3.8l0,0
			C603.5,63.9,605.2,65.6,607.3,65.7"/>
		<path class="st3" d="M649.3,15.1c2.2,0,4-1.8,4-4s-1.8-4-4-4s-4,1.8-4,4S647.1,15.1,649.3,15.1"/>
		<path class="st3" d="M619.8,80.5c2.2,0,4-1.8,4-4s-1.8-4-4-4s-4,1.8-4,4S617.6,80.5,619.8,80.5"/>
		<path class="st3" d="M653.1,80.6c2.2,0,4-1.8,4-4s-1.8-4-4-4s-4,1.8-4,4S650.9,80.6,653.1,80.6"/>
		<path class="st3" d="M668.7,80.4c2.2,0,4-1.8,4-4s-1.8-4-4-4s-4,1.8-4,4S666.5,80.4,668.7,80.4"/>
		<path class="st3" d="M684.4,95.1c2.2,0,4-1.8,4-4s-1.8-4-4-4s-4,1.8-4,4S682.2,95.1,684.4,95.1"/>
		<path class="st3" d="M654.4,111.3c2.2,0,4-1.8,4-4s-1.8-4-4-4s-4,1.8-4,4S652.2,111.3,654.4,111.3"/>
		<path class="st3" d="M635,126.5c2.2,0,4-1.8,4-4s-1.8-4-4-4s-4,1.8-4,4S632.8,126.5,635,126.5"/>
		<path class="st3" d="M653.4,126.5c2.2,0,4-1.8,4-4s-1.8-4-4-4s-4,1.8-4,4S651.2,126.5,653.4,126.5"/>
		<path class="st3" d="M671.5,126.5c2.2,0,4-1.8,4-4s-1.8-4-4-4s-4,1.8-4,4S669.3,126.5,671.5,126.5"/>
		<path class="st3" d="M619.3,161.2c2.3,0,4.1-1.8,4.1-4.1c0-2.3-1.8-4.1-4.1-4.1c-2.3,0-4.1,1.8-4.1,4.1l0,0l0,0
			C615.2,159.4,617,161.2,619.3,161.2"/>
		<path class="st3" d="M651.2,160.5c2.3,0,4.1-1.8,4.1-4.1s-1.8-4.1-4.1-4.1c-2.3,0-4.1,1.8-4.1,4.1v0l0,0
			C647.1,158.7,648.9,160.5,651.2,160.5"/>
		<path class="st3" d="M650.2,176.4c2.3,0,4.1-1.8,4.1-4.1s-1.8-4.1-4.1-4.1c-2.3,0-4.1,1.8-4.1,4.1v0l0,0
			C646.1,174.5,648,176.4,650.2,176.4"/>
		<path class="st3" d="M666.2,175.8c2.3,0,4.1-1.8,4.1-4.1s-1.8-4.1-4.1-4.1c-2.3,0-4.1,1.8-4.1,4.1v0l0,0
			C662.1,173.9,664,175.8,666.2,175.8"/>
		<path class="st3" d="M621,207.1c2.3,0,4.1-1.8,4.1-4.1c0-2.3-1.8-4.1-4.1-4.1c-2.3,0-4.1,1.8-4.1,4.1l0,0l0,0
			C616.9,205.3,618.7,207.1,621,207.1"/>
		<path class="st3" d="M652.3,207.9c2.3,0,4.1-1.8,4.1-4.1s-1.8-4.1-4.1-4.1c-2.3,0-4.1,1.8-4.1,4.1v0l0,0
			C648.2,206,650,207.9,652.3,207.9C652.2,207.9,652.3,207.9,652.3,207.9"/>
		<path class="st3" d="M683.5,191.8c2.3,0,4.1-1.8,4.1-4.1s-1.8-4.1-4.1-4.1c-2.3,0-4.1,1.8-4.1,4.1v0l0,0
			C679.4,189.9,681.2,191.8,683.5,191.8C683.4,191.8,683.5,191.8,683.5,191.8"/>
		<path class="st3" d="M589.1,239.1c2.2,0,4-1.9,4-4.1s-1.9-4-4.1-4c-2.2,0-4,1.8-4,4C585,237.3,586.8,239.1,589.1,239.1"/>
		<path class="st3" d="M620.3,254.4c2.3,0,4.1-1.8,4.1-4.1c0-2.3-1.8-4.1-4.1-4.1c-2.3,0-4.1,1.8-4.1,4.1l0,0
			C616.2,252.5,618,254.4,620.3,254.4C620.2,254.4,620.3,254.4,620.3,254.4"/>
		<path class="st3" d="M682.9,238.2c2.3,0,4.1-1.8,4.1-4.1s-1.8-4.1-4.1-4.1c-2.3,0-4.1,1.8-4.1,4.1v0l0,0
			C678.8,236.3,680.6,238.2,682.9,238.2C682.8,238.2,682.9,238.2,682.9,238.2"/>
		<path class="st3" d="M683.5,253.7c2.3,0,4.1-1.8,4.1-4.1s-1.8-4.1-4.1-4.1c-2.3,0-4.1,1.8-4.1,4.1v0l0,0
			C679.4,251.9,681.2,253.7,683.5,253.7"/>
		<path class="st3" d="M589,284.2c2.3,0,4.1-1.8,4.1-4.1c0-2.3-1.8-4.1-4.1-4.1c-2.3,0-4.1,1.8-4.1,4.1l0,0
			C584.9,282.3,586.7,284.2,589,284.2C588.9,284.2,589,284.2,589,284.2"/>
		<path class="st3" d="M620.3,300.1c2.2,0,4-1.9,4-4.1s-1.9-4-4.1-4c-2.2,0-4,1.8-4,4C616.2,298.3,618,300.1,620.3,300.1
			C620.2,300.1,620.3,300.1,620.3,300.1"/>
		<path class="st3" d="M651.7,300.7c2.3,0,4.1-1.8,4.1-4.1s-1.8-4.1-4.1-4.1c-2.3,0-4.1,1.8-4.1,4.1c0,0,0,0,0,0l0,0
			C647.6,298.8,649.4,300.7,651.7,300.7C651.6,300.7,651.7,300.7,651.7,300.7"/>
		<path class="st3" d="M620.3,315.5c2.3,0,4.1-1.8,4.1-4.1c0-2.3-1.8-4.1-4.1-4.1c-2.3,0-4.1,1.8-4.1,4.1l0,0
			C616.2,313.6,618,315.5,620.3,315.5C620.2,315.5,620.3,315.5,620.3,315.5"/>
		<path class="st3" d="M635.6,315.5c2.3,0,4.1-1.8,4.1-4.1c0-2.3-1.8-4.1-4.1-4.1c-2.3,0-4.1,1.8-4.1,4.1l0,0
			C631.5,313.6,633.3,315.5,635.6,315.5C635.5,315.5,635.6,315.5,635.6,315.5"/>
		<path class="st3" d="M652.3,315.6c2.3,0,4.1-1.8,4.1-4.1s-1.8-4.1-4.1-4.1c-2.3,0-4.1,1.8-4.1,4.1c0,0,0,0,0,0l0,0
			C648.2,313.7,650,315.6,652.3,315.6C652.2,315.6,652.3,315.6,652.3,315.6"/>
		<path class="st3" d="M666.8,315.5c2.2,0,4.1-1.8,4.1-4c0-2.2-1.8-4.1-4-4.1c-2.2,0-4.1,1.8-4.1,4v0.1
			C662.8,313.7,664.6,315.5,666.8,315.5"/>
		<path class="st3" d="M682.9,347.4c2.3,0,4.1-1.8,4.1-4.1s-1.8-4.1-4.1-4.1c-2.3,0-4.1,1.8-4.1,4.1c0,0,0,0,0,0l0,0
			C678.8,345.5,680.6,347.4,682.9,347.4C682.8,347.4,682.9,347.4,682.9,347.4"/>
		<path class="st3" d="M666.8,362.6c2.2,0,4.1-1.8,4.1-4c0-2.2-1.8-4.1-4-4.1c-2.2,0-4.1,1.8-4.1,4v0.1
			C662.9,360.8,664.6,362.5,666.8,362.6"/>
		<path class="st3" d="M650.7,362.8c2.3,0,4.1-1.8,4.1-4.1s-1.8-4.1-4.1-4.1c-2.3,0-4.1,1.8-4.1,4.1c0,0,0,0,0,0l0,0
			C646.6,360.9,648.5,362.8,650.7,362.8"/>
		<path class="st3" d="M588.9,346.1c2.3,0,4.1-1.8,4.1-4.1s-1.8-4.1-4.1-4.1c-2.3,0-4.1,1.8-4.1,4.1c0,0,0,0,0,0l0,0
			C584.8,344.3,586.6,346.1,588.9,346.1C588.8,346.1,588.9,346.1,588.9,346.1"/>
		<path class="st3" d="M604.3,347.4c2.3,0,4.1-1.8,4.1-4.1s-1.8-4.1-4.1-4.1c-2.2,0-4.1,1.8-4.1,4c0,0,0,0.1,0,0.1l0,0
			C600.2,345.5,602,347.4,604.3,347.4C604.2,347.4,604.3,347.4,604.3,347.4"/>
		<path class="st3" d="M621.8,396.7c2.3,0,4.1-1.8,4.1-4.1s-1.8-4.1-4.1-4.1c-2.3,0-4.1,1.8-4.1,4.1c0,0,0,0,0,0l0,0
			C617.7,394.8,619.5,396.7,621.8,396.7C621.7,396.7,621.8,396.7,621.8,396.7"/>
		<path class="st3" d="M653.2,396.7c2.3,0,4.1-1.8,4.1-4.1s-1.8-4.1-4.1-4.1c-2.3,0-4.1,1.8-4.1,4.1c0,0,0,0,0,0l0,0
			C649.1,394.9,650.9,396.7,653.2,396.7"/>
		<path class="st3" d="M652.4,428.2c2.3,0,4.1-1.8,4.1-4.1s-1.8-4.1-4.1-4.1c-2.3,0-4.1,1.8-4.1,4.1c0,0,0,0,0,0l0,0
			C648.3,426.4,650.1,428.2,652.4,428.2"/>
		<path class="st3" d="M590.2,428.2c2.3,0,4.1-1.8,4.1-4.1s-1.8-4.1-4.1-4.1c-2.3,0-4.1,1.8-4.1,4.1c0,0,0,0,0,0l0,0
			C586.2,426.3,588,428.1,590.2,428.2"/>
		<path class="st3" d="M653.2,474.2c2.3,0,4.1-1.8,4.1-4.1s-1.8-4.1-4.1-4.1c-2.3,0-4.1,1.8-4.1,4.1c0,0,0,0,0,0l0,0
			C649.1,472.4,650.9,474.2,653.2,474.2"/>
		<path class="st3" d="M611.8,489.6c2.3,0,4.1-1.8,4.1-4.1s-1.8-4.1-4.1-4.1c-2.3,0-4.1,1.8-4.1,4.1c0,0,0,0,0,0l0,0
			C607.7,487.8,609.5,489.6,611.8,489.6"/>
		<path class="st3" d="M590.2,458.1c2.2,0,4.1-1.8,4.1-4c0,0,0-0.1,0-0.1c0-2.2-1.8-4-4-4c0,0-0.1,0-0.1,0c-2.3,0-4.1,1.8-4.1,4.1
			C586.2,456.3,588,458.1,590.2,458.1"/>
		<path class="st3" d="M589.6,474.2c2.3,0,4.1-1.8,4.1-4.1s-1.8-4.1-4.1-4.1c-2.3,0-4.1,1.8-4.1,4.1c0,0,0,0,0,0l0,0
			C585.5,472.4,587.3,474.2,589.6,474.2"/>
		<path class="st3" d="M605.7,474.2c2.3,0,4.1-1.8,4.1-4.1s-1.8-4.1-4.1-4.1c-2.3,0-4.1,1.8-4.1,4.1c0,0,0,0,0,0l0,0
			C601.6,472.3,603.4,474.2,605.7,474.2C605.6,474.2,605.7,474.2,605.7,474.2"/>
		<path class="st3" d="M612.5,521c2.3,0,4.1-1.8,4.1-4.1s-1.8-4.1-4.1-4.1c-2.3,0-4.1,1.8-4.1,4.1v0
			C608.4,519.2,610.2,521,612.5,521L612.5,521"/>
		<path class="st3" d="M611.9,534.3c2.3,0,4.1-1.8,4.1-4.1c0-2.3-1.8-4.1-4.1-4.1c-2.3,0-4.1,1.8-4.1,4.1
			C607.8,532.4,609.6,534.3,611.9,534.3C611.8,534.3,611.9,534.3,611.9,534.3L611.9,534.3"/>
		<path class="st3" d="M628.6,533.6c2.3,0,4.1-1.8,4.1-4.1s-1.8-4.1-4.1-4.1c-2.3,0-4.1,1.8-4.1,4.1v0
			C624.5,531.7,626.3,533.6,628.6,533.6C628.5,533.6,628.6,533.6,628.6,533.6L628.6,533.6"/>
		<path class="st3" d="M643.9,490.3c2.3,0,4.1-1.8,4.1-4.1s-1.8-4.1-4.1-4.1c-2.3,0-4.1,1.8-4.1,4.1c0,0,0,0,0,0l0,0
			C639.8,488.4,641.7,490.3,643.9,490.3"/>
		<path class="st3" d="M658.4,490.3c2.3,0,4.1-1.8,4.1-4.1s-1.8-4.1-4.1-4.1c-2.3,0-4.1,1.8-4.1,4.1c0,0,0,0,0,0l0,0
			C654.3,488.4,656.2,490.3,658.4,490.3"/>
		<path class="st3" d="M674.6,505.6c2.3,0,4.1-1.8,4.1-4.1s-1.8-4.1-4.1-4.1c-2.3,0-4.1,1.8-4.1,4.1c0,0,0,0,0,0
			C670.5,503.8,672.3,505.6,674.6,505.6L674.6,505.6"/>
	</g>
</g>
</svg>
