<svg id="Layer_1" data-name="Layer 1" xmlns="http://www.w3.org/2000/svg" xmlns:xlink="http://www.w3.org/1999/xlink" viewBox="0 0 292.36 546.01"><defs><style>.cls-1{fill:#d7bdae;}.cls-2{fill:none;}.cls-3{clip-path:url(#clip-path);}.cls-4{clip-path:url(#clip-path-2);}.cls-5{fill:#2c3033;}.cls-6{fill:#fff;}</style><clipPath id="clip-path" transform="translate(0)"><rect class="cls-1" x="0.12" width="292.23" height="546.01"/></clipPath><clipPath id="clip-path-2" transform="translate(0)"><rect class="cls-2" width="292.35" height="546.01"/></clipPath></defs><title>dots-x</title><rect class="cls-1" x="0.12" width="292.23" height="546.01"/><g class="cls-3"><rect class="cls-1" x="2.33" y="6.94" width="287.82" height="537.69"/></g><g class="cls-4"><path class="cls-5" d="M147.2,128.07a3.85,3.85,0,1,0-3.85-3.85,3.85,3.85,0,0,0,3.85,3.85h0" transform="translate(0)"/><path class="cls-5" d="M117.85,84.24A3.85,3.85,0,1,0,114,80.39a3.85,3.85,0,0,0,3.85,3.85" transform="translate(0)"/><path class="cls-5" d="M117.39,172.47a3.85,3.85,0,1,0-3.85-3.85,3.85,3.85,0,0,0,3.85,3.85h0" transform="translate(0)"/><path class="cls-5" d="M147.15,158a3.85,3.85,0,1,0-3.85-3.85,3.85,3.85,0,0,0,3.85,3.85h0" transform="translate(0)"/><path class="cls-5" d="M162.08,127.78a3.85,3.85,0,1,0-3.85-3.85,3.85,3.85,0,0,0,3.85,3.85h0" transform="translate(0)"/><path class="cls-5" d="M177.13,143.52a3.85,3.85,0,1,0-3.85-3.85,3.85,3.85,0,0,0,3.85,3.85h0" transform="translate(0)"/><path class="cls-5" d="M163.58,40.7a3.85,3.85,0,1,0-3.85-3.85,3.85,3.85,0,0,0,3.85,3.85h0" transform="translate(0)"/><path class="cls-5" d="M176.79,69.19a3.85,3.85,0,1,0-3.85-3.85,3.85,3.85,0,0,0,3.85,3.85h0" transform="translate(0)"/><path class="cls-5" d="M191.72,69.76a3.85,3.85,0,1,0-3.85-3.85,3.85,3.85,0,0,0,3.85,3.85h0" transform="translate(0)"/><path class="cls-5" d="M236.18,7.7a3.85,3.85,0,1,0-3.85-3.85,3.85,3.85,0,0,0,3.85,3.85h0" transform="translate(0)"/><path class="cls-5" d="M250.78,7.81A3.85,3.85,0,1,0,246.93,4V4a3.85,3.85,0,0,0,3.85,3.85h0" transform="translate(0)"/><path class="cls-5" d="M235.73,27a3.85,3.85,0,1,0-3.85-3.85A3.85,3.85,0,0,0,235.73,27h0" transform="translate(0)"/><path class="cls-5" d="M236.3,41.57a3.85,3.85,0,1,0-3.85-3.85,3.85,3.85,0,0,0,3.85,3.85h0" transform="translate(0)"/><path class="cls-5" d="M251.58,42.1a3.85,3.85,0,1,0-3.85-3.85,3.85,3.85,0,0,0,3.85,3.85h0" transform="translate(0)"/><path class="cls-5" d="M236.66,79.42a3.85,3.85,0,1,0-3.85-3.85,3.85,3.85,0,0,0,3.85,3.85h0" transform="translate(0)"/><path class="cls-5" d="M253.32,79.42a3.85,3.85,0,1,0-3.85-3.85,3.85,3.85,0,0,0,3.85,3.85h0" transform="translate(0)"/><path class="cls-5" d="M235.73,127.57a3.85,3.85,0,1,0-3.85-3.85,3.85,3.85,0,0,0,3.85,3.85h0" transform="translate(0)"/><path class="cls-5" d="M253.32,128.07a3.85,3.85,0,1,0-3.85-3.85,3.85,3.85,0,0,0,3.85,3.85h0" transform="translate(0)"/><path class="cls-5" d="M270.51,112.07a3.85,3.85,0,1,0-3.85-3.85,3.85,3.85,0,0,0,3.85,3.85h0" transform="translate(0)"/><path class="cls-5" d="M287.71,112.07a3.85,3.85,0,1,0-3.85-3.85,3.85,3.85,0,0,0,3.85,3.85h0" transform="translate(0)"/><path class="cls-5" d="M270.51,95.81A3.85,3.85,0,1,0,266.66,92a3.85,3.85,0,0,0,3.85,3.85h0" transform="translate(0)"/><path class="cls-5" d="M270.11,69.42a3.85,3.85,0,1,0-3.85-3.85,3.85,3.85,0,0,0,3.85,3.85h0" transform="translate(0)"/><path class="cls-5" d="M288.51,70.22a3.85,3.85,0,1,0-3.85-3.85,3.85,3.85,0,0,0,3.85,3.85h0" transform="translate(0)"/><path class="cls-5" d="M240.25,168.66a4.06,4.06,0,1,0-4.06-4.06h0a4.06,4.06,0,0,0,4.06,4.06" transform="translate(0)"/><path class="cls-5" d="M148.44,213.17a4.06,4.06,0,1,0-4.06-4.06h0a4.06,4.06,0,0,0,4.06,4.06" transform="translate(0)"/><path class="cls-5" d="M179.73,199.34a4.06,4.06,0,1,0-4.06-4.06h0a4.06,4.06,0,0,0,4.06,4.06" transform="translate(0)"/><path class="cls-5" d="M241.7,184.18a4.06,4.06,0,1,0-4.06-4.06h0a4.06,4.06,0,0,0,4.06,4.06" transform="translate(0)"/><path class="cls-5" d="M257.59,183.33a4.06,4.06,0,1,0-4.06-4.06h0a4.06,4.06,0,0,0,4.06,4.06" transform="translate(0)"/><path class="cls-5" d="M273.6,199.34a4.06,4.06,0,1,0-4.06-4.06h0a4.06,4.06,0,0,0,4.06,4.06" transform="translate(0)"/><path class="cls-5" d="M272.87,215.59a4.06,4.06,0,1,0-4.06-4.06h0a4.06,4.06,0,0,0,4.06,4.06" transform="translate(0)"/><path class="cls-5" d="M210,229.91a4.06,4.06,0,1,0-4.06-4.06h0a4.06,4.06,0,0,0,4.06,4.06" transform="translate(0)"/><path class="cls-5" d="M210.29,276.48a4.06,4.06,0,1,0-4.06-4.06h0a4.06,4.06,0,0,0,4.06,4.06" transform="translate(0)"/><path class="cls-5" d="M179.36,246.16a4.06,4.06,0,1,0-4.06-4.06h0a4.06,4.06,0,0,0,4.06,4.06" transform="translate(0)"/><path class="cls-5" d="M117.27,229.91a4.06,4.06,0,1,0-4.06-4.06h0a4.06,4.06,0,0,0,4.06,4.06" transform="translate(0)"/><path class="cls-5" d="M117.27,245.07A4.06,4.06,0,1,0,113.2,241a4.06,4.06,0,0,0,4.07,4.06" transform="translate(0)"/><path class="cls-5" d="M132.55,245.07a4.06,4.06,0,1,0-4.06-4.06h0a4.06,4.06,0,0,0,4.06,4.06" transform="translate(0)"/><path class="cls-5" d="M148.44,260.47a4.06,4.06,0,1,0-4.06-4.06h0a4.06,4.06,0,0,0,4.06,4.06" transform="translate(0)"/><path class="cls-5" d="M147.59,276.48a4.06,4.06,0,1,0-4.06-4.06h0a4.06,4.06,0,0,0,4.06,4.06" transform="translate(0)"/><path class="cls-5" d="M164.44,276.48a4.06,4.06,0,1,0-4.06-4.06h0a4.06,4.06,0,0,0,4.06,4.06" transform="translate(0)"/><path class="cls-5" d="M179.73,291.76a4.06,4.06,0,1,0-4.06-4.06h0a4.06,4.06,0,0,0,4.06,4.06" transform="translate(0)"/><path class="cls-5" d="M178.27,307.89a4.06,4.06,0,1,0-4.06-4.06h0a4.06,4.06,0,0,0,4.06,4.06" transform="translate(0)"/><path class="cls-5" d="M195,308.5a4.06,4.06,0,1,0-4.06-4.06h0A4.06,4.06,0,0,0,195,308.5" transform="translate(0)"/><path class="cls-5" d="M257.59,323a4.06,4.06,0,1,0-4.06-4.06h0a4.06,4.06,0,0,0,4.06,4.06" transform="translate(0)"/><path class="cls-5" d="M209.44,339.67a4.06,4.06,0,1,0-4.06-4.06h0a4.06,4.06,0,0,0,4.06,4.06" transform="translate(0)"/><path class="cls-5" d="M163,323a4.06,4.06,0,1,0-4.06-4.06h0A4.06,4.06,0,0,0,163,323" transform="translate(0)"/><path class="cls-5" d="M147.59,323.78a4.06,4.06,0,1,0-4.06-4.06h0a4.06,4.06,0,0,0,4.06,4.06" transform="translate(0)"/><path class="cls-5" d="M117.14,338.33a4.06,4.06,0,1,0-4.06-4.06h0a4.06,4.06,0,0,0,4.06,4.06" transform="translate(0)"/><path class="cls-5" d="M131.7,338.33a4.06,4.06,0,1,0-4.06-4.06h0a4.06,4.06,0,0,0,4.06,4.06" transform="translate(0)"/><path class="cls-5" d="M274.11,358.3a4.08,4.08,0,1,0-4.11-4.09,4.08,4.08,0,0,0,4.11,4.09" transform="translate(0)"/><path class="cls-5" d="M242.31,373.77a4.08,4.08,0,1,0-4.08-4.08h0a4.08,4.08,0,0,0,4.08,4.08" transform="translate(0)"/><path class="cls-5" d="M258.88,373.77a4.08,4.08,0,1,0-4.08-4.08h0a4.08,4.08,0,0,0,4.08,4.08" transform="translate(0)"/><path class="cls-5" d="M148.51,357.56a4.08,4.08,0,1,0-4.08-4.08h0a4.08,4.08,0,0,0,4.08,4.08" transform="translate(0)"/><path class="cls-5" d="M148.15,373.28a4.08,4.08,0,1,0-4.08-4.08h0a4.08,4.08,0,0,0,4.08,4.08" transform="translate(0)"/><path class="cls-5" d="M163.86,372.79a4.08,4.08,0,1,0-4.08-4.08h0a4.08,4.08,0,0,0,4.08,4.08" transform="translate(0)"/><path class="cls-5" d="M179.33,388.75a4.08,4.08,0,1,0-4.08-4.08h0a4.08,4.08,0,0,0,4.08,4.08" transform="translate(0)"/><path class="cls-5" d="M274.11,405a4.08,4.08,0,1,0-4.08-4.08h0a4.08,4.08,0,0,0,4.08,4.08" transform="translate(0)"/><path class="cls-5" d="M242.07,420.42a4.08,4.08,0,1,0-4.08-4.08h0a4.08,4.08,0,0,0,4.08,4.08" transform="translate(0)"/><path class="cls-5" d="M258,420.42a4.08,4.08,0,1,0-4.08-4.08h0a4.08,4.08,0,0,0,4.08,4.08" transform="translate(0)"/><path class="cls-5" d="M241.95,435.77a4.08,4.08,0,1,0-4.08-4.08h0a4.08,4.08,0,0,0,4.08,4.08" transform="translate(0)"/><path class="cls-5" d="M242.55,451.12a4.08,4.08,0,1,0-4.08-4.08h0a4.08,4.08,0,0,0,4.08,4.08" transform="translate(0)"/><path class="cls-5" d="M258.15,451.73a4.08,4.08,0,1,0-4.08-4.08h0a4.08,4.08,0,0,0,4.08,4.08" transform="translate(0)"/><path class="cls-5" d="M146.93,435.77a4.08,4.08,0,1,0-4.08-4.08h0a4.08,4.08,0,0,0,4.08,4.08" transform="translate(0)"/><path class="cls-5" d="M147.66,450.39a4.08,4.08,0,1,0-4.08-4.08h0a4.08,4.08,0,0,0,4.08,4.08" transform="translate(0)"/><path class="cls-5" d="M163,451.12a4.08,4.08,0,1,0-4.08-4.08h0a4.08,4.08,0,0,0,4.08,4.08" transform="translate(0)"/><path class="cls-5" d="M171.39,481.82a4.08,4.08,0,1,0-4.08-4.08h0a4.08,4.08,0,0,0,4.08,4.08" transform="translate(0)"/><path class="cls-5" d="M186.5,481.58a4.08,4.08,0,1,0-4.08-4.08h0a4.08,4.08,0,0,0,4.08,4.08" transform="translate(0)"/><path class="cls-5" d="M264.83,482.55a4.08,4.08,0,1,0-4.08-4.08h0a4.08,4.08,0,0,0,4.08,4.08" transform="translate(0)"/><path class="cls-5" d="M279.45,482.55a4.08,4.08,0,1,0-4.08-4.08h0a4.08,4.08,0,0,0,4.08,4.08" transform="translate(0)"/><path class="cls-5" d="M232.67,497.9a4.08,4.08,0,1,0-4.08-4.08h0a4.08,4.08,0,0,0,4.08,4.08" transform="translate(0)"/><path class="cls-5" d="M248.63,497.9a4.08,4.08,0,1,0-4.08-4.08h0a4.08,4.08,0,0,0,4.08,4.08" transform="translate(0)"/><path class="cls-5" d="M107.68,497.66a4.08,4.08,0,1,0-4.08-4.08h0a4.08,4.08,0,0,0,4.08,4.08" transform="translate(0)"/><path class="cls-5" d="M170.18,512.52a4.08,4.08,0,1,0-4.08-4.08,4.08,4.08,0,0,0,4.08,4.08h0" transform="translate(0)"/><path class="cls-5" d="M170.54,525.87a4.08,4.08,0,1,0-4.08-4.08,4.08,4.08,0,0,0,4.08,4.08h0" transform="translate(0)"/><path class="cls-5" d="M138.38,546a4.08,4.08,0,1,0-4.08-4.08,4.08,4.08,0,0,0,4.08,4.08h0" transform="translate(0)"/><path class="cls-5" d="M154.58,545.89a4.08,4.08,0,1,0-4.08-4.08,4.08,4.08,0,0,0,4.08,4.08h0" transform="translate(0)"/><path class="cls-5" d="M185.53,527.45a4.08,4.08,0,1,0-4.08-4.08,4.08,4.08,0,0,0,4.08,4.08h0" transform="translate(0)"/><path class="cls-5" d="M265.56,512.52a4.08,4.08,0,1,0-4.08-4.08,4.08,4.08,0,0,0,4.08,4.08h0" transform="translate(0)"/><path class="cls-5" d="M264,527.21a4.08,4.08,0,1,0-4.08-4.08,4.08,4.08,0,0,0,4.08,4.08h0" transform="translate(0)"/><path class="cls-5" d="M280.91,526.6a4.08,4.08,0,1,0-4.08-4.08,4.08,4.08,0,0,0,4.08,4.08h0" transform="translate(0)"/><path class="cls-5" d="M232.67,545.28a4.08,4.08,0,1,0-4.08-4.08,4.08,4.08,0,0,0,4.08,4.08h0" transform="translate(0)"/><path class="cls-5" d="M248.75,545.16a4.08,4.08,0,1,0-4.08-4.08,4.08,4.08,0,0,0,4.08,4.08h0" transform="translate(0)"/><path class="cls-5" d="M4.52,14.8A3.85,3.85,0,1,0,.67,11,3.85,3.85,0,0,0,4.52,14.8h0" transform="translate(0)"/><path class="cls-5" d="M5,50.35A3.85,3.85,0,1,0,1.15,46.5h0A3.85,3.85,0,0,0,5,50.35" transform="translate(0)"/><path class="cls-5" d="M4.52,65A3.85,3.85,0,1,0,.67,61.16h0A3.85,3.85,0,0,0,4.52,65" transform="translate(0)"/><path class="cls-5" d="M22.51,65.68a3.85,3.85,0,1,0-3.85-3.85h0a3.85,3.85,0,0,0,3.85,3.85" transform="translate(0)"/><path class="cls-5" d="M64.54,15.1a4,4,0,1,0-4-4,4,4,0,0,0,4,4" transform="translate(0)"/><path class="cls-5" d="M35,80.49a4,4,0,1,0-4-4,4,4,0,0,0,4,4" transform="translate(0)"/><path class="cls-5" d="M68.28,80.61a4,4,0,1,0-4-4,4,4,0,0,0,4,4" transform="translate(0)"/><path class="cls-5" d="M83.87,80.37a4,4,0,1,0-4-4,4,4,0,0,0,4,4" transform="translate(0)"/><path class="cls-5" d="M99.59,95.12a4,4,0,1,0-4-4,4,4,0,0,0,4,4" transform="translate(0)"/><path class="cls-5" d="M69.55,111.31a4,4,0,1,0-4-4,4,4,0,0,0,4,4" transform="translate(0)"/><path class="cls-5" d="M50.15,126.54a4,4,0,1,0-4-4,4,4,0,0,0,4,4" transform="translate(0)"/><path class="cls-5" d="M68.59,126.54a4,4,0,1,0-4-4,4,4,0,0,0,4,4" transform="translate(0)"/><path class="cls-5" d="M86.66,126.54a4,4,0,1,0-4-4,4,4,0,0,0,4,4" transform="translate(0)"/><path class="cls-5" d="M34.51,161.23a4.06,4.06,0,1,0-4.06-4.06h0a4.06,4.06,0,0,0,4.06,4.06" transform="translate(0)"/><path class="cls-5" d="M66.4,160.5a4.06,4.06,0,1,0-4.06-4.06h0a4.06,4.06,0,0,0,4.06,4.06" transform="translate(0)"/><path class="cls-5" d="M65.43,176.39a4.06,4.06,0,1,0-4.06-4.06h0a4.06,4.06,0,0,0,4.06,4.06" transform="translate(0)"/><path class="cls-5" d="M81.44,175.78a4.06,4.06,0,1,0-4.06-4.06h0a4.06,4.06,0,0,0,4.06,4.06" transform="translate(0)"/><path class="cls-5" d="M36.2,207.07A4.06,4.06,0,1,0,32.14,203h0a4.06,4.06,0,0,0,4.06,4.06" transform="translate(0)"/><path class="cls-5" d="M67.49,207.92a4.06,4.06,0,1,0-4.06-4.06h0a4.06,4.06,0,0,0,4.06,4.06" transform="translate(0)"/><path class="cls-5" d="M98.66,191.79a4.06,4.06,0,1,0-4.06-4.06h0a4.06,4.06,0,0,0,4.06,4.06" transform="translate(0)"/><path class="cls-5" d="M4.31,239.09A4.06,4.06,0,1,0,.24,235a4.06,4.06,0,0,0,4.07,4.08" transform="translate(0)"/><path class="cls-5" d="M35.48,254.37a4.06,4.06,0,1,0-4.06-4.06h0a4.06,4.06,0,0,0,4.06,4.06" transform="translate(0)"/><path class="cls-5" d="M98.06,238.24A4.06,4.06,0,1,0,94,234.18h0a4.06,4.06,0,0,0,4.06,4.06" transform="translate(0)"/><path class="cls-5" d="M98.66,253.65a4.06,4.06,0,1,0-4.06-4.06h0a4.06,4.06,0,0,0,4.06,4.06" transform="translate(0)"/><path class="cls-5" d="M4.18,284.21a4.06,4.06,0,1,0-4.06-4.06h0a4.06,4.06,0,0,0,4.06,4.06" transform="translate(0)"/><path class="cls-5" d="M35.48,300.1A4.06,4.06,0,1,0,31.41,296a4.06,4.06,0,0,0,4.07,4.09" transform="translate(0)"/><path class="cls-5" d="M66.89,300.7a4.06,4.06,0,1,0-4.06-4.06h0a4.06,4.06,0,0,0,4.06,4.06" transform="translate(0)"/><path class="cls-5" d="M35.48,315.5a4.06,4.06,0,1,0-4.06-4.06h0a4.06,4.06,0,0,0,4.06,4.06" transform="translate(0)"/><path class="cls-5" d="M50.76,315.5a4.06,4.06,0,1,0-4.06-4.06h0a4.06,4.06,0,0,0,4.06,4.06" transform="translate(0)"/><path class="cls-5" d="M67.49,315.62a4.06,4.06,0,1,0-4.06-4.06h0a4.06,4.06,0,0,0,4.06,4.06" transform="translate(0)"/><path class="cls-5" d="M82,315.5a4.06,4.06,0,1,0-4-4.12v.06a4.06,4.06,0,0,0,4,4.06" transform="translate(0)"/><path class="cls-5" d="M98.06,347.4A4.06,4.06,0,1,0,94,343.34h0a4.06,4.06,0,0,0,4.06,4.06" transform="translate(0)"/><path class="cls-5" d="M82,362.56a4.06,4.06,0,1,0-4-4.12v.06a4.06,4.06,0,0,0,4,4.06" transform="translate(0)"/><path class="cls-5" d="M65.92,362.8a4.06,4.06,0,1,0-4.06-4.06h0a4.06,4.06,0,0,0,4.06,4.06" transform="translate(0)"/><path class="cls-5" d="M4.06,346.06A4.06,4.06,0,1,0,0,342H0a4.06,4.06,0,0,0,4.06,4.06" transform="translate(0)"/><path class="cls-5" d="M19.47,347.4a4.06,4.06,0,1,0-4.06-4.06h0a4.06,4.06,0,0,0,4.06,4.06" transform="translate(0)"/><path class="cls-5" d="M37,396.72a4.08,4.08,0,1,0-4.08-4.08h0A4.08,4.08,0,0,0,37,396.72" transform="translate(0)"/><path class="cls-5" d="M68.41,396.72a4.08,4.08,0,1,0-4.08-4.08h0a4.08,4.08,0,0,0,4.08,4.08" transform="translate(0)"/><path class="cls-5" d="M67.56,428.15a4.08,4.08,0,1,0-4.08-4.08h0a4.08,4.08,0,0,0,4.08,4.08" transform="translate(0)"/><path class="cls-5" d="M5.43,428.15a4.08,4.08,0,1,0-4.08-4.08h0a4.08,4.08,0,0,0,4.08,4.08" transform="translate(0)"/><path class="cls-5" d="M68.41,474.2a4.08,4.08,0,1,0-4.08-4.08h0a4.08,4.08,0,0,0,4.08,4.08" transform="translate(0)"/><path class="cls-5" d="M27,489.55a4.08,4.08,0,1,0-4.08-4.08h0A4.08,4.08,0,0,0,27,489.55" transform="translate(0)"/><path class="cls-5" d="M5.43,458.12A4.08,4.08,0,1,0,1.35,454a4.08,4.08,0,0,0,4.08,4.11" transform="translate(0)"/><path class="cls-5" d="M4.82,474.2a4.08,4.08,0,1,0-4.08-4.08h0a4.08,4.08,0,0,0,4.08,4.08" transform="translate(0)"/><path class="cls-5" d="M20.9,474.2a4.08,4.08,0,1,0-4.08-4.08h0a4.08,4.08,0,0,0,4.08,4.08" transform="translate(0)"/><path class="cls-5" d="M27.71,521a4.08,4.08,0,1,0-4.08-4.08A4.08,4.08,0,0,0,27.71,521h0" transform="translate(0)"/><path class="cls-5" d="M27.1,534.33a4.08,4.08,0,1,0-4.1-4.08,4.08,4.08,0,0,0,4.1,4.08h0" transform="translate(0)"/><path class="cls-5" d="M43.79,533.6a4.08,4.08,0,1,0-4.08-4.08,4.08,4.08,0,0,0,4.08,4.08h0" transform="translate(0)"/><path class="cls-5" d="M59.14,490.28a4.08,4.08,0,1,0-4.08-4.08h0a4.08,4.08,0,0,0,4.08,4.08" transform="translate(0)"/><path class="cls-5" d="M73.63,490.28a4.08,4.08,0,1,0-4.08-4.08h0a4.08,4.08,0,0,0,4.08,4.08" transform="translate(0)"/><path class="cls-5" d="M89.83,505.63a4.08,4.08,0,1,0-4.08-4.08,4.08,4.08,0,0,0,4.08,4.08h0" transform="translate(0)"/></g><rect class="cls-6" x="4" y="75.38" width="21.8" height="183.65"/><rect class="cls-6" x="4.1" y="286.99" width="21.8" height="183.52"/><rect class="cls-6" x="267.22" y="74.92" width="21.8" height="183.65"/><rect class="cls-6" x="267.31" y="286.53" width="21.8" height="183.51"/><polygon class="cls-6" points="68 74.24 48.56 82.88 136.06 273 148.39 248.79 68 74.24"/><polygon class="cls-6" points="228.78 74.24 148.39 248.79 160.72 273 248.22 82.88 228.78 74.24"/><polygon class="cls-6" points="48.56 463.13 68 471.77 148.39 297.22 136.06 273 48.56 463.13"/><polygon class="cls-6" points="148.39 297.22 228.78 471.77 248.22 463.13 160.72 273 148.39 297.22"/></svg>