<svg id="Layer_1" data-name="Layer 1" xmlns="http://www.w3.org/2000/svg" xmlns:xlink="http://www.w3.org/1999/xlink" viewBox="0 0 504 546"><defs><style>.cls-1{fill:none;}.cls-2{fill:#d7bdae;}.cls-3{clip-path:url(#clip-path);}.cls-4{clip-path:url(#clip-path-2);}.cls-5{fill:#2c3033;}.cls-6{fill:#fff;}.cls-7{clip-path:url(#clip-path-3);}.cls-8{clip-path:url(#clip-path-4);}.cls-9{clip-path:url(#clip-path-5);}</style><clipPath id="clip-path" transform="translate(0 0)"><rect class="cls-1" x="105.9" width="292.2" height="546"/></clipPath><clipPath id="clip-path-2" transform="translate(0 0)"><rect class="cls-1" x="105.8" width="292.4" height="546"/></clipPath><clipPath id="clip-path-3" transform="translate(0 0)"><rect class="cls-1" width="105.8" height="546"/></clipPath><clipPath id="clip-path-4" transform="translate(0 0)"><rect class="cls-1" x="398.1" width="105.9" height="546"/></clipPath><clipPath id="clip-path-5" transform="translate(0 0)"><rect class="cls-1" x="404.77" width="292.4" height="546"/></clipPath></defs><title>dots-med</title><rect id="SVGID" class="cls-2" x="105.9" width="292.2" height="546"/><g class="cls-3"><rect class="cls-2" x="108.1" y="6.9" width="287.8" height="537.7"/></g><g class="cls-4"><path class="cls-5" d="M253,128.1a3.8,3.8,0,1,0-3.9-3.8,3.88,3.88,0,0,0,3.9,3.8h0" transform="translate(0 0)"/><path class="cls-5" d="M223.6,84.2a3.8,3.8,0,1,0-3.8-3.8,3.8,3.8,0,0,0,3.8,3.8" transform="translate(0 0)"/><path class="cls-5" d="M223.2,172.5a3.85,3.85,0,1,0-3.8-3.9,3.88,3.88,0,0,0,3.8,3.9h0" transform="translate(0 0)"/><path class="cls-5" d="M252.9,158a3.82,3.82,0,0,0,3.8-3.9,3.76,3.76,0,0,0-3.9-3.8,3.8,3.8,0,0,0-3.8,3.8,4,4,0,0,0,3.9,3.9h0" transform="translate(0 0)"/><path class="cls-5" d="M267.9,127.8a3.82,3.82,0,0,0,3.8-3.9,3.76,3.76,0,0,0-3.9-3.8,3.8,3.8,0,0,0-3.8,3.8,4,4,0,0,0,3.9,3.9h0" transform="translate(0 0)"/><path class="cls-5" d="M282.9,143.5a3.82,3.82,0,0,0,3.8-3.9,3.76,3.76,0,0,0-3.9-3.8,3.8,3.8,0,0,0-3.8,3.8,4,4,0,0,0,3.9,3.9h0" transform="translate(0 0)"/><path class="cls-5" d="M269.4,40.7a3.82,3.82,0,0,0,3.8-3.9,3.76,3.76,0,0,0-3.9-3.8,3.8,3.8,0,0,0-3.8,3.8,3.9,3.9,0,0,0,3.9,3.9h0" transform="translate(0 0)"/><path class="cls-5" d="M282.6,69.2a3.82,3.82,0,0,0,3.8-3.9,3.76,3.76,0,0,0-3.9-3.8,3.8,3.8,0,0,0-3.8,3.8,4,4,0,0,0,3.9,3.9h0" transform="translate(0 0)"/><path class="cls-5" d="M297.5,69.8a3.82,3.82,0,0,0,3.8-3.9,3.76,3.76,0,0,0-3.9-3.8,3.8,3.8,0,0,0-3.8,3.8,4,4,0,0,0,3.9,3.9h0" transform="translate(0 0)"/><path class="cls-5" d="M342,7.7a3.82,3.82,0,0,0,3.8-3.9A3.74,3.74,0,0,0,342,0a3.82,3.82,0,0,0-3.8,3.9A3.74,3.74,0,0,0,342,7.7h0" transform="translate(0 0)"/><path class="cls-5" d="M356.6,7.8a3.82,3.82,0,0,0,3.8-3.9A3.76,3.76,0,0,0,356.5.1,3.82,3.82,0,0,0,352.7,4h0a3.82,3.82,0,0,0,3.9,3.8h0" transform="translate(0 0)"/><path class="cls-5" d="M341.5,27a3.82,3.82,0,0,0,3.8-3.9,3.85,3.85,0,1,0-7.7.1,4,4,0,0,0,3.9,3.8h0" transform="translate(0 0)"/><path class="cls-5" d="M342.1,41.6a3.82,3.82,0,0,0,3.8-3.9,3.76,3.76,0,0,0-3.9-3.8,3.8,3.8,0,0,0-3.8,3.8,4,4,0,0,0,3.9,3.9h0" transform="translate(0 0)"/><path class="cls-5" d="M357.4,42.1a3.9,3.9,0,0,0,3.9-3.9,3.82,3.82,0,0,0-3.9-3.8,3.85,3.85,0,1,0,0,7.7h0" transform="translate(0 0)"/><path class="cls-5" d="M342.5,79.4a3.82,3.82,0,0,0,3.8-3.9,3.76,3.76,0,0,0-3.9-3.8,3.8,3.8,0,0,0-3.8,3.8,3.9,3.9,0,0,0,3.9,3.9h0" transform="translate(0 0)"/><path class="cls-5" d="M359.1,79.4a3.9,3.9,0,0,0,3.9-3.9,3.82,3.82,0,0,0-3.9-3.8,3.88,3.88,0,0,0-3.9,3.8,4,4,0,0,0,3.9,3.9h0" transform="translate(0 0)"/><path class="cls-5" d="M341.5,127.6a3.82,3.82,0,0,0,3.8-3.9,3.76,3.76,0,0,0-3.9-3.8,3.8,3.8,0,0,0-3.8,3.8,4,4,0,0,0,3.9,3.9h0" transform="translate(0 0)"/><path class="cls-5" d="M359.1,128.1a3.88,3.88,0,0,0,3.9-3.8,3.82,3.82,0,0,0-3.9-3.8,3.8,3.8,0,1,0,0,7.6h0" transform="translate(0 0)"/><path class="cls-5" d="M376.3,112.1a3.9,3.9,0,0,0,3.9-3.9,3.82,3.82,0,0,0-3.9-3.8,3.88,3.88,0,0,0-3.9,3.8,4,4,0,0,0,3.9,3.9h0" transform="translate(0 0)"/><path class="cls-5" d="M393.5,112.1a3.9,3.9,0,0,0,3.9-3.9,3.82,3.82,0,0,0-3.9-3.8,3.88,3.88,0,0,0-3.9,3.8,4,4,0,0,0,3.9,3.9h0" transform="translate(0 0)"/><path class="cls-5" d="M376.3,95.8a3.9,3.9,0,0,0,3.9-3.9,3.82,3.82,0,0,0-3.9-3.8,3.88,3.88,0,0,0-3.9,3.8,4,4,0,0,0,3.9,3.9h0" transform="translate(0 0)"/><path class="cls-5" d="M375.9,69.4a3.9,3.9,0,0,0,3.9-3.9,3.82,3.82,0,0,0-3.9-3.8,3.88,3.88,0,0,0-3.9,3.8,4,4,0,0,0,3.9,3.9h0" transform="translate(0 0)"/><path class="cls-5" d="M394.3,70.2a3.9,3.9,0,0,0,3.9-3.9,3.82,3.82,0,0,0-3.9-3.8,3.88,3.88,0,0,0-3.9,3.8,4,4,0,0,0,3.9,3.9h0" transform="translate(0 0)"/><path class="cls-5" d="M346,168.7a4.12,4.12,0,0,0,4.1-4.1,4.1,4.1,0,0,0-8.2,0h0a4.26,4.26,0,0,0,4.1,4.1" transform="translate(0 0)"/><path class="cls-5" d="M254.2,213.2a4.12,4.12,0,0,0,4.1-4.1,4.1,4.1,0,0,0-8.2,0h0a4.18,4.18,0,0,0,4.1,4.1" transform="translate(0 0)"/><path class="cls-5" d="M285.5,199.3a4.12,4.12,0,0,0,4.1-4.1,4.1,4.1,0,1,0-8.2,0h0a4.18,4.18,0,0,0,4.1,4.1" transform="translate(0 0)"/><path class="cls-5" d="M347.5,184.2a4.12,4.12,0,0,0,4.1-4.1,4.1,4.1,0,0,0-8.2,0h0a4.12,4.12,0,0,0,4.1,4.1" transform="translate(0 0)"/><path class="cls-5" d="M363.4,183.3a4.12,4.12,0,0,0,4.1-4.1,4.1,4.1,0,1,0-8.2,0h0a4.06,4.06,0,0,0,4.1,4.1" transform="translate(0 0)"/><path class="cls-5" d="M379.4,199.3a4.12,4.12,0,0,0,4.1-4.1,4.1,4.1,0,1,0-8.2,0h0a4.12,4.12,0,0,0,4.1,4.1" transform="translate(0 0)"/><path class="cls-5" d="M378.7,215.6a4.12,4.12,0,0,0,4.1-4.1,4.1,4.1,0,0,0-8.2,0h0a4.06,4.06,0,0,0,4.1,4.1" transform="translate(0 0)"/><path class="cls-5" d="M315.8,229.9a4.12,4.12,0,0,0,4.1-4.1,4.1,4.1,0,0,0-8.2,0h0a4.12,4.12,0,0,0,4.1,4.1" transform="translate(0 0)"/><path class="cls-5" d="M316.1,276.5a4.12,4.12,0,0,0,4.1-4.1,4.1,4.1,0,1,0-8.2,0h0a4.06,4.06,0,0,0,4.1,4.1" transform="translate(0 0)"/><path class="cls-5" d="M285.2,246.2a4.12,4.12,0,0,0,4.1-4.1,4.1,4.1,0,0,0-8.2,0h0a4.12,4.12,0,0,0,4.1,4.1" transform="translate(0 0)"/><path class="cls-5" d="M223.1,229.9a4.1,4.1,0,1,0-4.1-4.1h0a4.06,4.06,0,0,0,4.1,4.1" transform="translate(0 0)"/><path class="cls-5" d="M223.1,245.1a4,4,0,0,0,4-4.1,4.12,4.12,0,0,0-4.1-4.1,4.1,4.1,0,1,0,.1,8.2" transform="translate(0 0)"/><path class="cls-5" d="M238.4,245.1a4.12,4.12,0,0,0,4.1-4.1,4.1,4.1,0,0,0-8.2,0h0a4.06,4.06,0,0,0,4.1,4.1" transform="translate(0 0)"/><path class="cls-5" d="M254.2,260.5a4.1,4.1,0,1,0,0-8.2,4.06,4.06,0,0,0-4.1,4.1h0a4.18,4.18,0,0,0,4.1,4.1" transform="translate(0 0)"/><path class="cls-5" d="M253.4,276.5a4.12,4.12,0,0,0,4.1-4.1,4.1,4.1,0,1,0-8.2,0h0a4.06,4.06,0,0,0,4.1,4.1" transform="translate(0 0)"/><path class="cls-5" d="M270.2,276.5a4.12,4.12,0,0,0,4.1-4.1,4.1,4.1,0,0,0-8.2,0h0a4.18,4.18,0,0,0,4.1,4.1" transform="translate(0 0)"/><path class="cls-5" d="M285.5,291.8a4.12,4.12,0,0,0,4.1-4.1,4.1,4.1,0,1,0-8.2,0h0a4.26,4.26,0,0,0,4.1,4.1" transform="translate(0 0)"/><path class="cls-5" d="M284.1,307.9a4.12,4.12,0,0,0,4.1-4.1,4.1,4.1,0,0,0-8.2,0h0a4.06,4.06,0,0,0,4.1,4.1" transform="translate(0 0)"/><path class="cls-5" d="M300.8,308.5a4.12,4.12,0,0,0,4.1-4.1,4.1,4.1,0,0,0-8.2,0h0a4.12,4.12,0,0,0,4.1,4.1" transform="translate(0 0)"/><path class="cls-5" d="M363.4,323a4.12,4.12,0,0,0,4.1-4.1,4.1,4.1,0,1,0-8.2,0h0a4.06,4.06,0,0,0,4.1,4.1" transform="translate(0 0)"/><path class="cls-5" d="M315.2,339.7a4.12,4.12,0,0,0,4.1-4.1,4.1,4.1,0,0,0-8.2,0h0a4.18,4.18,0,0,0,4.1,4.1" transform="translate(0 0)"/><path class="cls-5" d="M268.8,323a4.12,4.12,0,0,0,4.1-4.1,4.1,4.1,0,0,0-8.2,0h0a4.12,4.12,0,0,0,4.1,4.1" transform="translate(0 0)"/><path class="cls-5" d="M253.4,323.8a4.12,4.12,0,0,0,4.1-4.1,4.1,4.1,0,1,0-8.2,0h0a4.06,4.06,0,0,0,4.1,4.1" transform="translate(0 0)"/><path class="cls-5" d="M222.9,338.3a4.1,4.1,0,1,0-4.1-4.1h0a4.18,4.18,0,0,0,4.1,4.1" transform="translate(0 0)"/><path class="cls-5" d="M237.5,338.3a4.12,4.12,0,0,0,4.1-4.1,4.1,4.1,0,1,0-8.2,0h0a4.12,4.12,0,0,0,4.1,4.1" transform="translate(0 0)"/><path class="cls-5" d="M379.9,358.3a4,4,0,0,0,4-4.1,4.1,4.1,0,0,0-4.1-4,4.05,4.05,0,0,0,.1,8.1" transform="translate(0 0)"/><path class="cls-5" d="M348.1,373.8a4.1,4.1,0,1,0-4.1-4.1h0a4.19,4.19,0,0,0,4.1,4.1" transform="translate(0 0)"/><path class="cls-5" d="M364.7,373.8a4.1,4.1,0,1,0-4.1-4.1h0a4.12,4.12,0,0,0,4.1,4.1" transform="translate(0 0)"/><path class="cls-5" d="M254.3,357.6a4.1,4.1,0,1,0-4.1-4.1h0a4.19,4.19,0,0,0,4.1,4.1" transform="translate(0 0)"/><path class="cls-5" d="M253.9,373.3a4.1,4.1,0,1,0-4.1-4.1h0a4.18,4.18,0,0,0,4.1,4.1" transform="translate(0 0)"/><path class="cls-5" d="M269.7,372.8a4.1,4.1,0,1,0-4.1-4.1h0a4.06,4.06,0,0,0,4.1,4.1" transform="translate(0 0)"/><path class="cls-5" d="M285.1,388.8a4.1,4.1,0,1,0-4.1-4.1h0a4.19,4.19,0,0,0,4.1,4.1" transform="translate(0 0)"/><path class="cls-5" d="M379.9,405a4.1,4.1,0,1,0-4.1-4.1h0a4.19,4.19,0,0,0,4.1,4.1" transform="translate(0 0)"/><path class="cls-5" d="M347.9,420.4a4.1,4.1,0,1,0-4.1-4.1h0a4.06,4.06,0,0,0,4.1,4.1" transform="translate(0 0)"/><path class="cls-5" d="M363.8,420.4a4.1,4.1,0,1,0-4.1-4.1h0a4.06,4.06,0,0,0,4.1,4.1" transform="translate(0 0)"/><path class="cls-5" d="M347.7,435.8a4.1,4.1,0,1,0-4.1-4.1h0a4.26,4.26,0,0,0,4.1,4.1" transform="translate(0 0)"/><path class="cls-5" d="M348.4,451.1a4.1,4.1,0,1,0-4.1-4.1h0a4.06,4.06,0,0,0,4.1,4.1" transform="translate(0 0)"/><path class="cls-5" d="M363.9,451.7a4.1,4.1,0,1,0-4.1-4.1h0a4.18,4.18,0,0,0,4.1,4.1" transform="translate(0 0)"/><path class="cls-5" d="M252.7,435.8a4.1,4.1,0,1,0-4.1-4.1h0a4.19,4.19,0,0,0,4.1,4.1" transform="translate(0 0)"/><path class="cls-5" d="M253.5,450.4a4.1,4.1,0,1,0-4.1-4.1h0a4.06,4.06,0,0,0,4.1,4.1" transform="translate(0 0)"/><path class="cls-5" d="M268.8,451.1a4.1,4.1,0,1,0-4.1-4.1h0a4.06,4.06,0,0,0,4.1,4.1" transform="translate(0 0)"/><path class="cls-5" d="M277.2,481.8a4.1,4.1,0,1,0-4.1-4.1h0a4.06,4.06,0,0,0,4.1,4.1" transform="translate(0 0)"/><path class="cls-5" d="M292.3,481.6a4.1,4.1,0,1,0-4.1-4.1h0a4.06,4.06,0,0,0,4.1,4.1" transform="translate(0 0)"/><path class="cls-5" d="M370.6,482.6a4.1,4.1,0,1,0-4.1-4.1h0a4.26,4.26,0,0,0,4.1,4.1" transform="translate(0 0)"/><path class="cls-5" d="M385.3,482.6a4.1,4.1,0,1,0-4.1-4.1h0a4.12,4.12,0,0,0,4.1,4.1" transform="translate(0 0)"/><path class="cls-5" d="M338.5,497.9a4.1,4.1,0,1,0-4.1-4.1h0a4.06,4.06,0,0,0,4.1,4.1" transform="translate(0 0)"/><path class="cls-5" d="M354.4,497.9a4.1,4.1,0,1,0-4.1-4.1h0a4.18,4.18,0,0,0,4.1,4.1" transform="translate(0 0)"/><path class="cls-5" d="M213.5,497.7a4.1,4.1,0,1,0-4.1-4.1h0a4.12,4.12,0,0,0,4.1,4.1" transform="translate(0 0)"/><path class="cls-5" d="M276,512.5a4.1,4.1,0,1,0-4.1-4.1,4.06,4.06,0,0,0,4.1,4.1h0" transform="translate(0 0)"/><path class="cls-5" d="M276.3,525.9a4.1,4.1,0,1,0-4.1-4.1,4.12,4.12,0,0,0,4.1,4.1h0" transform="translate(0 0)"/><path class="cls-5" d="M244.2,546a4.1,4.1,0,1,0-4.1-4.1,4.06,4.06,0,0,0,4.1,4.1h0" transform="translate(0 0)"/><path class="cls-5" d="M260.4,545.9a4.1,4.1,0,1,0-4.1-4.1,4.06,4.06,0,0,0,4.1,4.1h0" transform="translate(0 0)"/><path class="cls-5" d="M291.3,527.5a4.1,4.1,0,1,0-4.1-4.1,4.12,4.12,0,0,0,4.1,4.1h0" transform="translate(0 0)"/><path class="cls-5" d="M371.4,512.5a4.1,4.1,0,1,0-4.1-4.1,4.06,4.06,0,0,0,4.1,4.1h0" transform="translate(0 0)"/><path class="cls-5" d="M369.8,527.2a4.1,4.1,0,1,0-4.1-4.1,4.06,4.06,0,0,0,4.1,4.1h0" transform="translate(0 0)"/><path class="cls-5" d="M386.7,526.6a4.1,4.1,0,1,0-4.1-4.1,4.12,4.12,0,0,0,4.1,4.1h0" transform="translate(0 0)"/><path class="cls-5" d="M338.5,545.3a4.1,4.1,0,1,0-4.1-4.1,4.06,4.06,0,0,0,4.1,4.1h0" transform="translate(0 0)"/><path class="cls-5" d="M354.6,545.2a4.1,4.1,0,1,0-4.1-4.1,4.06,4.06,0,0,0,4.1,4.1h0" transform="translate(0 0)"/><path class="cls-5" d="M110.3,14.8a3.9,3.9,0,0,0,3.9-3.9,3.85,3.85,0,1,0-3.9,3.9h0" transform="translate(0 0)"/><path class="cls-5" d="M110.8,50.3a3.88,3.88,0,0,0,3.9-3.8,4,4,0,0,0-3.9-3.9,3.82,3.82,0,0,0-3.8,3.9h0a3.8,3.8,0,0,0,3.8,3.8" transform="translate(0 0)"/><path class="cls-5" d="M110.3,65a3.88,3.88,0,0,0,3.9-3.8,3.82,3.82,0,0,0-3.9-3.8,3.68,3.68,0,0,0-3.8,3.8h0a3.8,3.8,0,0,0,3.8,3.8" transform="translate(0 0)"/><path class="cls-5" d="M128.3,65.7a3.88,3.88,0,0,0,3.9-3.8,4,4,0,0,0-3.9-3.9,3.88,3.88,0,0,0-3.9,3.8h0a4,4,0,0,0,3.9,3.9" transform="translate(0 0)"/><path class="cls-5" d="M170.3,15.1a4,4,0,1,0-4-4,4,4,0,0,0,4,4" transform="translate(0 0)"/><path class="cls-5" d="M140.8,80.5a4,4,0,1,0-4-4,4,4,0,0,0,4,4" transform="translate(0 0)"/><path class="cls-5" d="M174.1,80.6a4,4,0,1,0-4-4,4,4,0,0,0,4,4" transform="translate(0 0)"/><path class="cls-5" d="M189.7,80.4a4,4,0,1,0-4-4,4,4,0,0,0,4,4" transform="translate(0 0)"/><path class="cls-5" d="M205.4,95.1a4,4,0,1,0-4-4,4,4,0,0,0,4,4" transform="translate(0 0)"/><path class="cls-5" d="M175.4,111.3a4,4,0,1,0-4-4,4,4,0,0,0,4,4" transform="translate(0 0)"/><path class="cls-5" d="M156,126.5a4,4,0,1,0-4-4,4,4,0,0,0,4,4" transform="translate(0 0)"/><path class="cls-5" d="M174.4,126.5a4,4,0,1,0-4-4,4,4,0,0,0,4,4" transform="translate(0 0)"/><path class="cls-5" d="M192.5,126.5a4,4,0,1,0-4-4,4,4,0,0,0,4,4" transform="translate(0 0)"/><path class="cls-5" d="M140.3,161.2a4.12,4.12,0,0,0,4.1-4.1,4.1,4.1,0,1,0-8.2,0h0a4.12,4.12,0,0,0,4.1,4.1" transform="translate(0 0)"/><path class="cls-5" d="M172.2,160.5a4.1,4.1,0,1,0-4.1-4.1h0a4.12,4.12,0,0,0,4.1,4.1" transform="translate(0 0)"/><path class="cls-5" d="M171.2,176.4a4.1,4.1,0,1,0-4.1-4.1h0a4.18,4.18,0,0,0,4.1,4.1" transform="translate(0 0)"/><path class="cls-5" d="M187.2,175.8a4.1,4.1,0,1,0-4.1-4.1h0a4.18,4.18,0,0,0,4.1,4.1" transform="translate(0 0)"/><path class="cls-5" d="M142,207.1a4.12,4.12,0,0,0,4.1-4.1,4.1,4.1,0,1,0-8.2,0h0a4.12,4.12,0,0,0,4.1,4.1" transform="translate(0 0)"/><path class="cls-5" d="M173.3,207.9a4.1,4.1,0,1,0-4.1-4.1h0a4.06,4.06,0,0,0,4.1,4.1" transform="translate(0 0)"/><path class="cls-5" d="M204.5,191.8a4.1,4.1,0,1,0-4.1-4.1h0a4.06,4.06,0,0,0,4.1,4.1" transform="translate(0 0)"/><path class="cls-5" d="M110.1,239.1A4.05,4.05,0,1,0,106,235a4.12,4.12,0,0,0,4.1,4.1" transform="translate(0 0)"/><path class="cls-5" d="M141.3,254.4a4.12,4.12,0,0,0,4.1-4.1,4.1,4.1,0,1,0-8.2,0h0a4.06,4.06,0,0,0,4.1,4.1" transform="translate(0 0)"/><path class="cls-5" d="M203.9,238.2a4.1,4.1,0,1,0-4.1-4.1h0a4.06,4.06,0,0,0,4.1,4.1" transform="translate(0 0)"/><path class="cls-5" d="M204.5,253.7a4.1,4.1,0,1,0-4.1-4.1h0a4.12,4.12,0,0,0,4.1,4.1" transform="translate(0 0)"/><path class="cls-5" d="M110,284.2a4.12,4.12,0,0,0,4.1-4.1,4.1,4.1,0,1,0-8.2,0h0a4.06,4.06,0,0,0,4.1,4.1" transform="translate(0 0)"/><path class="cls-5" d="M141.3,300.1a4.05,4.05,0,1,0-4.1-4.1,4.06,4.06,0,0,0,4.1,4.1" transform="translate(0 0)"/><path class="cls-5" d="M172.7,300.7a4.1,4.1,0,1,0-4.1-4.1h0a4.06,4.06,0,0,0,4.1,4.1" transform="translate(0 0)"/><path class="cls-5" d="M141.3,315.5a4.12,4.12,0,0,0,4.1-4.1,4.1,4.1,0,1,0-8.2,0h0a4.06,4.06,0,0,0,4.1,4.1" transform="translate(0 0)"/><path class="cls-5" d="M156.6,315.5a4.12,4.12,0,0,0,4.1-4.1,4.1,4.1,0,1,0-8.2,0h0a4.06,4.06,0,0,0,4.1,4.1" transform="translate(0 0)"/><path class="cls-5" d="M173.3,315.6a4.1,4.1,0,1,0-4.1-4.1h0a4.06,4.06,0,0,0,4.1,4.1" transform="translate(0 0)"/><path class="cls-5" d="M187.8,315.5a4.05,4.05,0,1,0-4-4.1v.1a4,4,0,0,0,4,4" transform="translate(0 0)"/><path class="cls-5" d="M203.9,347.4a4.1,4.1,0,1,0-4.1-4.1h0a4.06,4.06,0,0,0,4.1,4.1" transform="translate(0 0)"/><path class="cls-5" d="M187.8,362.6a4.05,4.05,0,1,0-4-4.1v.1a4.15,4.15,0,0,0,4,4" transform="translate(0 0)"/><path class="cls-5" d="M171.7,362.8a4.1,4.1,0,1,0-4.1-4.1h0a4.18,4.18,0,0,0,4.1,4.1" transform="translate(0 0)"/><path class="cls-5" d="M109.9,346.1a4.1,4.1,0,1,0-4.1-4.1h0a4.06,4.06,0,0,0,4.1,4.1" transform="translate(0 0)"/><path class="cls-5" d="M125.3,347.4a4.1,4.1,0,0,0,0-8.2,4.06,4.06,0,0,0-4.1,4.1h0a4.06,4.06,0,0,0,4.1,4.1" transform="translate(0 0)"/><path class="cls-5" d="M142.8,396.7a4.1,4.1,0,1,0-4.1-4.1h0a4.06,4.06,0,0,0,4.1,4.1" transform="translate(0 0)"/><path class="cls-5" d="M174.2,396.7a4.1,4.1,0,1,0-4.1-4.1h0a4.12,4.12,0,0,0,4.1,4.1" transform="translate(0 0)"/><path class="cls-5" d="M173.4,428.2a4.1,4.1,0,1,0-4.1-4.1h0a4.12,4.12,0,0,0,4.1,4.1" transform="translate(0 0)"/><path class="cls-5" d="M111.2,428.2a4.1,4.1,0,1,0-4.1-4.1h0a4.26,4.26,0,0,0,4.1,4.1" transform="translate(0 0)"/><path class="cls-5" d="M174.2,474.2a4.1,4.1,0,1,0-4.1-4.1h0a4.12,4.12,0,0,0,4.1,4.1" transform="translate(0 0)"/><path class="cls-5" d="M132.8,489.6a4.1,4.1,0,1,0-4.1-4.1h0a4.12,4.12,0,0,0,4.1,4.1" transform="translate(0 0)"/><path class="cls-5" d="M111.2,458.1a4.06,4.06,0,0,0,4.1-4.1,4,4,0,0,0-4.1-4,4.12,4.12,0,0,0-4.1,4.1,4.17,4.17,0,0,0,4.1,4" transform="translate(0 0)"/><path class="cls-5" d="M110.6,474.2a4.1,4.1,0,1,0-4.1-4.1h0a4.12,4.12,0,0,0,4.1,4.1" transform="translate(0 0)"/><path class="cls-5" d="M126.7,474.2a4.1,4.1,0,1,0-4.1-4.1h0a4.06,4.06,0,0,0,4.1,4.1" transform="translate(0 0)"/><path class="cls-5" d="M133.5,521a4.1,4.1,0,1,0-4.1-4.1,4.12,4.12,0,0,0,4.1,4.1h0" transform="translate(0 0)"/><path class="cls-5" d="M132.9,534.3a4.1,4.1,0,1,0,0-8.2,4.12,4.12,0,0,0-4.1,4.1,4.06,4.06,0,0,0,4.1,4.1h0" transform="translate(0 0)"/><path class="cls-5" d="M149.6,533.6a4.1,4.1,0,1,0-4.1-4.1,4.06,4.06,0,0,0,4.1,4.1h0" transform="translate(0 0)"/><path class="cls-5" d="M164.9,490.3a4.1,4.1,0,1,0-4.1-4.1h0a4.18,4.18,0,0,0,4.1,4.1" transform="translate(0 0)"/><path class="cls-5" d="M179.4,490.3a4.1,4.1,0,1,0-4.1-4.1h0a4.18,4.18,0,0,0,4.1,4.1" transform="translate(0 0)"/><path class="cls-5" d="M195.6,505.6a4.1,4.1,0,1,0-4.1-4.1,4.12,4.12,0,0,0,4.1,4.1h0" transform="translate(0 0)"/></g><rect class="cls-6" x="109.8" y="75.4" width="21.8" height="183.7"/><rect class="cls-6" x="109.9" y="287" width="21.8" height="183.5"/><rect class="cls-6" x="373" y="74.9" width="21.8" height="183.7"/><rect class="cls-6" x="373.1" y="286.5" width="21.8" height="183.5"/><polygon class="cls-6" points="173.8 74.2 154.4 82.9 241.9 273 254.2 248.8 173.8 74.2"/><polygon class="cls-6" points="334.6 74.2 254.2 248.8 266.5 273 354 82.9 334.6 74.2"/><polygon class="cls-6" points="154.4 463.1 173.8 471.8 254.2 297.2 241.9 273 154.4 463.1"/><polygon class="cls-6" points="254.2 297.2 334.6 471.8 354 463.1 266.5 273 254.2 297.2"/><rect id="SVGID-2" data-name="SVGID" class="cls-2" width="105.8" height="546"/><g class="cls-7"><rect class="cls-2" x="0.8" y="6.9" width="104.21" height="537.7"/></g><rect id="SVGID-3" data-name="SVGID" class="cls-2" x="398.1" width="105.9" height="546"/><g class="cls-8"><rect class="cls-2" x="398.9" y="6.9" width="104.31" height="537.7"/></g><g class="cls-9"><path class="cls-5" d="M409.27,14.8a3.9,3.9,0,0,0,3.9-3.9,3.85,3.85,0,1,0-3.9,3.9h0" transform="translate(0 0)"/><path class="cls-5" d="M409.77,50.3a3.88,3.88,0,0,0,3.9-3.8,4,4,0,0,0-3.9-3.9,3.82,3.82,0,0,0-3.8,3.9h0a3.8,3.8,0,0,0,3.8,3.8" transform="translate(0 0)"/><path class="cls-5" d="M409.27,65a3.88,3.88,0,0,0,3.9-3.8,3.82,3.82,0,0,0-3.9-3.8,3.68,3.68,0,0,0-3.8,3.8h0a3.8,3.8,0,0,0,3.8,3.8" transform="translate(0 0)"/><path class="cls-5" d="M427.27,65.7a3.88,3.88,0,0,0,3.9-3.8,4,4,0,0,0-3.9-3.9,3.88,3.88,0,0,0-3.9,3.8h0a4,4,0,0,0,3.9,3.9" transform="translate(0 0)"/><path class="cls-5" d="M469.27,15.1a4,4,0,1,0-4-4,4,4,0,0,0,4,4" transform="translate(0 0)"/><path class="cls-5" d="M439.77,80.5a4,4,0,1,0-4-4,4,4,0,0,0,4,4" transform="translate(0 0)"/><path class="cls-5" d="M473.07,80.6a4,4,0,1,0-4-4,4,4,0,0,0,4,4" transform="translate(0 0)"/><path class="cls-5" d="M488.67,80.4a4,4,0,1,0-4-4,4,4,0,0,0,4,4" transform="translate(0 0)"/><path class="cls-5" d="M474.37,111.3a4,4,0,1,0-4-4,4,4,0,0,0,4,4" transform="translate(0 0)"/><path class="cls-5" d="M455,126.5a4,4,0,1,0-4-4,4,4,0,0,0,4,4" transform="translate(0 0)"/><path class="cls-5" d="M473.37,126.5a4,4,0,1,0-4-4,4,4,0,0,0,4,4" transform="translate(0 0)"/><path class="cls-5" d="M491.47,126.5a4,4,0,1,0-4-4,4,4,0,0,0,4,4" transform="translate(0 0)"/><path class="cls-5" d="M439.27,161.2a4.12,4.12,0,0,0,4.1-4.1,4.1,4.1,0,1,0-8.2,0h0a4.12,4.12,0,0,0,4.1,4.1" transform="translate(0 0)"/><path class="cls-5" d="M471.17,160.5a4.1,4.1,0,1,0-4.1-4.1h0a4.12,4.12,0,0,0,4.1,4.1" transform="translate(0 0)"/><path class="cls-5" d="M470.17,176.4a4.1,4.1,0,1,0-4.1-4.1h0a4.18,4.18,0,0,0,4.1,4.1" transform="translate(0 0)"/><path class="cls-5" d="M486.17,175.8a4.1,4.1,0,1,0-4.1-4.1h0a4.18,4.18,0,0,0,4.1,4.1" transform="translate(0 0)"/><path class="cls-5" d="M441,207.1a4.12,4.12,0,0,0,4.1-4.1,4.1,4.1,0,1,0-8.2,0h0a4.12,4.12,0,0,0,4.1,4.1" transform="translate(0 0)"/><path class="cls-5" d="M472.27,207.9a4.1,4.1,0,1,0-4.1-4.1h0a4.06,4.06,0,0,0,4.1,4.1" transform="translate(0 0)"/><path class="cls-5" d="M409.07,239.1A4.05,4.05,0,1,0,405,235a4.12,4.12,0,0,0,4.1,4.1" transform="translate(0 0)"/><path class="cls-5" d="M440.27,254.4a4.12,4.12,0,0,0,4.1-4.1,4.1,4.1,0,1,0-8.2,0h0a4.06,4.06,0,0,0,4.1,4.1" transform="translate(0 0)"/><path class="cls-5" d="M409,284.2a4.12,4.12,0,0,0,4.1-4.1,4.1,4.1,0,1,0-8.2,0h0a4.06,4.06,0,0,0,4.1,4.1" transform="translate(0 0)"/><path class="cls-5" d="M440.27,300.1a4.05,4.05,0,1,0-4.1-4.1,4.06,4.06,0,0,0,4.1,4.1" transform="translate(0 0)"/><path class="cls-5" d="M471.67,300.7a4.1,4.1,0,1,0-4.1-4.1h0a4.06,4.06,0,0,0,4.1,4.1" transform="translate(0 0)"/><path class="cls-5" d="M440.27,315.5a4.12,4.12,0,0,0,4.1-4.1,4.1,4.1,0,1,0-8.2,0h0a4.06,4.06,0,0,0,4.1,4.1" transform="translate(0 0)"/><path class="cls-5" d="M455.57,315.5a4.12,4.12,0,0,0,4.1-4.1,4.1,4.1,0,1,0-8.2,0h0a4.06,4.06,0,0,0,4.1,4.1" transform="translate(0 0)"/><path class="cls-5" d="M472.27,315.6a4.1,4.1,0,1,0-4.1-4.1h0a4.06,4.06,0,0,0,4.1,4.1" transform="translate(0 0)"/><path class="cls-5" d="M486.77,315.5a4.05,4.05,0,1,0-4-4.1v.1a4,4,0,0,0,4,4" transform="translate(0 0)"/><path class="cls-5" d="M486.77,362.6a4.05,4.05,0,1,0-4-4.1v.1a4.15,4.15,0,0,0,4,4" transform="translate(0 0)"/><path class="cls-5" d="M470.67,362.8a4.1,4.1,0,1,0-4.1-4.1h0a4.18,4.18,0,0,0,4.1,4.1" transform="translate(0 0)"/><path class="cls-5" d="M408.87,346.1a4.1,4.1,0,1,0-4.1-4.1h0a4.06,4.06,0,0,0,4.1,4.1" transform="translate(0 0)"/><path class="cls-5" d="M424.27,347.4a4.1,4.1,0,0,0,0-8.2,4.06,4.06,0,0,0-4.1,4.1h0a4.06,4.06,0,0,0,4.1,4.1" transform="translate(0 0)"/><path class="cls-5" d="M441.77,396.7a4.1,4.1,0,1,0-4.1-4.1h0a4.06,4.06,0,0,0,4.1,4.1" transform="translate(0 0)"/><path class="cls-5" d="M473.17,396.7a4.1,4.1,0,1,0-4.1-4.1h0a4.12,4.12,0,0,0,4.1,4.1" transform="translate(0 0)"/><path class="cls-5" d="M472.37,428.2a4.1,4.1,0,1,0-4.1-4.1h0a4.12,4.12,0,0,0,4.1,4.1" transform="translate(0 0)"/><path class="cls-5" d="M410.17,428.2a4.1,4.1,0,1,0-4.1-4.1h0a4.26,4.26,0,0,0,4.1,4.1" transform="translate(0 0)"/><path class="cls-5" d="M473.17,474.2a4.1,4.1,0,1,0-4.1-4.1h0a4.12,4.12,0,0,0,4.1,4.1" transform="translate(0 0)"/><path class="cls-5" d="M431.77,489.6a4.1,4.1,0,1,0-4.1-4.1h0a4.12,4.12,0,0,0,4.1,4.1" transform="translate(0 0)"/><path class="cls-5" d="M410.17,458.1a4.06,4.06,0,0,0,4.1-4.1,4,4,0,0,0-4.1-4,4.12,4.12,0,0,0-4.1,4.1,4.17,4.17,0,0,0,4.1,4" transform="translate(0 0)"/><path class="cls-5" d="M409.57,474.2a4.1,4.1,0,1,0-4.1-4.1h0a4.12,4.12,0,0,0,4.1,4.1" transform="translate(0 0)"/><path class="cls-5" d="M425.67,474.2a4.1,4.1,0,1,0-4.1-4.1h0a4.06,4.06,0,0,0,4.1,4.1" transform="translate(0 0)"/><path class="cls-5" d="M432.47,521a4.1,4.1,0,1,0-4.1-4.1,4.12,4.12,0,0,0,4.1,4.1h0" transform="translate(0 0)"/><path class="cls-5" d="M431.87,534.3a4.1,4.1,0,1,0,0-8.2,4.12,4.12,0,0,0-4.1,4.1,4.06,4.06,0,0,0,4.1,4.1h0" transform="translate(0 0)"/><path class="cls-5" d="M448.57,533.6a4.1,4.1,0,1,0-4.1-4.1,4.06,4.06,0,0,0,4.1,4.1h0" transform="translate(0 0)"/><path class="cls-5" d="M463.87,490.3a4.1,4.1,0,1,0-4.1-4.1h0a4.18,4.18,0,0,0,4.1,4.1" transform="translate(0 0)"/><path class="cls-5" d="M478.37,490.3a4.1,4.1,0,1,0-4.1-4.1h0a4.18,4.18,0,0,0,4.1,4.1" transform="translate(0 0)"/><path class="cls-5" d="M494.57,505.6a4.1,4.1,0,1,0-4.1-4.1,4.12,4.12,0,0,0,4.1,4.1h0" transform="translate(0 0)"/></g><path class="cls-5" d="M41.5,7.7a3.82,3.82,0,0,0,3.8-3.9A3.74,3.74,0,0,0,41.5,0a3.82,3.82,0,0,0-3.8,3.9,3.74,3.74,0,0,0,3.8,3.8h0" transform="translate(0 0)"/><path class="cls-5" d="M56.1,7.8a3.82,3.82,0,0,0,3.8-3.9A3.76,3.76,0,0,0,56,.1,3.82,3.82,0,0,0,52.2,4h0a3.82,3.82,0,0,0,3.9,3.8h0" transform="translate(0 0)"/><path class="cls-5" d="M41,27a3.82,3.82,0,0,0,3.8-3.9,3.85,3.85,0,1,0-7.7.1A4,4,0,0,0,41,27h0" transform="translate(0 0)"/><path class="cls-5" d="M41.6,41.6a3.82,3.82,0,0,0,3.8-3.9,3.76,3.76,0,0,0-3.9-3.8,3.8,3.8,0,0,0-3.8,3.8,4,4,0,0,0,3.9,3.9h0" transform="translate(0 0)"/><path class="cls-5" d="M56.9,42.1a3.9,3.9,0,0,0,3.9-3.9,3.82,3.82,0,0,0-3.9-3.8,3.85,3.85,0,1,0,0,7.7h0" transform="translate(0 0)"/><path class="cls-5" d="M42,79.4a3.82,3.82,0,0,0,3.8-3.9,3.76,3.76,0,0,0-3.9-3.8,3.8,3.8,0,0,0-3.8,3.8A3.9,3.9,0,0,0,42,79.4h0" transform="translate(0 0)"/><path class="cls-5" d="M58.6,79.4a3.9,3.9,0,0,0,3.9-3.9,3.82,3.82,0,0,0-3.9-3.8,3.88,3.88,0,0,0-3.9,3.8,4,4,0,0,0,3.9,3.9h0" transform="translate(0 0)"/><path class="cls-5" d="M41,127.6a3.82,3.82,0,0,0,3.8-3.9,3.76,3.76,0,0,0-3.9-3.8,3.8,3.8,0,0,0-3.8,3.8,4,4,0,0,0,3.9,3.9h0" transform="translate(0 0)"/><path class="cls-5" d="M58.6,128.1a3.88,3.88,0,0,0,3.9-3.8,3.82,3.82,0,0,0-3.9-3.8,3.8,3.8,0,1,0,0,7.6h0" transform="translate(0 0)"/><path class="cls-5" d="M75.8,112.1a3.9,3.9,0,0,0,3.9-3.9,3.82,3.82,0,0,0-3.9-3.8,3.88,3.88,0,0,0-3.9,3.8,4,4,0,0,0,3.9,3.9h0" transform="translate(0 0)"/><path class="cls-5" d="M93,112.1a3.9,3.9,0,0,0,3.9-3.9,3.82,3.82,0,0,0-3.9-3.8,3.88,3.88,0,0,0-3.9,3.8,4,4,0,0,0,3.9,3.9h0" transform="translate(0 0)"/><path class="cls-5" d="M75.8,95.8a3.9,3.9,0,0,0,3.9-3.9,3.82,3.82,0,0,0-3.9-3.8,3.88,3.88,0,0,0-3.9,3.8,4,4,0,0,0,3.9,3.9h0" transform="translate(0 0)"/><path class="cls-5" d="M75.4,69.4a3.9,3.9,0,0,0,3.9-3.9,3.82,3.82,0,0,0-3.9-3.8,3.88,3.88,0,0,0-3.9,3.8,4,4,0,0,0,3.9,3.9h0" transform="translate(0 0)"/><path class="cls-5" d="M93.8,70.2a3.9,3.9,0,0,0,3.9-3.9,3.82,3.82,0,0,0-3.9-3.8,3.88,3.88,0,0,0-3.9,3.8,4,4,0,0,0,3.9,3.9h0" transform="translate(0 0)"/><path class="cls-5" d="M45.5,168.7a4.12,4.12,0,0,0,4.1-4.1,4.1,4.1,0,0,0-8.2,0h0a4.26,4.26,0,0,0,4.1,4.1" transform="translate(0 0)"/><path class="cls-5" d="M47,184.2a4.12,4.12,0,0,0,4.1-4.1,4.1,4.1,0,0,0-8.2,0h0a4.12,4.12,0,0,0,4.1,4.1" transform="translate(0 0)"/><path class="cls-5" d="M62.9,183.3a4.12,4.12,0,0,0,4.1-4.1,4.1,4.1,0,0,0-8.2,0h0a4.06,4.06,0,0,0,4.1,4.1" transform="translate(0 0)"/><path class="cls-5" d="M78.9,199.3a4.12,4.12,0,0,0,4.1-4.1,4.1,4.1,0,0,0-8.2,0h0a4.12,4.12,0,0,0,4.1,4.1" transform="translate(0 0)"/><path class="cls-5" d="M78.2,215.6a4.12,4.12,0,0,0,4.1-4.1,4.1,4.1,0,0,0-8.2,0h0a4.06,4.06,0,0,0,4.1,4.1" transform="translate(0 0)"/><path class="cls-5" d="M15.3,229.9a4.12,4.12,0,0,0,4.1-4.1,4.1,4.1,0,0,0-8.2,0h0a4.12,4.12,0,0,0,4.1,4.1" transform="translate(0 0)"/><path class="cls-5" d="M15.6,276.5a4.12,4.12,0,0,0,4.1-4.1,4.1,4.1,0,0,0-8.2,0h0a4.06,4.06,0,0,0,4.1,4.1" transform="translate(0 0)"/><path class="cls-5" d="M62.9,323a4.12,4.12,0,0,0,4.1-4.1,4.1,4.1,0,0,0-8.2,0h0a4.06,4.06,0,0,0,4.1,4.1" transform="translate(0 0)"/><path class="cls-5" d="M14.7,339.7a4.12,4.12,0,0,0,4.1-4.1,4.1,4.1,0,0,0-8.2,0h0a4.18,4.18,0,0,0,4.1,4.1" transform="translate(0 0)"/><path class="cls-5" d="M79.4,358.3a4,4,0,0,0,4-4.1,4.1,4.1,0,0,0-4.1-4,4.05,4.05,0,1,0,.1,8.1" transform="translate(0 0)"/><path class="cls-5" d="M47.6,373.8a4.1,4.1,0,1,0-4.1-4.1h0a4.19,4.19,0,0,0,4.1,4.1" transform="translate(0 0)"/><path class="cls-5" d="M64.2,373.8a4.1,4.1,0,1,0-4.1-4.1h0a4.12,4.12,0,0,0,4.1,4.1" transform="translate(0 0)"/><path class="cls-5" d="M79.4,405a4.1,4.1,0,1,0-4.1-4.1h0a4.19,4.19,0,0,0,4.1,4.1" transform="translate(0 0)"/><path class="cls-5" d="M47.4,420.4a4.1,4.1,0,1,0-4.1-4.1h0a4.06,4.06,0,0,0,4.1,4.1" transform="translate(0 0)"/><path class="cls-5" d="M63.3,420.4a4.1,4.1,0,1,0-4.1-4.1h0a4.06,4.06,0,0,0,4.1,4.1" transform="translate(0 0)"/><path class="cls-5" d="M47.2,435.8a4.1,4.1,0,1,0-4.1-4.1h0a4.26,4.26,0,0,0,4.1,4.1" transform="translate(0 0)"/><path class="cls-5" d="M47.9,451.1a4.1,4.1,0,1,0-4.1-4.1h0a4.06,4.06,0,0,0,4.1,4.1" transform="translate(0 0)"/><path class="cls-5" d="M63.4,451.7a4.1,4.1,0,1,0-4.1-4.1h0a4.18,4.18,0,0,0,4.1,4.1" transform="translate(0 0)"/><path class="cls-5" d="M70.1,482.6a4.1,4.1,0,1,0-4.1-4.1h0a4.26,4.26,0,0,0,4.1,4.1" transform="translate(0 0)"/><path class="cls-5" d="M84.8,482.6a4.1,4.1,0,1,0-4.1-4.1h0a4.12,4.12,0,0,0,4.1,4.1" transform="translate(0 0)"/><path class="cls-5" d="M38,497.9a4.1,4.1,0,1,0-4.1-4.1h0a4.06,4.06,0,0,0,4.1,4.1" transform="translate(0 0)"/><path class="cls-5" d="M53.9,497.9a4.1,4.1,0,1,0-4.1-4.1h0a4.18,4.18,0,0,0,4.1,4.1" transform="translate(0 0)"/><path class="cls-5" d="M70.9,512.5a4.1,4.1,0,1,0-4.1-4.1,4.06,4.06,0,0,0,4.1,4.1h0" transform="translate(0 0)"/><path class="cls-5" d="M69.3,527.2a4.1,4.1,0,1,0-4.1-4.1,4.06,4.06,0,0,0,4.1,4.1h0" transform="translate(0 0)"/><path class="cls-5" d="M86.2,526.6a4.1,4.1,0,1,0-4.1-4.1,4.12,4.12,0,0,0,4.1,4.1h0" transform="translate(0 0)"/><path class="cls-5" d="M38,545.3a4.1,4.1,0,1,0-4.1-4.1,4.06,4.06,0,0,0,4.1,4.1h0" transform="translate(0 0)"/><path class="cls-5" d="M54.1,545.2a4.1,4.1,0,1,0-4.1-4.1,4.06,4.06,0,0,0,4.1,4.1h0" transform="translate(0 0)"/></svg>